<svg width="375" height="667" viewBox="0 0 375 667" fill="none" xmlns="http://www.w3.org/2000/svg">
<g clip-path="url(#clip0_6_1)">
<rect width="375" height="667" fill="white"/>
<path opacity="0.2" d="M138.643 461.551C159.661 461.551 176.699 444.513 176.699 423.495C176.699 402.478 159.661 385.44 138.643 385.44C117.626 385.44 100.587 402.478 100.587 423.495C100.587 444.513 117.626 461.551 138.643 461.551Z" fill="#38277A"/>
<path opacity="0.1" d="M200.688 638.166H76.5992L100.272 536.816L107.268 506.866L123.648 436.736H153.639L170.018 506.866L177.015 536.816L200.688 638.166Z" fill="#38277A"/>
<path opacity="0.2" d="M282.351 492.442C288.164 492.444 293.846 494.169 298.679 497.399C303.511 500.63 307.278 505.22 309.501 510.591C311.725 515.962 312.306 521.872 311.171 527.573C310.036 533.274 307.236 538.51 303.125 542.62C299.015 546.73 293.777 549.529 288.076 550.662C282.375 551.796 276.465 551.213 271.095 548.989C265.725 546.764 261.135 542.997 257.905 538.163C254.676 533.33 252.952 527.647 252.952 521.834C252.961 514.041 256.062 506.569 261.573 501.059C267.085 495.548 274.557 492.449 282.351 492.442ZM282.351 465.557C271.221 465.557 260.34 468.858 251.085 475.042C241.83 481.225 234.617 490.015 230.358 500.298C226.098 510.581 224.984 521.897 227.155 532.814C229.327 543.73 234.687 553.758 242.557 561.629C250.428 569.499 260.455 574.859 271.372 577.03C282.289 579.202 293.604 578.087 303.888 573.828C314.171 569.568 322.96 562.355 329.144 553.1C335.328 543.846 338.628 532.965 338.628 521.834C338.627 506.909 332.697 492.596 322.143 482.042C311.59 471.489 297.276 465.559 282.351 465.557Z" fill="#6548DA"/>
<circle cx="187.14" cy="114.937" r="353.063" fill="url(#paint0_linear_6_1)"/>
<g opacity="0.58">
<path opacity="0.2" d="M-20.0726 463.5L38.2614 521.834" stroke="#6548DA" stroke-width="10" stroke-miterlimit="10"/>
<path opacity="0.2" d="M343.992 617.78L393.212 667" stroke="#6548DA" stroke-width="10" stroke-miterlimit="10"/>
<g opacity="0.5">
<path d="M375.528 286.869H375.535C382.555 286.869 388.245 281.178 388.245 274.159V151.354C388.245 144.335 382.555 138.644 375.535 138.644H375.528C368.509 138.644 362.818 144.335 362.818 151.354V274.159C362.818 281.178 368.509 286.869 375.528 286.869Z" fill="#DCE2E5"/>
<path d="M339.059 248.43C334.014 248.43 329.924 252.519 329.924 257.564C329.924 262.608 334.014 266.698 339.059 266.698H374.083C379.128 266.698 383.217 262.608 383.217 257.564C383.217 252.519 379.128 248.43 374.083 248.43H339.059Z" fill="#DCE2E5"/>
<path d="M353.126 222.062C348.082 222.062 343.992 226.152 343.992 231.196C343.992 236.241 348.082 240.331 353.126 240.331H377.457C382.502 240.331 386.592 236.241 386.592 231.196C386.592 226.152 382.502 222.062 377.457 222.062H353.126Z" fill="#DCE2E5"/>
<path d="M375.528 85.9494C380.724 85.948 385.803 87.4874 390.123 90.3728C394.444 93.2583 397.811 97.3601 399.8 102.16C401.79 106.959 402.311 112.241 401.298 117.336C400.285 122.432 397.784 127.113 394.111 130.787C390.438 134.461 385.757 136.964 380.662 137.978C375.566 138.992 370.285 138.472 365.485 136.484C360.685 134.496 356.582 131.13 353.696 126.81C350.809 122.49 349.268 117.411 349.268 112.216C349.275 105.253 352.044 98.5772 356.967 93.653C361.89 88.7287 368.565 85.9583 375.528 85.9494ZM375.528 64.4413C366.079 64.4413 356.843 67.2432 348.986 72.4928C341.13 77.7423 335.006 85.2038 331.39 93.9335C327.774 102.663 326.828 112.269 328.671 121.537C330.515 130.804 335.065 139.317 341.746 145.998C348.428 152.68 356.94 157.23 366.208 159.073C375.475 160.916 385.081 159.97 393.811 156.354C402.541 152.738 410.002 146.615 415.252 138.758C420.501 130.902 423.303 121.665 423.303 112.216C423.303 99.5454 418.27 87.3937 409.31 78.4342C400.351 69.4747 388.199 64.4413 375.528 64.4413Z" fill="#DCE2E5"/>
<path d="M195.085 95.5401C205.571 95.5401 214.072 87.039 214.072 76.5524C214.072 66.0659 205.571 57.5648 195.085 57.5648C184.598 57.5648 176.097 66.0659 176.097 76.5524C176.097 87.039 184.598 95.5401 195.085 95.5401Z" stroke="#E9EEF2" stroke-width="10" stroke-miterlimit="10"/>
<path d="M208.07 90.4185L238.941 121.5" stroke="#E9EEF2" stroke-width="10" stroke-miterlimit="10"/>
<path d="M234.7 118.863L243.182 110.757" stroke="#E9EEF2" stroke-width="10" stroke-miterlimit="10"/>
<path d="M226.352 109.231L233.53 102.416" stroke="#E9EEF2" stroke-width="10" stroke-miterlimit="10"/>
<path d="M294.36 328.166L331.699 365.5" stroke="white" stroke-width="10" stroke-miterlimit="10"/>
<path d="M-20.0793 138.439L38.2614 196.773" stroke="white" stroke-width="10" stroke-miterlimit="10"/>
<path d="M-10.0793 351.531L10 371.608" stroke="white" stroke-width="10" stroke-miterlimit="10"/>
<path d="M274.06 147.325L217.4 203.985" stroke="white" stroke-width="10" stroke-miterlimit="10"/>
<path d="M44.0764 31.333L62.7456 50" stroke="white" stroke-width="10" stroke-miterlimit="10"/>
<path d="M289.224 13.2665C296.474 13.2665 302.351 7.3893 302.351 0.139433C302.351 -7.11043 296.474 -12.9876 289.224 -12.9876C281.974 -12.9876 276.097 -7.11043 276.097 0.139433C276.097 7.3893 281.974 13.2665 289.224 13.2665Z" stroke="#E9EEF2" stroke-width="10" stroke-miterlimit="10"/>
</g>
</g>
<path d="M70.1696 574.13H66.2696L65.4296 576H64.6596L67.8596 569H68.5896L71.7896 576H71.0096L70.1696 574.13ZM69.8996 573.53L68.2196 569.77L66.5396 573.53H69.8996ZM74.2976 568.58H75.0076V576H74.2976V568.58ZM79.1632 571.77C79.3298 571.417 79.5765 571.15 79.9032 570.97C80.2365 570.79 80.6465 570.7 81.1332 570.7V571.39L80.9632 571.38C80.4098 571.38 79.9765 571.55 79.6632 571.89C79.3498 572.23 79.1932 572.707 79.1932 573.32V576H78.4832V570.74H79.1632V571.77ZM88.4499 573.59H84.0499C84.0899 574.137 84.2999 574.58 84.6799 574.92C85.0599 575.253 85.5399 575.42 86.1199 575.42C86.4465 575.42 86.7465 575.363 87.0199 575.25C87.2932 575.13 87.5299 574.957 87.7299 574.73L88.1299 575.19C87.8965 575.47 87.6032 575.683 87.2499 575.83C86.9032 575.977 86.5199 576.05 86.0999 576.05C85.5599 576.05 85.0799 575.937 84.6599 575.71C84.2465 575.477 83.9232 575.157 83.6899 574.75C83.4565 574.343 83.3399 573.883 83.3399 573.37C83.3399 572.857 83.4499 572.397 83.6699 571.99C83.8965 571.583 84.2032 571.267 84.5899 571.04C84.9832 570.813 85.4232 570.7 85.9099 570.7C86.3965 570.7 86.8332 570.813 87.2199 571.04C87.6065 571.267 87.9099 571.583 88.1299 571.99C88.3499 572.39 88.4599 572.85 88.4599 573.37L88.4499 573.59ZM85.9099 571.31C85.4032 571.31 84.9765 571.473 84.6299 571.8C84.2899 572.12 84.0965 572.54 84.0499 573.06H87.7799C87.7332 572.54 87.5365 572.12 87.1899 571.8C86.8499 571.473 86.4232 571.31 85.9099 571.31ZM93.0986 570.7C93.7852 570.7 94.3119 570.873 94.6786 571.22C95.0452 571.56 95.2286 572.067 95.2286 572.74V576H94.5486V575.18C94.3886 575.453 94.1519 575.667 93.8386 575.82C93.5319 575.973 93.1652 576.05 92.7386 576.05C92.1519 576.05 91.6852 575.91 91.3386 575.63C90.9919 575.35 90.8186 574.98 90.8186 574.52C90.8186 574.073 90.9786 573.713 91.2986 573.44C91.6252 573.167 92.1419 573.03 92.8486 573.03H94.5186V572.71C94.5186 572.257 94.3919 571.913 94.1386 571.68C93.8852 571.44 93.5152 571.32 93.0286 571.32C92.6952 571.32 92.3752 571.377 92.0686 571.49C91.7619 571.597 91.4986 571.747 91.2786 571.94L90.9586 571.41C91.2252 571.183 91.5452 571.01 91.9186 570.89C92.2919 570.763 92.6852 570.7 93.0986 570.7ZM92.8486 575.49C93.2486 575.49 93.5919 575.4 93.8786 575.22C94.1652 575.033 94.3786 574.767 94.5186 574.42V573.56H92.8686C91.9686 573.56 91.5186 573.873 91.5186 574.5C91.5186 574.807 91.6352 575.05 91.8686 575.23C92.1019 575.403 92.4286 575.49 92.8486 575.49ZM103.477 568.58V576H102.797V574.96C102.583 575.313 102.3 575.583 101.947 575.77C101.6 575.957 101.207 576.05 100.767 576.05C100.273 576.05 99.8265 575.937 99.4265 575.71C99.0265 575.483 98.7132 575.167 98.4865 574.76C98.2599 574.353 98.1465 573.89 98.1465 573.37C98.1465 572.85 98.2599 572.387 98.4865 571.98C98.7132 571.573 99.0265 571.26 99.4265 571.04C99.8265 570.813 100.273 570.7 100.767 570.7C101.193 570.7 101.577 570.79 101.917 570.97C102.263 571.143 102.547 571.4 102.767 571.74V568.58H103.477ZM100.827 575.42C101.193 575.42 101.523 575.337 101.817 575.17C102.117 574.997 102.35 574.753 102.517 574.44C102.69 574.127 102.777 573.77 102.777 573.37C102.777 572.97 102.69 572.613 102.517 572.3C102.35 571.987 102.117 571.747 101.817 571.58C101.523 571.407 101.193 571.32 100.827 571.32C100.453 571.32 100.117 571.407 99.8165 571.58C99.5232 571.747 99.2899 571.987 99.1165 572.3C98.9499 572.613 98.8665 572.97 98.8665 573.37C98.8665 573.77 98.9499 574.127 99.1165 574.44C99.2899 574.753 99.5232 574.997 99.8165 575.17C100.117 575.337 100.453 575.42 100.827 575.42ZM111.374 570.74L108.744 576.63C108.531 577.123 108.284 577.473 108.004 577.68C107.724 577.887 107.387 577.99 106.994 577.99C106.741 577.99 106.504 577.95 106.284 577.87C106.064 577.79 105.874 577.67 105.714 577.51L106.044 576.98C106.311 577.247 106.631 577.38 107.004 577.38C107.244 577.38 107.447 577.313 107.614 577.18C107.787 577.047 107.947 576.82 108.094 576.5L108.324 575.99L105.974 570.74H106.714L108.694 575.21L110.674 570.74H111.374ZM120.071 576.06C119.551 576.06 119.051 575.977 118.571 575.81C118.098 575.643 117.731 575.423 117.471 575.15L117.761 574.58C118.014 574.833 118.351 575.04 118.771 575.2C119.191 575.353 119.624 575.43 120.071 575.43C120.698 575.43 121.168 575.317 121.481 575.09C121.794 574.857 121.951 574.557 121.951 574.19C121.951 573.91 121.864 573.687 121.691 573.52C121.524 573.353 121.318 573.227 121.071 573.14C120.824 573.047 120.481 572.947 120.041 572.84C119.514 572.707 119.094 572.58 118.781 572.46C118.468 572.333 118.198 572.143 117.971 571.89C117.751 571.637 117.641 571.293 117.641 570.86C117.641 570.507 117.734 570.187 117.921 569.9C118.108 569.607 118.394 569.373 118.781 569.2C119.168 569.027 119.648 568.94 120.221 568.94C120.621 568.94 121.011 568.997 121.391 569.11C121.778 569.217 122.111 569.367 122.391 569.56L122.141 570.15C121.848 569.957 121.534 569.813 121.201 569.72C120.868 569.62 120.541 569.57 120.221 569.57C119.608 569.57 119.144 569.69 118.831 569.93C118.524 570.163 118.371 570.467 118.371 570.84C118.371 571.12 118.454 571.347 118.621 571.52C118.794 571.687 119.008 571.817 119.261 571.91C119.521 571.997 119.868 572.093 120.301 572.2C120.814 572.327 121.228 572.453 121.541 572.58C121.861 572.7 122.131 572.887 122.351 573.14C122.571 573.387 122.681 573.723 122.681 574.15C122.681 574.503 122.584 574.827 122.391 575.12C122.204 575.407 121.914 575.637 121.521 575.81C121.128 575.977 120.644 576.06 120.071 576.06ZM125.643 570.74H126.353V576H125.643V570.74ZM126.003 569.59C125.857 569.59 125.733 569.54 125.633 569.44C125.533 569.34 125.483 569.22 125.483 569.08C125.483 568.947 125.533 568.83 125.633 568.73C125.733 568.63 125.857 568.58 126.003 568.58C126.15 568.58 126.273 568.63 126.373 568.73C126.473 568.823 126.523 568.937 126.523 569.07C126.523 569.217 126.473 569.34 126.373 569.44C126.273 569.54 126.15 569.59 126.003 569.59ZM134.699 570.74V575.36C134.699 576.253 134.479 576.913 134.039 577.34C133.606 577.773 132.949 577.99 132.069 577.99C131.582 577.99 131.119 577.917 130.679 577.77C130.246 577.63 129.892 577.433 129.619 577.18L129.979 576.64C130.232 576.867 130.539 577.043 130.899 577.17C131.266 577.297 131.649 577.36 132.049 577.36C132.716 577.36 133.206 577.203 133.519 576.89C133.832 576.583 133.989 576.103 133.989 575.45V574.78C133.769 575.113 133.479 575.367 133.119 575.54C132.766 575.713 132.372 575.8 131.939 575.8C131.446 575.8 130.996 575.693 130.589 575.48C130.189 575.26 129.872 574.957 129.639 574.57C129.412 574.177 129.299 573.733 129.299 573.24C129.299 572.747 129.412 572.307 129.639 571.92C129.872 571.533 130.189 571.233 130.589 571.02C130.989 570.807 131.439 570.7 131.939 570.7C132.386 570.7 132.789 570.79 133.149 570.97C133.509 571.15 133.799 571.41 134.019 571.75V570.74H134.699ZM132.009 575.17C132.389 575.17 132.732 575.09 133.039 574.93C133.346 574.763 133.582 574.533 133.749 574.24C133.922 573.947 134.009 573.613 134.009 573.24C134.009 572.867 133.922 572.537 133.749 572.25C133.582 571.957 133.346 571.73 133.039 571.57C132.739 571.403 132.396 571.32 132.009 571.32C131.629 571.32 131.286 571.4 130.979 571.56C130.679 571.72 130.442 571.947 130.269 572.24C130.102 572.533 130.019 572.867 130.019 573.24C130.019 573.613 130.102 573.947 130.269 574.24C130.442 574.533 130.679 574.763 130.979 574.93C131.286 575.09 131.629 575.17 132.009 575.17ZM140.864 570.7C141.524 570.7 142.048 570.893 142.434 571.28C142.828 571.66 143.024 572.217 143.024 572.95V576H142.314V573.02C142.314 572.473 142.178 572.057 141.904 571.77C141.631 571.483 141.241 571.34 140.734 571.34C140.168 571.34 139.718 571.51 139.384 571.85C139.058 572.183 138.894 572.647 138.894 573.24V576H138.184V570.74H138.864V571.71C139.058 571.39 139.324 571.143 139.664 570.97C140.011 570.79 140.411 570.7 140.864 570.7ZM151.051 573.59H146.651C146.691 574.137 146.901 574.58 147.281 574.92C147.661 575.253 148.141 575.42 148.721 575.42C149.048 575.42 149.348 575.363 149.621 575.25C149.895 575.13 150.131 574.957 150.331 574.73L150.731 575.19C150.498 575.47 150.205 575.683 149.851 575.83C149.505 575.977 149.121 576.05 148.701 576.05C148.161 576.05 147.681 575.937 147.261 575.71C146.848 575.477 146.525 575.157 146.291 574.75C146.058 574.343 145.941 573.883 145.941 573.37C145.941 572.857 146.051 572.397 146.271 571.99C146.498 571.583 146.805 571.267 147.191 571.04C147.585 570.813 148.025 570.7 148.511 570.7C148.998 570.7 149.435 570.813 149.821 571.04C150.208 571.267 150.511 571.583 150.731 571.99C150.951 572.39 151.061 572.85 151.061 573.37L151.051 573.59ZM148.511 571.31C148.005 571.31 147.578 571.473 147.231 571.8C146.891 572.12 146.698 572.54 146.651 573.06H150.381C150.335 572.54 150.138 572.12 149.791 571.8C149.451 571.473 149.025 571.31 148.511 571.31ZM158.807 568.58V576H158.127V574.96C157.913 575.313 157.63 575.583 157.277 575.77C156.93 575.957 156.537 576.05 156.097 576.05C155.603 576.05 155.157 575.937 154.757 575.71C154.357 575.483 154.043 575.167 153.817 574.76C153.59 574.353 153.477 573.89 153.477 573.37C153.477 572.85 153.59 572.387 153.817 571.98C154.043 571.573 154.357 571.26 154.757 571.04C155.157 570.813 155.603 570.7 156.097 570.7C156.523 570.7 156.907 570.79 157.247 570.97C157.593 571.143 157.877 571.4 158.097 571.74V568.58H158.807ZM156.157 575.42C156.523 575.42 156.853 575.337 157.147 575.17C157.447 574.997 157.68 574.753 157.847 574.44C158.02 574.127 158.107 573.77 158.107 573.37C158.107 572.97 158.02 572.613 157.847 572.3C157.68 571.987 157.447 571.747 157.147 571.58C156.853 571.407 156.523 571.32 156.157 571.32C155.783 571.32 155.447 571.407 155.147 571.58C154.853 571.747 154.62 571.987 154.447 572.3C154.28 572.613 154.197 572.97 154.197 573.37C154.197 573.77 154.28 574.127 154.447 574.44C154.62 574.753 154.853 574.997 155.147 575.17C155.447 575.337 155.783 575.42 156.157 575.42ZM169.371 576.06C168.464 576.06 167.758 575.8 167.251 575.28C166.744 574.76 166.491 574.003 166.491 573.01V569H167.231V572.98C167.231 573.793 167.414 574.4 167.781 574.8C168.148 575.2 168.678 575.4 169.371 575.4C170.071 575.4 170.604 575.2 170.971 574.8C171.338 574.4 171.521 573.793 171.521 572.98V569H172.241V573.01C172.241 574.003 171.988 574.76 171.481 575.28C170.981 575.8 170.278 576.06 169.371 576.06ZM178.531 570.7C179.024 570.7 179.471 570.813 179.871 571.04C180.271 571.26 180.584 571.573 180.811 571.98C181.038 572.387 181.151 572.85 181.151 573.37C181.151 573.897 181.038 574.363 180.811 574.77C180.584 575.177 180.271 575.493 179.871 575.72C179.478 575.94 179.031 576.05 178.531 576.05C178.104 576.05 177.718 575.963 177.371 575.79C177.031 575.61 176.751 575.35 176.531 575.01V577.94H175.821V570.74H176.501V571.78C176.714 571.433 176.994 571.167 177.341 570.98C177.694 570.793 178.091 570.7 178.531 570.7ZM178.481 575.42C178.848 575.42 179.181 575.337 179.481 575.17C179.781 574.997 180.014 574.753 180.181 574.44C180.354 574.127 180.441 573.77 180.441 573.37C180.441 572.97 180.354 572.617 180.181 572.31C180.014 571.997 179.781 571.753 179.481 571.58C179.181 571.407 178.848 571.32 178.481 571.32C178.108 571.32 177.771 571.407 177.471 571.58C177.178 571.753 176.944 571.997 176.771 572.31C176.604 572.617 176.521 572.97 176.521 573.37C176.521 573.77 176.604 574.127 176.771 574.44C176.944 574.753 177.178 574.997 177.471 575.17C177.771 575.337 178.108 575.42 178.481 575.42ZM184.98 573.9C184.98 573.627 185.023 573.387 185.11 573.18C185.203 572.973 185.317 572.797 185.45 572.65C185.583 572.503 185.757 572.337 185.97 572.15C186.257 571.897 186.467 571.677 186.6 571.49C186.74 571.297 186.81 571.063 186.81 570.79C186.81 570.423 186.667 570.13 186.38 569.91C186.093 569.683 185.7 569.57 185.2 569.57C184.373 569.57 183.737 569.84 183.29 570.38L182.76 569.98C183.327 569.287 184.157 568.94 185.25 568.94C185.95 568.94 186.507 569.097 186.92 569.41C187.34 569.723 187.55 570.147 187.55 570.68C187.55 570.953 187.503 571.197 187.41 571.41C187.323 571.617 187.213 571.793 187.08 571.94C186.953 572.087 186.783 572.257 186.57 572.45C186.283 572.71 186.07 572.943 185.93 573.15C185.79 573.35 185.72 573.6 185.72 573.9H184.98ZM185.35 576.05C185.203 576.05 185.08 576 184.98 575.9C184.88 575.793 184.83 575.67 184.83 575.53C184.83 575.383 184.88 575.263 184.98 575.17C185.08 575.07 185.203 575.02 185.35 575.02C185.503 575.02 185.63 575.07 185.73 575.17C185.83 575.263 185.88 575.383 185.88 575.53C185.88 575.67 185.827 575.793 185.72 575.9C185.62 576 185.497 576.05 185.35 576.05Z" fill="black"/>
<path d="M194.751 569H196.371V574.68H199.881V576H194.751V569ZM204.697 576.08C204.13 576.08 203.62 575.963 203.167 575.73C202.72 575.49 202.37 575.16 202.117 574.74C201.864 574.32 201.737 573.843 201.737 573.31C201.737 572.777 201.864 572.3 202.117 571.88C202.37 571.46 202.72 571.133 203.167 570.9C203.62 570.66 204.13 570.54 204.697 570.54C205.264 570.54 205.77 570.66 206.217 570.9C206.664 571.133 207.014 571.46 207.267 571.88C207.52 572.3 207.647 572.777 207.647 573.31C207.647 573.843 207.52 574.32 207.267 574.74C207.014 575.16 206.664 575.49 206.217 575.73C205.77 575.963 205.264 576.08 204.697 576.08ZM204.697 574.8C205.097 574.8 205.424 574.667 205.677 574.4C205.937 574.127 206.067 573.763 206.067 573.31C206.067 572.857 205.937 572.497 205.677 572.23C205.424 571.957 205.097 571.82 204.697 571.82C204.297 571.82 203.967 571.957 203.707 572.23C203.447 572.497 203.317 572.857 203.317 573.31C203.317 573.763 203.447 574.127 203.707 574.4C203.967 574.667 204.297 574.8 204.697 574.8ZM215.74 570.62V575.1C215.74 576.087 215.483 576.82 214.97 577.3C214.456 577.78 213.706 578.02 212.72 578.02C212.2 578.02 211.706 577.957 211.24 577.83C210.773 577.703 210.386 577.52 210.08 577.28L210.7 576.16C210.926 576.347 211.213 576.493 211.56 576.6C211.906 576.713 212.253 576.77 212.6 576.77C213.14 576.77 213.536 576.647 213.79 576.4C214.05 576.16 214.18 575.793 214.18 575.3V575.07C213.773 575.517 213.206 575.74 212.48 575.74C211.986 575.74 211.533 575.633 211.12 575.42C210.713 575.2 210.39 574.893 210.15 574.5C209.91 574.107 209.79 573.653 209.79 573.14C209.79 572.627 209.91 572.173 210.15 571.78C210.39 571.387 210.713 571.083 211.12 570.87C211.533 570.65 211.986 570.54 212.48 570.54C213.26 570.54 213.853 570.797 214.26 571.31V570.62H215.74ZM212.79 574.46C213.203 574.46 213.54 574.34 213.8 574.1C214.066 573.853 214.2 573.533 214.2 573.14C214.2 572.747 214.066 572.43 213.8 572.19C213.54 571.943 213.203 571.82 212.79 571.82C212.376 571.82 212.036 571.943 211.77 572.19C211.503 572.43 211.37 572.747 211.37 573.14C211.37 573.533 211.503 573.853 211.77 574.1C212.036 574.34 212.376 574.46 212.79 574.46ZM223.024 570.62H224.584V576H223.024V570.62ZM223.804 569.87C223.517 569.87 223.284 569.787 223.104 569.62C222.924 569.453 222.834 569.247 222.834 569C222.834 568.753 222.924 568.547 223.104 568.38C223.284 568.213 223.517 568.13 223.804 568.13C224.09 568.13 224.324 568.21 224.504 568.37C224.684 568.53 224.774 568.73 224.774 568.97C224.774 569.23 224.684 569.447 224.504 569.62C224.324 569.787 224.09 569.87 223.804 569.87ZM230.802 570.54C231.468 570.54 232.005 570.74 232.412 571.14C232.825 571.54 233.032 572.133 233.032 572.92V576H231.472V573.16C231.472 572.733 231.378 572.417 231.192 572.21C231.005 571.997 230.735 571.89 230.382 571.89C229.988 571.89 229.675 572.013 229.442 572.26C229.208 572.5 229.092 572.86 229.092 573.34V576H227.532V570.62H229.022V571.25C229.228 571.023 229.485 570.85 229.792 570.73C230.098 570.603 230.435 570.54 230.802 570.54Z" fill="#3D28CF"/>
<rect x="64.6396" y="515" width="250" height="42" rx="5" fill="#533EDE"/>
<path d="M153.522 541.168C152.747 541.168 151.996 541.065 151.268 540.86C150.549 540.645 149.97 540.37 149.532 540.034L150.302 538.326C150.722 538.634 151.221 538.881 151.8 539.068C152.378 539.255 152.957 539.348 153.536 539.348C154.18 539.348 154.656 539.255 154.964 539.068C155.272 538.872 155.426 538.615 155.426 538.298C155.426 538.065 155.332 537.873 155.146 537.724C154.968 537.565 154.735 537.439 154.446 537.346C154.166 537.253 153.783 537.15 153.298 537.038C152.551 536.861 151.94 536.683 151.464 536.506C150.988 536.329 150.577 536.044 150.232 535.652C149.896 535.26 149.728 534.737 149.728 534.084C149.728 533.515 149.882 533.001 150.19 532.544C150.498 532.077 150.96 531.709 151.576 531.438C152.201 531.167 152.962 531.032 153.858 531.032C154.483 531.032 155.094 531.107 155.692 531.256C156.289 531.405 156.812 531.62 157.26 531.9L156.56 533.622C155.654 533.109 154.749 532.852 153.844 532.852C153.209 532.852 152.738 532.955 152.43 533.16C152.131 533.365 151.982 533.636 151.982 533.972C151.982 534.308 152.154 534.56 152.5 534.728C152.854 534.887 153.391 535.045 154.11 535.204C154.856 535.381 155.468 535.559 155.944 535.736C156.42 535.913 156.826 536.193 157.162 536.576C157.507 536.959 157.68 537.477 157.68 538.13C157.68 538.69 157.521 539.203 157.204 539.67C156.896 540.127 156.429 540.491 155.804 540.762C155.178 541.033 154.418 541.168 153.522 541.168ZM161.329 531.2H163.597V541H161.329V531.2ZM174.645 535.946H176.717V539.922C176.185 540.323 175.569 540.631 174.869 540.846C174.169 541.061 173.464 541.168 172.755 541.168C171.738 541.168 170.823 540.953 170.011 540.524C169.199 540.085 168.56 539.483 168.093 538.718C167.636 537.943 167.407 537.071 167.407 536.1C167.407 535.129 167.636 534.261 168.093 533.496C168.56 532.721 169.204 532.119 170.025 531.69C170.846 531.251 171.77 531.032 172.797 531.032C173.656 531.032 174.435 531.177 175.135 531.466C175.835 531.755 176.423 532.175 176.899 532.726L175.443 534.07C174.743 533.333 173.898 532.964 172.909 532.964C172.284 532.964 171.728 533.095 171.243 533.356C170.758 533.617 170.38 533.986 170.109 534.462C169.838 534.938 169.703 535.484 169.703 536.1C169.703 536.707 169.838 537.248 170.109 537.724C170.38 538.2 170.753 538.573 171.229 538.844C171.714 539.105 172.265 539.236 172.881 539.236C173.534 539.236 174.122 539.096 174.645 538.816V535.946ZM189.912 531.2V541H188.05L183.164 535.05V541H180.924V531.2H182.8L187.672 537.15V531.2H189.912ZM204.749 541.168C203.349 541.168 202.257 540.781 201.473 540.006C200.699 539.231 200.311 538.125 200.311 536.688V531.2H202.579V536.604C202.579 538.359 203.307 539.236 204.763 539.236C205.473 539.236 206.014 539.026 206.387 538.606C206.761 538.177 206.947 537.509 206.947 536.604V531.2H209.187V536.688C209.187 538.125 208.795 539.231 208.011 540.006C207.237 540.781 206.149 541.168 204.749 541.168ZM217.771 531.2C218.639 531.2 219.39 531.345 220.025 531.634C220.669 531.923 221.163 532.334 221.509 532.866C221.854 533.398 222.027 534.028 222.027 534.756C222.027 535.475 221.854 536.105 221.509 536.646C221.163 537.178 220.669 537.589 220.025 537.878C219.39 538.158 218.639 538.298 217.771 538.298H215.797V541H213.529V531.2H217.771ZM217.645 536.45C218.326 536.45 218.844 536.305 219.199 536.016C219.553 535.717 219.731 535.297 219.731 534.756C219.731 534.205 219.553 533.785 219.199 533.496C218.844 533.197 218.326 533.048 217.645 533.048H215.797V536.45H217.645Z" fill="white"/>
<rect x="65.0403" y="413.5" width="249" height="83" rx="4.5" fill="white" stroke="#DADADA" stroke-linecap="square"/>
<path d="M84.8176 439.692V441H78.5176V432.6H84.6496V433.908H80.0776V436.092H84.1336V437.376H80.0776V439.692H84.8176ZM96.3007 434.52C97.1087 434.52 97.7487 434.756 98.2207 435.228C98.6927 435.692 98.9287 436.392 98.9287 437.328V441H97.4287V437.52C97.4287 436.96 97.3047 436.54 97.0567 436.26C96.8087 435.972 96.4527 435.828 95.9887 435.828C95.4847 435.828 95.0807 435.996 94.7767 436.332C94.4727 436.66 94.3207 437.132 94.3207 437.748V441H92.8207V437.52C92.8207 436.96 92.6967 436.54 92.4487 436.26C92.2007 435.972 91.8447 435.828 91.3807 435.828C90.8687 435.828 90.4607 435.992 90.1567 436.32C89.8607 436.648 89.7127 437.124 89.7127 437.748V441H88.2127V434.592H89.6407V435.408C89.8807 435.12 90.1807 434.9 90.5407 434.748C90.9007 434.596 91.3007 434.52 91.7407 434.52C92.2207 434.52 92.6447 434.612 93.0127 434.796C93.3887 434.972 93.6847 435.236 93.9007 435.588C94.1647 435.252 94.5047 434.992 94.9207 434.808C95.3367 434.616 95.7967 434.52 96.3007 434.52ZM105.094 434.52C106.038 434.52 106.758 434.748 107.254 435.204C107.758 435.652 108.01 436.332 108.01 437.244V441H106.594V440.22C106.41 440.5 106.146 440.716 105.802 440.868C105.466 441.012 105.058 441.084 104.578 441.084C104.098 441.084 103.678 441.004 103.318 440.844C102.958 440.676 102.678 440.448 102.478 440.16C102.286 439.864 102.19 439.532 102.19 439.164C102.19 438.588 102.402 438.128 102.826 437.784C103.258 437.432 103.934 437.256 104.854 437.256H106.51V437.16C106.51 436.712 106.374 436.368 106.102 436.128C105.838 435.888 105.442 435.768 104.914 435.768C104.554 435.768 104.198 435.824 103.846 435.936C103.502 436.048 103.21 436.204 102.97 436.404L102.382 435.312C102.718 435.056 103.122 434.86 103.594 434.724C104.066 434.588 104.566 434.52 105.094 434.52ZM104.89 439.992C105.266 439.992 105.598 439.908 105.886 439.74C106.182 439.564 106.39 439.316 106.51 438.996V438.252H104.962C104.098 438.252 103.666 438.536 103.666 439.104C103.666 439.376 103.774 439.592 103.99 439.752C104.206 439.912 104.506 439.992 104.89 439.992ZM111.735 434.592H113.235V441H111.735V434.592ZM112.491 433.536C112.219 433.536 111.991 433.452 111.807 433.284C111.623 433.108 111.531 432.892 111.531 432.636C111.531 432.38 111.623 432.168 111.807 432C111.991 431.824 112.219 431.736 112.491 431.736C112.763 431.736 112.991 431.82 113.175 431.988C113.359 432.148 113.451 432.352 113.451 432.6C113.451 432.864 113.359 433.088 113.175 433.272C112.999 433.448 112.771 433.536 112.491 433.536ZM117.003 432.096H118.503V441H117.003V432.096ZM129.836 434.52C130.78 434.52 131.5 434.748 131.996 435.204C132.5 435.652 132.752 436.332 132.752 437.244V441H131.336V440.22C131.152 440.5 130.888 440.716 130.544 440.868C130.208 441.012 129.8 441.084 129.32 441.084C128.84 441.084 128.42 441.004 128.06 440.844C127.7 440.676 127.42 440.448 127.22 440.16C127.028 439.864 126.932 439.532 126.932 439.164C126.932 438.588 127.144 438.128 127.568 437.784C128 437.432 128.676 437.256 129.596 437.256H131.252V437.16C131.252 436.712 131.116 436.368 130.844 436.128C130.58 435.888 130.184 435.768 129.656 435.768C129.296 435.768 128.94 435.824 128.588 435.936C128.244 436.048 127.952 436.204 127.712 436.404L127.124 435.312C127.46 435.056 127.864 434.86 128.336 434.724C128.808 434.588 129.308 434.52 129.836 434.52ZM129.632 439.992C130.008 439.992 130.34 439.908 130.628 439.74C130.924 439.564 131.132 439.316 131.252 438.996V438.252H129.704C128.84 438.252 128.408 438.536 128.408 439.104C128.408 439.376 128.516 439.592 128.732 439.752C128.948 439.912 129.248 439.992 129.632 439.992ZM142.812 432.096V441H141.372V440.172C141.124 440.476 140.816 440.704 140.448 440.856C140.088 441.008 139.688 441.084 139.248 441.084C138.632 441.084 138.076 440.948 137.58 440.676C137.092 440.404 136.708 440.02 136.428 439.524C136.148 439.02 136.008 438.444 136.008 437.796C136.008 437.148 136.148 436.576 136.428 436.08C136.708 435.584 137.092 435.2 137.58 434.928C138.076 434.656 138.632 434.52 139.248 434.52C139.672 434.52 140.06 434.592 140.412 434.736C140.764 434.88 141.064 435.096 141.312 435.384V432.096H142.812ZM139.428 439.8C139.788 439.8 140.112 439.72 140.4 439.56C140.688 439.392 140.916 439.156 141.084 438.852C141.252 438.548 141.336 438.196 141.336 437.796C141.336 437.396 141.252 437.044 141.084 436.74C140.916 436.436 140.688 436.204 140.4 436.044C140.112 435.876 139.788 435.792 139.428 435.792C139.068 435.792 138.744 435.876 138.456 436.044C138.168 436.204 137.94 436.436 137.772 436.74C137.604 437.044 137.52 437.396 137.52 437.796C137.52 438.196 137.604 438.548 137.772 438.852C137.94 439.156 138.168 439.392 138.456 439.56C138.744 439.72 139.068 439.8 139.428 439.8ZM152.85 432.096V441H151.41V440.172C151.162 440.476 150.854 440.704 150.486 440.856C150.126 441.008 149.726 441.084 149.286 441.084C148.67 441.084 148.114 440.948 147.618 440.676C147.13 440.404 146.746 440.02 146.466 439.524C146.186 439.02 146.046 438.444 146.046 437.796C146.046 437.148 146.186 436.576 146.466 436.08C146.746 435.584 147.13 435.2 147.618 434.928C148.114 434.656 148.67 434.52 149.286 434.52C149.71 434.52 150.098 434.592 150.45 434.736C150.802 434.88 151.102 435.096 151.35 435.384V432.096H152.85ZM149.466 439.8C149.826 439.8 150.15 439.72 150.438 439.56C150.726 439.392 150.954 439.156 151.122 438.852C151.29 438.548 151.374 438.196 151.374 437.796C151.374 437.396 151.29 437.044 151.122 436.74C150.954 436.436 150.726 436.204 150.438 436.044C150.15 435.876 149.826 435.792 149.466 435.792C149.106 435.792 148.782 435.876 148.494 436.044C148.206 436.204 147.978 436.436 147.81 436.74C147.642 437.044 147.558 437.396 147.558 437.796C147.558 438.196 147.642 438.548 147.81 438.852C147.978 439.156 148.206 439.392 148.494 439.56C148.782 439.72 149.106 439.8 149.466 439.8ZM158.041 435.528C158.473 434.856 159.233 434.52 160.321 434.52V435.948C160.193 435.924 160.077 435.912 159.973 435.912C159.389 435.912 158.933 436.084 158.605 436.428C158.277 436.764 158.113 437.252 158.113 437.892V441H156.613V434.592H158.041V435.528ZM169.359 437.832C169.359 437.936 169.351 438.084 169.335 438.276H164.307C164.395 438.748 164.623 439.124 164.991 439.404C165.367 439.676 165.831 439.812 166.383 439.812C167.087 439.812 167.667 439.58 168.123 439.116L168.927 440.04C168.639 440.384 168.275 440.644 167.835 440.82C167.395 440.996 166.899 441.084 166.347 441.084C165.643 441.084 165.023 440.944 164.487 440.664C163.951 440.384 163.535 439.996 163.239 439.5C162.951 438.996 162.807 438.428 162.807 437.796C162.807 437.172 162.947 436.612 163.227 436.116C163.515 435.612 163.911 435.22 164.415 434.94C164.919 434.66 165.487 434.52 166.119 434.52C166.743 434.52 167.299 434.66 167.787 434.94C168.283 435.212 168.667 435.6 168.939 436.104C169.219 436.6 169.359 437.176 169.359 437.832ZM166.119 435.72C165.639 435.72 165.231 435.864 164.895 436.152C164.567 436.432 164.367 436.808 164.295 437.28H167.931C167.867 436.816 167.671 436.44 167.343 436.152C167.015 435.864 166.607 435.72 166.119 435.72ZM174.579 441.084C174.059 441.084 173.551 441.016 173.055 440.88C172.559 440.744 172.163 440.572 171.867 440.364L172.443 439.224C172.731 439.416 173.075 439.572 173.475 439.692C173.883 439.804 174.283 439.86 174.675 439.86C175.571 439.86 176.019 439.624 176.019 439.152C176.019 438.928 175.903 438.772 175.671 438.684C175.447 438.596 175.083 438.512 174.579 438.432C174.051 438.352 173.619 438.26 173.283 438.156C172.955 438.052 172.667 437.872 172.419 437.616C172.179 437.352 172.059 436.988 172.059 436.524C172.059 435.916 172.311 435.432 172.815 435.072C173.327 434.704 174.015 434.52 174.879 434.52C175.319 434.52 175.759 434.572 176.199 434.676C176.639 434.772 176.999 434.904 177.279 435.072L176.703 436.212C176.159 435.892 175.547 435.732 174.867 435.732C174.427 435.732 174.091 435.8 173.859 435.936C173.635 436.064 173.523 436.236 173.523 436.452C173.523 436.692 173.643 436.864 173.883 436.968C174.131 437.064 174.511 437.156 175.023 437.244C175.535 437.324 175.955 437.416 176.283 437.52C176.611 437.624 176.891 437.8 177.123 438.048C177.363 438.296 177.483 438.648 177.483 439.104C177.483 439.704 177.223 440.184 176.703 440.544C176.183 440.904 175.475 441.084 174.579 441.084ZM182.555 441.084C182.035 441.084 181.527 441.016 181.031 440.88C180.535 440.744 180.139 440.572 179.843 440.364L180.419 439.224C180.707 439.416 181.051 439.572 181.451 439.692C181.859 439.804 182.259 439.86 182.651 439.86C183.547 439.86 183.995 439.624 183.995 439.152C183.995 438.928 183.879 438.772 183.647 438.684C183.423 438.596 183.059 438.512 182.555 438.432C182.027 438.352 181.595 438.26 181.259 438.156C180.931 438.052 180.643 437.872 180.395 437.616C180.155 437.352 180.035 436.988 180.035 436.524C180.035 435.916 180.287 435.432 180.791 435.072C181.303 434.704 181.991 434.52 182.855 434.52C183.295 434.52 183.735 434.572 184.175 434.676C184.615 434.772 184.975 434.904 185.255 435.072L184.679 436.212C184.135 435.892 183.523 435.732 182.843 435.732C182.403 435.732 182.067 435.8 181.835 435.936C181.611 436.064 181.499 436.236 181.499 436.452C181.499 436.692 181.619 436.864 181.859 436.968C182.107 437.064 182.487 437.156 182.999 437.244C183.511 437.324 183.931 437.416 184.259 437.52C184.587 437.624 184.867 437.8 185.099 438.048C185.339 438.296 185.459 438.648 185.459 439.104C185.459 439.704 185.199 440.184 184.679 440.544C184.159 440.904 183.451 441.084 182.555 441.084Z" fill="#533EDE"/>
<path d="M81.9736 473.6C82.7016 473.6 83.3336 473.72 83.8696 473.96C84.4136 474.2 84.8296 474.544 85.1176 474.992C85.4056 475.44 85.5496 475.972 85.5496 476.588C85.5496 477.196 85.4056 477.728 85.1176 478.184C84.8296 478.632 84.4136 478.976 83.8696 479.216C83.3336 479.456 82.7016 479.576 81.9736 479.576H80.0776V482H78.5176V473.6H81.9736ZM81.9016 478.256C82.5816 478.256 83.0976 478.112 83.4496 477.824C83.8016 477.536 83.9776 477.124 83.9776 476.588C83.9776 476.052 83.8016 475.64 83.4496 475.352C83.0976 475.064 82.5816 474.92 81.9016 474.92H80.0776V478.256H81.9016ZM91.1529 475.52C92.0969 475.52 92.8169 475.748 93.3129 476.204C93.8169 476.652 94.0689 477.332 94.0689 478.244V482H92.6529V481.22C92.4689 481.5 92.2049 481.716 91.8609 481.868C91.5249 482.012 91.1169 482.084 90.6369 482.084C90.1569 482.084 89.7369 482.004 89.3769 481.844C89.0169 481.676 88.7369 481.448 88.5369 481.16C88.3449 480.864 88.2489 480.532 88.2489 480.164C88.2489 479.588 88.4609 479.128 88.8849 478.784C89.3169 478.432 89.9929 478.256 90.9129 478.256H92.5689V478.16C92.5689 477.712 92.4329 477.368 92.1609 477.128C91.8969 476.888 91.5009 476.768 90.9729 476.768C90.6129 476.768 90.2569 476.824 89.9049 476.936C89.5609 477.048 89.2689 477.204 89.0289 477.404L88.4409 476.312C88.7769 476.056 89.1809 475.86 89.6529 475.724C90.1249 475.588 90.6249 475.52 91.1529 475.52ZM90.9489 480.992C91.3249 480.992 91.6569 480.908 91.9449 480.74C92.2409 480.564 92.4489 480.316 92.5689 479.996V479.252H91.0209C90.1569 479.252 89.7249 479.536 89.7249 480.104C89.7249 480.376 89.8329 480.592 90.0489 480.752C90.2649 480.912 90.5649 480.992 90.9489 480.992ZM99.774 482.084C99.254 482.084 98.746 482.016 98.25 481.88C97.754 481.744 97.358 481.572 97.062 481.364L97.638 480.224C97.926 480.416 98.27 480.572 98.67 480.692C99.078 480.804 99.478 480.86 99.87 480.86C100.766 480.86 101.214 480.624 101.214 480.152C101.214 479.928 101.098 479.772 100.866 479.684C100.642 479.596 100.278 479.512 99.774 479.432C99.246 479.352 98.814 479.26 98.478 479.156C98.15 479.052 97.862 478.872 97.614 478.616C97.374 478.352 97.254 477.988 97.254 477.524C97.254 476.916 97.506 476.432 98.01 476.072C98.522 475.704 99.21 475.52 100.074 475.52C100.514 475.52 100.954 475.572 101.394 475.676C101.834 475.772 102.194 475.904 102.474 476.072L101.898 477.212C101.354 476.892 100.742 476.732 100.062 476.732C99.622 476.732 99.286 476.8 99.054 476.936C98.83 477.064 98.718 477.236 98.718 477.452C98.718 477.692 98.838 477.864 99.078 477.968C99.326 478.064 99.706 478.156 100.218 478.244C100.73 478.324 101.15 478.416 101.478 478.52C101.806 478.624 102.086 478.8 102.318 479.048C102.558 479.296 102.678 479.648 102.678 480.104C102.678 480.704 102.418 481.184 101.898 481.544C101.378 481.904 100.67 482.084 99.774 482.084ZM107.75 482.084C107.23 482.084 106.722 482.016 106.226 481.88C105.73 481.744 105.334 481.572 105.038 481.364L105.614 480.224C105.902 480.416 106.246 480.572 106.646 480.692C107.054 480.804 107.454 480.86 107.846 480.86C108.742 480.86 109.19 480.624 109.19 480.152C109.19 479.928 109.074 479.772 108.842 479.684C108.618 479.596 108.254 479.512 107.75 479.432C107.222 479.352 106.79 479.26 106.454 479.156C106.126 479.052 105.838 478.872 105.59 478.616C105.35 478.352 105.23 477.988 105.23 477.524C105.23 476.916 105.482 476.432 105.986 476.072C106.498 475.704 107.186 475.52 108.05 475.52C108.49 475.52 108.93 475.572 109.37 475.676C109.81 475.772 110.17 475.904 110.45 476.072L109.874 477.212C109.33 476.892 108.718 476.732 108.038 476.732C107.598 476.732 107.262 476.8 107.03 476.936C106.806 477.064 106.694 477.236 106.694 477.452C106.694 477.692 106.814 477.864 107.054 477.968C107.302 478.064 107.682 478.156 108.194 478.244C108.706 478.324 109.126 478.416 109.454 478.52C109.782 478.624 110.062 478.8 110.294 479.048C110.534 479.296 110.654 479.648 110.654 480.104C110.654 480.704 110.394 481.184 109.874 481.544C109.354 481.904 108.646 482.084 107.75 482.084ZM123.624 475.592L121.26 482H119.82L118.164 477.584L116.484 482H115.044L112.692 475.592H114.108L115.8 480.32L117.564 475.592H118.824L120.552 480.344L122.292 475.592H123.624ZM129.16 482.084C128.512 482.084 127.928 481.944 127.408 481.664C126.888 481.384 126.48 480.996 126.184 480.5C125.896 479.996 125.752 479.428 125.752 478.796C125.752 478.164 125.896 477.6 126.184 477.104C126.48 476.608 126.888 476.22 127.408 475.94C127.928 475.66 128.512 475.52 129.16 475.52C129.816 475.52 130.404 475.66 130.924 475.94C131.444 476.22 131.848 476.608 132.136 477.104C132.432 477.6 132.58 478.164 132.58 478.796C132.58 479.428 132.432 479.996 132.136 480.5C131.848 480.996 131.444 481.384 130.924 481.664C130.404 481.944 129.816 482.084 129.16 482.084ZM129.16 480.8C129.712 480.8 130.168 480.616 130.528 480.248C130.888 479.88 131.068 479.396 131.068 478.796C131.068 478.196 130.888 477.712 130.528 477.344C130.168 476.976 129.712 476.792 129.16 476.792C128.608 476.792 128.152 476.976 127.792 477.344C127.44 477.712 127.264 478.196 127.264 478.796C127.264 479.396 127.44 479.88 127.792 480.248C128.152 480.616 128.608 480.8 129.16 480.8ZM137.242 476.528C137.674 475.856 138.434 475.52 139.522 475.52V476.948C139.394 476.924 139.278 476.912 139.174 476.912C138.59 476.912 138.134 477.084 137.806 477.428C137.478 477.764 137.314 478.252 137.314 478.892V482H135.814V475.592H137.242V476.528ZM148.812 473.096V482H147.372V481.172C147.124 481.476 146.816 481.704 146.448 481.856C146.088 482.008 145.688 482.084 145.248 482.084C144.632 482.084 144.076 481.948 143.58 481.676C143.092 481.404 142.708 481.02 142.428 480.524C142.148 480.02 142.008 479.444 142.008 478.796C142.008 478.148 142.148 477.576 142.428 477.08C142.708 476.584 143.092 476.2 143.58 475.928C144.076 475.656 144.632 475.52 145.248 475.52C145.672 475.52 146.06 475.592 146.412 475.736C146.764 475.88 147.064 476.096 147.312 476.384V473.096H148.812ZM145.428 480.8C145.788 480.8 146.112 480.72 146.4 480.56C146.688 480.392 146.916 480.156 147.084 479.852C147.252 479.548 147.336 479.196 147.336 478.796C147.336 478.396 147.252 478.044 147.084 477.74C146.916 477.436 146.688 477.204 146.4 477.044C146.112 476.876 145.788 476.792 145.428 476.792C145.068 476.792 144.744 476.876 144.456 477.044C144.168 477.204 143.94 477.436 143.772 477.74C143.604 478.044 143.52 478.396 143.52 478.796C143.52 479.196 143.604 479.548 143.772 479.852C143.94 480.156 144.168 480.392 144.456 480.56C144.744 480.72 145.068 480.8 145.428 480.8Z" fill="#533EDE"/>
<line x1="0.5" y1="-0.5" x2="249.5" y2="-0.5" transform="matrix(1 0 0 -1 64.5403 455)" stroke="#DADADA" stroke-linecap="square"/>
<path d="M81.8964 225.3C85.1124 225.3 87.6324 226.068 89.4564 227.604C91.2804 229.14 92.1924 231.252 92.1924 233.94C92.1924 236.628 91.2804 238.74 89.4564 240.276C87.6324 241.788 85.1124 242.544 81.8964 242.544H75.1284V250.5H72.4644V225.3H81.8964ZM81.8244 240.204C84.3204 240.204 86.2284 239.664 87.5484 238.584C88.8684 237.48 89.5284 235.932 89.5284 233.94C89.5284 231.9 88.8684 230.34 87.5484 229.26C86.2284 228.156 84.3204 227.604 81.8244 227.604H75.1284V240.204H81.8244ZM120.561 250.5L114.801 242.4C114.153 242.472 113.481 242.508 112.785 242.508H106.017V250.5H103.353V225.3H112.785C116.001 225.3 118.521 226.068 120.345 227.604C122.169 229.14 123.081 231.252 123.081 233.94C123.081 235.908 122.577 237.576 121.569 238.944C120.585 240.288 119.169 241.26 117.321 241.86L123.477 250.5H120.561ZM112.713 240.24C115.209 240.24 117.117 239.688 118.437 238.584C119.757 237.48 120.417 235.932 120.417 233.94C120.417 231.9 119.757 230.34 118.437 229.26C117.117 228.156 115.209 227.604 112.713 227.604H106.017V240.24H112.713ZM145.784 250.716C143.288 250.716 141.02 250.164 138.98 249.06C136.964 247.932 135.38 246.396 134.228 244.452C133.1 242.508 132.536 240.324 132.536 237.9C132.536 235.476 133.1 233.292 134.228 231.348C135.38 229.404 136.964 227.88 138.98 226.776C141.02 225.648 143.288 225.084 145.784 225.084C148.28 225.084 150.524 225.636 152.516 226.74C154.532 227.844 156.116 229.38 157.268 231.348C158.42 233.292 158.996 235.476 158.996 237.9C158.996 240.324 158.42 242.52 157.268 244.488C156.116 246.432 154.532 247.956 152.516 249.06C150.524 250.164 148.28 250.716 145.784 250.716ZM145.784 248.34C147.776 248.34 149.576 247.896 151.184 247.008C152.792 246.096 154.052 244.848 154.964 243.264C155.876 241.656 156.332 239.868 156.332 237.9C156.332 235.932 155.876 234.156 154.964 232.572C154.052 230.964 152.792 229.716 151.184 228.828C149.576 227.916 147.776 227.46 145.784 227.46C143.792 227.46 141.98 227.916 140.348 228.828C138.74 229.716 137.468 230.964 136.532 232.572C135.62 234.156 135.164 235.932 135.164 237.9C135.164 239.868 135.62 241.656 136.532 243.264C137.468 244.848 138.74 246.096 140.348 247.008C141.98 247.896 143.792 248.34 145.784 248.34ZM174.912 227.604H166.056V225.3H186.432V227.604H177.576V250.5H174.912V227.604ZM213.908 248.196V250.5H196.088V225.3H213.368V227.604H198.752V236.568H211.784V238.836H198.752V248.196H213.908ZM236.373 250.716C233.877 250.716 231.621 250.164 229.605 249.06C227.613 247.956 226.041 246.432 224.889 244.488C223.761 242.52 223.197 240.324 223.197 237.9C223.197 235.476 223.761 233.292 224.889 231.348C226.041 229.38 227.625 227.844 229.641 226.74C231.657 225.636 233.913 225.084 236.409 225.084C238.281 225.084 240.009 225.396 241.593 226.02C243.177 226.644 244.521 227.556 245.625 228.756L243.933 230.448C241.965 228.456 239.481 227.46 236.481 227.46C234.489 227.46 232.677 227.916 231.045 228.828C229.413 229.74 228.129 230.988 227.193 232.572C226.281 234.156 225.825 235.932 225.825 237.9C225.825 239.868 226.281 241.644 227.193 243.228C228.129 244.812 229.413 246.06 231.045 246.972C232.677 247.884 234.489 248.34 236.481 248.34C239.505 248.34 241.989 247.332 243.933 245.316L245.625 247.008C244.521 248.208 243.165 249.132 241.557 249.78C239.973 250.404 238.245 250.716 236.373 250.716ZM261.284 227.604H252.428V225.3H272.804V227.604H263.948V250.5H261.284V227.604ZM81.1044 285.788V294.5H78.4764V285.788L68.3964 269.3H71.2404L79.8804 283.448L88.5204 269.3H91.1844L81.1044 285.788ZM110.642 294.716C108.146 294.716 105.878 294.164 103.838 293.06C101.822 291.932 100.238 290.396 99.0861 288.452C97.9581 286.508 97.3941 284.324 97.3941 281.9C97.3941 279.476 97.9581 277.292 99.0861 275.348C100.238 273.404 101.822 271.88 103.838 270.776C105.878 269.648 108.146 269.084 110.642 269.084C113.138 269.084 115.382 269.636 117.374 270.74C119.39 271.844 120.974 273.38 122.126 275.348C123.278 277.292 123.854 279.476 123.854 281.9C123.854 284.324 123.278 286.52 122.126 288.488C120.974 290.432 119.39 291.956 117.374 293.06C115.382 294.164 113.138 294.716 110.642 294.716ZM110.642 292.34C112.634 292.34 114.434 291.896 116.042 291.008C117.65 290.096 118.91 288.848 119.822 287.264C120.734 285.656 121.19 283.868 121.19 281.9C121.19 279.932 120.734 278.156 119.822 276.572C118.91 274.964 117.65 273.716 116.042 272.828C114.434 271.916 112.634 271.46 110.642 271.46C108.65 271.46 106.838 271.916 105.206 272.828C103.598 273.716 102.326 274.964 101.39 276.572C100.478 278.156 100.022 279.932 100.022 281.9C100.022 283.868 100.478 285.656 101.39 287.264C102.326 288.848 103.598 290.096 105.206 291.008C106.838 291.896 108.65 292.34 110.642 292.34ZM145.377 294.716C142.113 294.716 139.569 293.78 137.745 291.908C135.921 290.036 135.009 287.312 135.009 283.736V269.3H137.673V283.628C137.673 286.556 138.333 288.74 139.653 290.18C140.973 291.62 142.881 292.34 145.377 292.34C147.897 292.34 149.817 291.62 151.137 290.18C152.457 288.74 153.117 286.556 153.117 283.628V269.3H155.709V283.736C155.709 287.312 154.797 290.036 152.973 291.908C151.173 293.78 148.641 294.716 145.377 294.716ZM186.345 294.5L180.585 286.4C179.937 286.472 179.265 286.508 178.569 286.508H171.801V294.5H169.137V269.3H178.569C181.785 269.3 184.305 270.068 186.129 271.604C187.953 273.14 188.865 275.252 188.865 277.94C188.865 279.908 188.361 281.576 187.353 282.944C186.369 284.288 184.953 285.26 183.105 285.86L189.261 294.5H186.345ZM178.497 284.24C180.993 284.24 182.901 283.688 184.221 282.584C185.541 281.48 186.201 279.932 186.201 277.94C186.201 275.9 185.541 274.34 184.221 273.26C182.901 272.156 180.993 271.604 178.497 271.604H171.801V284.24H178.497ZM215.375 269.3H225.635C228.299 269.3 230.651 269.84 232.691 270.92C234.731 271.976 236.315 273.464 237.443 275.384C238.571 277.28 239.135 279.452 239.135 281.9C239.135 284.348 238.571 286.532 237.443 288.452C236.315 290.348 234.731 291.836 232.691 292.916C230.651 293.972 228.299 294.5 225.635 294.5H215.375V269.3ZM225.491 292.196C227.699 292.196 229.631 291.764 231.287 290.9C232.943 290.012 234.227 288.8 235.139 287.264C236.051 285.704 236.507 283.916 236.507 281.9C236.507 279.884 236.051 278.108 235.139 276.572C234.227 275.012 232.943 273.8 231.287 272.936C229.631 272.048 227.699 271.604 225.491 271.604H218.039V292.196H225.491ZM265.969 287.768H251.929L248.905 294.5H246.133L257.653 269.3H260.281L271.801 294.5H268.993L265.969 287.768ZM264.997 285.608L258.949 272.072L252.901 285.608H264.997ZM285 271.604H276.144V269.3H296.52V271.604H287.664V294.5H285V271.604ZM320.714 287.768H306.674L303.65 294.5H300.878L312.398 269.3H315.026L326.546 294.5H323.738L320.714 287.768ZM319.742 285.608L313.694 272.072L307.646 285.608H319.742ZM107.06 313.3L98.5644 338.5H95.7564L88.3764 317.008L80.9604 338.5H78.1884L69.6924 313.3H72.4284L79.7004 334.972L87.2244 313.3H89.7084L97.1244 335.08L104.504 313.3H107.06ZM117.345 313.3H120.009V338.5H117.345V313.3ZM138.504 315.604H129.648V313.3H150.024V315.604H141.168V338.5H138.504V315.604ZM180.74 313.3V338.5H178.112V326.872H162.344V338.5H159.68V313.3H162.344V324.532H178.112V313.3H180.74ZM219.339 338.716C216.075 338.716 213.531 337.78 211.707 335.908C209.883 334.036 208.971 331.312 208.971 327.736V313.3H211.635V327.628C211.635 330.556 212.295 332.74 213.615 334.18C214.935 335.62 216.843 336.34 219.339 336.34C221.859 336.34 223.779 335.62 225.099 334.18C226.419 332.74 227.079 330.556 227.079 327.628V313.3H229.671V327.736C229.671 331.312 228.759 334.036 226.935 335.908C225.135 337.78 222.603 338.716 219.339 338.716ZM250.047 338.716C248.175 338.716 246.375 338.416 244.647 337.816C242.943 337.216 241.623 336.424 240.687 335.44L241.731 333.388C242.643 334.3 243.855 335.044 245.367 335.62C246.879 336.172 248.439 336.448 250.047 336.448C252.303 336.448 253.995 336.04 255.123 335.224C256.251 334.384 256.815 333.304 256.815 331.984C256.815 330.976 256.503 330.172 255.879 329.572C255.279 328.972 254.535 328.516 253.647 328.204C252.759 327.868 251.523 327.508 249.939 327.124C248.043 326.644 246.531 326.188 245.403 325.756C244.275 325.3 243.303 324.616 242.487 323.704C241.695 322.792 241.299 321.556 241.299 319.996C241.299 318.724 241.635 317.572 242.307 316.54C242.979 315.484 244.011 314.644 245.403 314.02C246.795 313.396 248.523 313.084 250.587 313.084C252.027 313.084 253.431 313.288 254.799 313.696C256.191 314.08 257.391 314.62 258.399 315.316L257.499 317.44C256.443 316.744 255.315 316.228 254.115 315.892C252.915 315.532 251.739 315.352 250.587 315.352C248.379 315.352 246.711 315.784 245.583 316.648C244.479 317.488 243.927 318.58 243.927 319.924C243.927 320.932 244.227 321.748 244.827 322.372C245.451 322.972 246.219 323.44 247.131 323.776C248.067 324.088 249.315 324.436 250.875 324.82C252.723 325.276 254.211 325.732 255.339 326.188C256.491 326.62 257.463 327.292 258.255 328.204C259.047 329.092 259.443 330.304 259.443 331.84C259.443 333.112 259.095 334.276 258.399 335.332C257.727 336.364 256.683 337.192 255.267 337.816C253.851 338.416 252.111 338.716 250.047 338.716ZM271.062 338.68C270.534 338.68 270.078 338.488 269.694 338.104C269.334 337.72 269.154 337.252 269.154 336.7C269.154 336.148 269.334 335.692 269.694 335.332C270.078 334.948 270.534 334.756 271.062 334.756C271.59 334.756 272.046 334.948 272.43 335.332C272.814 335.692 273.006 336.148 273.006 336.7C273.006 337.252 272.814 337.72 272.43 338.104C272.046 338.488 271.59 338.68 271.062 338.68Z" fill="white"/>
<path d="M75.1044 367.916V369.5H68.7564V368.24L71.9964 365.18C72.3404 364.852 72.5724 364.572 72.6924 364.34C72.8124 364.1 72.8724 363.864 72.8724 363.632C72.8724 363.296 72.7564 363.04 72.5244 362.864C72.3004 362.68 71.9684 362.588 71.5284 362.588C71.1604 362.588 70.8284 362.66 70.5324 362.804C70.2364 362.94 69.9884 363.148 69.7884 363.428L68.3724 362.516C68.7004 362.028 69.1524 361.648 69.7284 361.376C70.3044 361.096 70.9644 360.956 71.7084 360.956C72.3324 360.956 72.8764 361.06 73.3404 361.268C73.8124 361.468 74.1764 361.756 74.4324 362.132C74.6964 362.5 74.8284 362.936 74.8284 363.44C74.8284 363.896 74.7324 364.324 74.5404 364.724C74.3484 365.124 73.9764 365.58 73.4244 366.092L71.4924 367.916H75.1044ZM81.6305 364.52C82.3665 364.64 82.9305 364.916 83.3225 365.348C83.7145 365.772 83.9105 366.3 83.9105 366.932C83.9105 367.42 83.7825 367.872 83.5265 368.288C83.2705 368.696 82.8785 369.024 82.3505 369.272C81.8305 369.52 81.1905 369.644 80.4305 369.644C79.8385 369.644 79.2545 369.568 78.6785 369.416C78.1105 369.256 77.6265 369.032 77.2265 368.744L77.9825 367.256C78.3025 367.496 78.6705 367.684 79.0865 367.82C79.5105 367.948 79.9425 368.012 80.3825 368.012C80.8705 368.012 81.2545 367.92 81.5345 367.736C81.8145 367.544 81.9545 367.276 81.9545 366.932C81.9545 366.244 81.4305 365.9 80.3825 365.9H79.4945V364.616L81.2225 362.66H77.6465V361.1H83.5265V362.36L81.6305 364.52ZM90.208 369.644C89.512 369.644 88.892 369.472 88.348 369.128C87.804 368.784 87.376 368.288 87.064 367.64C86.76 366.984 86.608 366.204 86.608 365.3C86.608 364.396 86.76 363.62 87.064 362.972C87.376 362.316 87.804 361.816 88.348 361.472C88.892 361.128 89.512 360.956 90.208 360.956C90.904 360.956 91.524 361.128 92.068 361.472C92.612 361.816 93.036 362.316 93.34 362.972C93.652 363.62 93.808 364.396 93.808 365.3C93.808 366.204 93.652 366.984 93.34 367.64C93.036 368.288 92.612 368.784 92.068 369.128C91.524 369.472 90.904 369.644 90.208 369.644ZM90.208 368C90.72 368 91.12 367.78 91.408 367.34C91.704 366.9 91.852 366.22 91.852 365.3C91.852 364.38 91.704 363.7 91.408 363.26C91.12 362.82 90.72 362.6 90.208 362.6C89.704 362.6 89.304 362.82 89.008 363.26C88.72 363.7 88.576 364.38 88.576 365.3C88.576 366.22 88.72 366.9 89.008 367.34C89.304 367.78 89.704 368 90.208 368ZM97.5162 367.268C97.8522 367.268 98.1282 367.376 98.3442 367.592C98.5602 367.8 98.6682 368.076 98.6682 368.42C98.6682 368.58 98.6482 368.74 98.6082 368.9C98.5682 369.06 98.4802 369.3 98.3442 369.62L97.6602 371.348H96.4722L97.0002 369.44C96.8002 369.36 96.6402 369.232 96.5202 369.056C96.4082 368.872 96.3522 368.66 96.3522 368.42C96.3522 368.076 96.4602 367.8 96.6762 367.592C96.9002 367.376 97.1802 367.268 97.5162 367.268ZM104.393 361.1V369.5H102.449V362.66H100.769V361.1H104.393ZM111.253 369.644C110.557 369.644 109.937 369.472 109.393 369.128C108.849 368.784 108.421 368.288 108.109 367.64C107.805 366.984 107.653 366.204 107.653 365.3C107.653 364.396 107.805 363.62 108.109 362.972C108.421 362.316 108.849 361.816 109.393 361.472C109.937 361.128 110.557 360.956 111.253 360.956C111.949 360.956 112.569 361.128 113.113 361.472C113.657 361.816 114.081 362.316 114.385 362.972C114.697 363.62 114.853 364.396 114.853 365.3C114.853 366.204 114.697 366.984 114.385 367.64C114.081 368.288 113.657 368.784 113.113 369.128C112.569 369.472 111.949 369.644 111.253 369.644ZM111.253 368C111.765 368 112.165 367.78 112.453 367.34C112.749 366.9 112.897 366.22 112.897 365.3C112.897 364.38 112.749 363.7 112.453 363.26C112.165 362.82 111.765 362.6 111.253 362.6C110.749 362.6 110.349 362.82 110.053 363.26C109.765 363.7 109.621 364.38 109.621 365.3C109.621 366.22 109.765 366.9 110.053 367.34C110.349 367.78 110.749 368 111.253 368ZM121.197 369.644C120.501 369.644 119.881 369.472 119.337 369.128C118.793 368.784 118.365 368.288 118.053 367.64C117.749 366.984 117.597 366.204 117.597 365.3C117.597 364.396 117.749 363.62 118.053 362.972C118.365 362.316 118.793 361.816 119.337 361.472C119.881 361.128 120.501 360.956 121.197 360.956C121.893 360.956 122.513 361.128 123.057 361.472C123.601 361.816 124.025 362.316 124.329 362.972C124.641 363.62 124.797 364.396 124.797 365.3C124.797 366.204 124.641 366.984 124.329 367.64C124.025 368.288 123.601 368.784 123.057 369.128C122.513 369.472 121.893 369.644 121.197 369.644ZM121.197 368C121.709 368 122.109 367.78 122.397 367.34C122.693 366.9 122.841 366.22 122.841 365.3C122.841 364.38 122.693 363.7 122.397 363.26C122.109 362.82 121.709 362.6 121.197 362.6C120.693 362.6 120.293 362.82 119.997 363.26C119.709 363.7 119.565 364.38 119.565 365.3C119.565 366.22 119.709 366.9 119.997 367.34C120.293 367.78 120.693 368 121.197 368ZM128.493 369.596C128.165 369.596 127.889 369.484 127.665 369.26C127.441 369.036 127.329 368.756 127.329 368.42C127.329 368.076 127.441 367.8 127.665 367.592C127.889 367.376 128.165 367.268 128.493 367.268C128.821 367.268 129.097 367.376 129.321 367.592C129.545 367.8 129.657 368.076 129.657 368.42C129.657 368.756 129.545 369.036 129.321 369.26C129.097 369.484 128.821 369.596 128.493 369.596ZM135.778 369.644C135.082 369.644 134.462 369.472 133.918 369.128C133.374 368.784 132.946 368.288 132.634 367.64C132.33 366.984 132.178 366.204 132.178 365.3C132.178 364.396 132.33 363.62 132.634 362.972C132.946 362.316 133.374 361.816 133.918 361.472C134.462 361.128 135.082 360.956 135.778 360.956C136.474 360.956 137.094 361.128 137.638 361.472C138.182 361.816 138.606 362.316 138.91 362.972C139.222 363.62 139.378 364.396 139.378 365.3C139.378 366.204 139.222 366.984 138.91 367.64C138.606 368.288 138.182 368.784 137.638 369.128C137.094 369.472 136.474 369.644 135.778 369.644ZM135.778 368C136.29 368 136.69 367.78 136.978 367.34C137.274 366.9 137.422 366.22 137.422 365.3C137.422 364.38 137.274 363.7 136.978 363.26C136.69 362.82 136.29 362.6 135.778 362.6C135.274 362.6 134.874 362.82 134.578 363.26C134.29 363.7 134.146 364.38 134.146 365.3C134.146 366.22 134.29 366.9 134.578 367.34C134.874 367.78 135.274 368 135.778 368ZM149.814 367.736H148.446V369.5H146.55V367.736H142.026V366.428L145.986 361.1H148.026L144.354 366.152H146.61V364.58H148.446V366.152H149.814V367.736ZM161.18 361.1C162.252 361.1 163.092 361.356 163.7 361.868C164.308 362.38 164.612 363.084 164.612 363.98C164.612 364.876 164.308 365.58 163.7 366.092C163.092 366.596 162.252 366.848 161.18 366.848H158.924V369.5H158.036V361.1H161.18ZM161.156 366.068C161.988 366.068 162.624 365.888 163.064 365.528C163.504 365.16 163.724 364.644 163.724 363.98C163.724 363.3 163.504 362.78 163.064 362.42C162.624 362.052 161.988 361.868 161.156 361.868H158.924V366.068H161.156ZM173.613 366.608H168.333C168.381 367.264 168.633 367.796 169.089 368.204C169.545 368.604 170.121 368.804 170.817 368.804C171.209 368.804 171.569 368.736 171.897 368.6C172.225 368.456 172.509 368.248 172.749 367.976L173.229 368.528C172.949 368.864 172.597 369.12 172.173 369.296C171.757 369.472 171.297 369.56 170.793 369.56C170.145 369.56 169.569 369.424 169.065 369.152C168.569 368.872 168.181 368.488 167.901 368C167.621 367.512 167.481 366.96 167.481 366.344C167.481 365.728 167.613 365.176 167.877 364.688C168.149 364.2 168.517 363.82 168.981 363.548C169.453 363.276 169.981 363.14 170.565 363.14C171.149 363.14 171.673 363.276 172.137 363.548C172.601 363.82 172.965 364.2 173.229 364.688C173.493 365.168 173.625 365.72 173.625 366.344L173.613 366.608ZM170.565 363.872C169.957 363.872 169.445 364.068 169.029 364.46C168.621 364.844 168.389 365.348 168.333 365.972H172.809C172.753 365.348 172.517 364.844 172.101 364.46C171.693 364.068 171.181 363.872 170.565 363.872ZM179.739 369.56C179.131 369.56 178.583 369.424 178.095 369.152C177.607 368.872 177.223 368.488 176.943 368C176.663 367.512 176.523 366.96 176.523 366.344C176.523 365.728 176.663 365.176 176.943 364.688C177.223 364.2 177.607 363.82 178.095 363.548C178.583 363.276 179.131 363.14 179.739 363.14C180.347 363.14 180.895 363.276 181.383 363.548C181.871 363.82 182.251 364.2 182.523 364.688C182.803 365.176 182.943 365.728 182.943 366.344C182.943 366.96 182.803 367.512 182.523 368C182.251 368.488 181.871 368.872 181.383 369.152C180.895 369.424 180.347 369.56 179.739 369.56ZM179.739 368.804C180.187 368.804 180.587 368.704 180.939 368.504C181.299 368.296 181.579 368.004 181.779 367.628C181.979 367.252 182.079 366.824 182.079 366.344C182.079 365.864 181.979 365.436 181.779 365.06C181.579 364.684 181.299 364.396 180.939 364.196C180.587 363.988 180.187 363.884 179.739 363.884C179.291 363.884 178.887 363.988 178.527 364.196C178.175 364.396 177.895 364.684 177.687 365.06C177.487 365.436 177.387 365.864 177.387 366.344C177.387 366.824 177.487 367.252 177.687 367.628C177.895 368.004 178.175 368.296 178.527 368.504C178.887 368.704 179.291 368.804 179.739 368.804ZM189.735 363.14C190.327 363.14 190.863 363.276 191.343 363.548C191.823 363.812 192.199 364.188 192.471 364.676C192.743 365.164 192.879 365.72 192.879 366.344C192.879 366.976 192.743 367.536 192.471 368.024C192.199 368.512 191.823 368.892 191.343 369.164C190.871 369.428 190.335 369.56 189.735 369.56C189.223 369.56 188.759 369.456 188.343 369.248C187.935 369.032 187.599 368.72 187.335 368.312V371.828H186.483V363.188H187.299V364.436C187.555 364.02 187.891 363.7 188.307 363.476C188.731 363.252 189.207 363.14 189.735 363.14ZM189.675 368.804C190.115 368.804 190.515 368.704 190.875 368.504C191.235 368.296 191.515 368.004 191.715 367.628C191.923 367.252 192.027 366.824 192.027 366.344C192.027 365.864 191.923 365.44 191.715 365.072C191.515 364.696 191.235 364.404 190.875 364.196C190.515 363.988 190.115 363.884 189.675 363.884C189.227 363.884 188.823 363.988 188.463 364.196C188.111 364.404 187.831 364.696 187.623 365.072C187.423 365.44 187.323 365.864 187.323 366.344C187.323 366.824 187.423 367.252 187.623 367.628C187.831 368.004 188.111 368.296 188.463 368.504C188.823 368.704 189.227 368.804 189.675 368.804ZM196.416 360.596H197.268V369.5H196.416V360.596ZM206.934 366.608H201.654C201.702 367.264 201.954 367.796 202.41 368.204C202.866 368.604 203.442 368.804 204.138 368.804C204.53 368.804 204.89 368.736 205.218 368.6C205.546 368.456 205.83 368.248 206.07 367.976L206.55 368.528C206.27 368.864 205.918 369.12 205.494 369.296C205.078 369.472 204.618 369.56 204.114 369.56C203.466 369.56 202.89 369.424 202.386 369.152C201.89 368.872 201.502 368.488 201.222 368C200.942 367.512 200.802 366.96 200.802 366.344C200.802 365.728 200.934 365.176 201.198 364.688C201.47 364.2 201.838 363.82 202.302 363.548C202.774 363.276 203.302 363.14 203.886 363.14C204.47 363.14 204.994 363.276 205.458 363.548C205.922 363.82 206.286 364.2 206.55 364.688C206.814 365.168 206.946 365.72 206.946 366.344L206.934 366.608ZM203.886 363.872C203.278 363.872 202.766 364.068 202.35 364.46C201.942 364.844 201.71 365.348 201.654 365.972H206.13C206.074 365.348 205.838 364.844 205.422 364.46C205.014 364.068 204.502 363.872 203.886 363.872ZM218.745 369.116C218.585 369.26 218.385 369.372 218.145 369.452C217.913 369.524 217.669 369.56 217.413 369.56C216.821 369.56 216.365 369.4 216.045 369.08C215.725 368.76 215.565 368.308 215.565 367.724V363.908H214.437V363.188H215.565V361.808H216.417V363.188H218.337V363.908H216.417V367.676C216.417 368.052 216.509 368.34 216.693 368.54C216.885 368.732 217.157 368.828 217.509 368.828C217.685 368.828 217.853 368.8 218.013 368.744C218.181 368.688 218.325 368.608 218.445 368.504L218.745 369.116ZM222.912 364.424C223.112 364 223.408 363.68 223.8 363.464C224.2 363.248 224.692 363.14 225.276 363.14V363.968L225.072 363.956C224.408 363.956 223.888 364.16 223.512 364.568C223.136 364.976 222.948 365.548 222.948 366.284V369.5H222.096V363.188H222.912V364.424ZM234.4 363.188V369.5H233.584V368.348C233.36 368.732 233.052 369.032 232.66 369.248C232.268 369.456 231.82 369.56 231.316 369.56C230.492 369.56 229.84 369.332 229.36 368.876C228.888 368.412 228.652 367.736 228.652 366.848V363.188H229.504V366.764C229.504 367.428 229.668 367.932 229.996 368.276C230.324 368.62 230.792 368.792 231.4 368.792C232.064 368.792 232.588 368.592 232.972 368.192C233.356 367.784 233.548 367.22 233.548 366.5V363.188H234.4ZM240.279 369.56C239.767 369.56 239.275 369.488 238.803 369.344C238.339 369.192 237.975 369.004 237.711 368.78L238.095 368.108C238.359 368.316 238.691 368.488 239.091 368.624C239.491 368.752 239.907 368.816 240.339 368.816C240.915 368.816 241.339 368.728 241.611 368.552C241.891 368.368 242.031 368.112 242.031 367.784C242.031 367.552 241.955 367.372 241.803 367.244C241.651 367.108 241.459 367.008 241.227 366.944C240.995 366.872 240.687 366.804 240.303 366.74C239.791 366.644 239.379 366.548 239.067 366.452C238.755 366.348 238.487 366.176 238.263 365.936C238.047 365.696 237.939 365.364 237.939 364.94C237.939 364.412 238.159 363.98 238.599 363.644C239.039 363.308 239.651 363.14 240.435 363.14C240.843 363.14 241.251 363.196 241.659 363.308C242.067 363.412 242.403 363.552 242.667 363.728L242.295 364.412C241.775 364.052 241.155 363.872 240.435 363.872C239.891 363.872 239.479 363.968 239.199 364.16C238.927 364.352 238.791 364.604 238.791 364.916C238.791 365.156 238.867 365.348 239.019 365.492C239.179 365.636 239.375 365.744 239.607 365.816C239.839 365.88 240.159 365.948 240.567 366.02C241.071 366.116 241.475 366.212 241.779 366.308C242.083 366.404 242.343 366.568 242.559 366.8C242.775 367.032 242.883 367.352 242.883 367.76C242.883 368.312 242.651 368.752 242.187 369.08C241.731 369.4 241.095 369.56 240.279 369.56ZM249.582 369.116C249.422 369.26 249.222 369.372 248.982 369.452C248.75 369.524 248.506 369.56 248.25 369.56C247.658 369.56 247.202 369.4 246.882 369.08C246.562 368.76 246.402 368.308 246.402 367.724V363.908H245.274V363.188H246.402V361.808H247.254V363.188H249.174V363.908H247.254V367.676C247.254 368.052 247.346 368.34 247.53 368.54C247.722 368.732 247.994 368.828 248.346 368.828C248.522 368.828 248.69 368.8 248.85 368.744C249.018 368.688 249.162 368.608 249.282 368.504L249.582 369.116ZM263.561 363.188V369.5H262.745V368.348C262.521 368.732 262.213 369.032 261.821 369.248C261.429 369.456 260.981 369.56 260.477 369.56C259.653 369.56 259.001 369.332 258.521 368.876C258.049 368.412 257.813 367.736 257.813 366.848V363.188H258.665V366.764C258.665 367.428 258.829 367.932 259.157 368.276C259.485 368.62 259.953 368.792 260.561 368.792C261.225 368.792 261.749 368.592 262.133 368.192C262.517 367.784 262.709 367.22 262.709 366.5V363.188H263.561ZM269.44 369.56C268.928 369.56 268.436 369.488 267.964 369.344C267.5 369.192 267.136 369.004 266.872 368.78L267.256 368.108C267.52 368.316 267.852 368.488 268.252 368.624C268.652 368.752 269.068 368.816 269.5 368.816C270.076 368.816 270.5 368.728 270.772 368.552C271.052 368.368 271.192 368.112 271.192 367.784C271.192 367.552 271.116 367.372 270.964 367.244C270.812 367.108 270.62 367.008 270.388 366.944C270.156 366.872 269.848 366.804 269.464 366.74C268.952 366.644 268.54 366.548 268.228 366.452C267.916 366.348 267.648 366.176 267.424 365.936C267.208 365.696 267.1 365.364 267.1 364.94C267.1 364.412 267.32 363.98 267.76 363.644C268.2 363.308 268.812 363.14 269.596 363.14C270.004 363.14 270.412 363.196 270.82 363.308C271.228 363.412 271.564 363.552 271.828 363.728L271.456 364.412C270.936 364.052 270.316 363.872 269.596 363.872C269.052 363.872 268.64 363.968 268.36 364.16C268.088 364.352 267.952 364.604 267.952 364.916C267.952 365.156 268.028 365.348 268.18 365.492C268.34 365.636 268.536 365.744 268.768 365.816C269 365.88 269.32 365.948 269.728 366.02C270.232 366.116 270.636 366.212 270.94 366.308C271.244 366.404 271.504 366.568 271.72 366.8C271.936 367.032 272.044 367.352 272.044 367.76C272.044 368.312 271.812 368.752 271.348 369.08C270.892 369.4 270.256 369.56 269.44 369.56ZM275.287 361.1H276.295L276.115 366.98H275.455L275.287 361.1ZM275.791 369.56C275.615 369.56 275.463 369.5 275.335 369.38C275.215 369.252 275.155 369.104 275.155 368.936C275.155 368.76 275.215 368.616 275.335 368.504C275.455 368.384 275.607 368.324 275.791 368.324C275.967 368.324 276.115 368.384 276.235 368.504C276.355 368.616 276.415 368.76 276.415 368.936C276.415 369.104 276.355 369.252 276.235 369.38C276.115 369.5 275.967 369.56 275.791 369.56Z" fill="white"/>
<path d="M128.473 88.1975V161.298H77.3896V106.711L95.9064 88.1975H128.473Z" fill="white"/>
<path d="M95.9064 88.1975V106.711H77.3896L95.9064 88.1975Z" fill="#2A199D"/>
<path d="M102.931 130.026C106.478 130.026 109.351 127.152 109.351 123.607C109.351 120.061 106.478 117.187 102.931 117.187C99.3844 117.187 96.5119 120.061 96.5119 123.607C96.5119 127.152 99.3844 130.026 102.931 130.026Z" fill="#2A199D"/>
<path d="M111.415 142.581H94.4483L100.881 123.097H104.982L111.415 142.581Z" fill="#2A199D"/>
<path d="M78.7756 172.851H79.7696V183.239H78.7756V172.851ZM85.5454 183.309C84.8361 183.309 84.1967 183.151 83.6274 182.833C83.0581 182.507 82.6101 182.059 82.2834 181.489C81.9567 180.92 81.7934 180.276 81.7934 179.557C81.7934 178.839 81.9567 178.195 82.2834 177.625C82.6101 177.056 83.0581 176.613 83.6274 176.295C84.1967 175.978 84.8361 175.819 85.5454 175.819C86.2547 175.819 86.8941 175.978 87.4634 176.295C88.0327 176.613 88.4761 177.056 88.7934 177.625C89.1201 178.195 89.2834 178.839 89.2834 179.557C89.2834 180.276 89.1201 180.92 88.7934 181.489C88.4761 182.059 88.0327 182.507 87.4634 182.833C86.8941 183.151 86.2547 183.309 85.5454 183.309ZM85.5454 182.427C86.0681 182.427 86.5347 182.311 86.9454 182.077C87.3654 181.835 87.6921 181.494 87.9254 181.055C88.1587 180.617 88.2754 180.117 88.2754 179.557C88.2754 178.997 88.1587 178.498 87.9254 178.059C87.6921 177.621 87.3654 177.285 86.9454 177.051C86.5347 176.809 86.0681 176.687 85.5454 176.687C85.0227 176.687 84.5514 176.809 84.1314 177.051C83.7207 177.285 83.3941 177.621 83.1514 178.059C82.9181 178.498 82.8014 178.997 82.8014 179.557C82.8014 180.117 82.9181 180.617 83.1514 181.055C83.3941 181.494 83.7207 181.835 84.1314 182.077C84.5514 182.311 85.0227 182.427 85.5454 182.427ZM94.3648 183.309C93.6368 183.309 92.9834 183.151 92.4048 182.833C91.8354 182.516 91.3874 182.073 91.0608 181.503C90.7341 180.925 90.5708 180.276 90.5708 179.557C90.5708 178.839 90.7341 178.195 91.0608 177.625C91.3874 177.056 91.8354 176.613 92.4048 176.295C92.9834 175.978 93.6368 175.819 94.3648 175.819C94.9994 175.819 95.5641 175.945 96.0588 176.197C96.5628 176.44 96.9594 176.799 97.2488 177.275L96.5068 177.779C96.2641 177.415 95.9561 177.145 95.5828 176.967C95.2094 176.781 94.8034 176.687 94.3648 176.687C93.8328 176.687 93.3521 176.809 92.9228 177.051C92.5028 177.285 92.1714 177.621 91.9288 178.059C91.6954 178.498 91.5788 178.997 91.5788 179.557C91.5788 180.127 91.6954 180.631 91.9288 181.069C92.1714 181.499 92.5028 181.835 92.9228 182.077C93.3521 182.311 93.8328 182.427 94.3648 182.427C94.8034 182.427 95.2094 182.339 95.5828 182.161C95.9561 181.984 96.2641 181.713 96.5068 181.349L97.2488 181.853C96.9594 182.329 96.5628 182.693 96.0588 182.945C95.5548 183.188 94.9901 183.309 94.3648 183.309ZM101.822 179.543L100.086 181.139V183.239H99.0921V172.851H100.086V179.893L104.482 175.875H105.714L102.564 178.885L106.008 183.239H104.79L101.822 179.543ZM107.735 183.309C107.53 183.309 107.352 183.235 107.203 183.085C107.063 182.936 106.993 182.754 106.993 182.539C106.993 182.325 107.063 182.147 107.203 182.007C107.352 181.858 107.53 181.783 107.735 181.783C107.94 181.783 108.118 181.858 108.267 182.007C108.416 182.147 108.491 182.325 108.491 182.539C108.491 182.754 108.416 182.936 108.267 183.085C108.118 183.235 107.94 183.309 107.735 183.309ZM117.119 172.851V183.239H116.167V181.783C115.868 182.278 115.471 182.656 114.977 182.917C114.491 183.179 113.941 183.309 113.325 183.309C112.634 183.309 112.009 183.151 111.449 182.833C110.889 182.516 110.45 182.073 110.133 181.503C109.815 180.934 109.657 180.285 109.657 179.557C109.657 178.829 109.815 178.181 110.133 177.611C110.45 177.042 110.889 176.603 111.449 176.295C112.009 175.978 112.634 175.819 113.325 175.819C113.922 175.819 114.459 175.945 114.935 176.197C115.42 176.44 115.817 176.799 116.125 177.275V172.851H117.119ZM113.409 182.427C113.922 182.427 114.384 182.311 114.795 182.077C115.215 181.835 115.541 181.494 115.775 181.055C116.017 180.617 116.139 180.117 116.139 179.557C116.139 178.997 116.017 178.498 115.775 178.059C115.541 177.621 115.215 177.285 114.795 177.051C114.384 176.809 113.922 176.687 113.409 176.687C112.886 176.687 112.415 176.809 111.995 177.051C111.584 177.285 111.257 177.621 111.015 178.059C110.781 178.498 110.665 178.997 110.665 179.557C110.665 180.117 110.781 180.617 111.015 181.055C111.257 181.494 111.584 181.835 111.995 182.077C112.415 182.311 112.886 182.427 113.409 182.427ZM122.463 175.819C123.424 175.819 124.162 176.062 124.675 176.547C125.188 177.023 125.445 177.733 125.445 178.675V183.239H124.493V182.091C124.269 182.474 123.938 182.773 123.499 182.987C123.07 183.202 122.556 183.309 121.959 183.309C121.138 183.309 120.484 183.113 119.999 182.721C119.514 182.329 119.271 181.811 119.271 181.167C119.271 180.542 119.495 180.038 119.943 179.655C120.4 179.273 121.124 179.081 122.113 179.081H124.451V178.633C124.451 177.999 124.274 177.518 123.919 177.191C123.564 176.855 123.046 176.687 122.365 176.687C121.898 176.687 121.45 176.767 121.021 176.925C120.592 177.075 120.223 177.285 119.915 177.555L119.467 176.813C119.84 176.496 120.288 176.253 120.811 176.085C121.334 175.908 121.884 175.819 122.463 175.819ZM122.113 182.525C122.673 182.525 123.154 182.399 123.555 182.147C123.956 181.886 124.255 181.513 124.451 181.027V179.823H122.141C120.881 179.823 120.251 180.262 120.251 181.139C120.251 181.569 120.414 181.909 120.741 182.161C121.068 182.404 121.525 182.525 122.113 182.525ZM132.023 182.791C131.836 182.959 131.603 183.09 131.323 183.183C131.052 183.267 130.767 183.309 130.469 183.309C129.778 183.309 129.246 183.123 128.873 182.749C128.499 182.376 128.313 181.849 128.313 181.167V176.715H126.997V175.875H128.313V174.265H129.307V175.875H131.547V176.715H129.307V181.111C129.307 181.55 129.414 181.886 129.629 182.119C129.853 182.343 130.17 182.455 130.581 182.455C130.786 182.455 130.982 182.423 131.169 182.357C131.365 182.292 131.533 182.199 131.673 182.077L132.023 182.791ZM136.408 175.819C137.37 175.819 138.107 176.062 138.62 176.547C139.134 177.023 139.39 177.733 139.39 178.675V183.239H138.438V182.091C138.214 182.474 137.883 182.773 137.444 182.987C137.015 183.202 136.502 183.309 135.904 183.309C135.083 183.309 134.43 183.113 133.944 182.721C133.459 182.329 133.216 181.811 133.216 181.167C133.216 180.542 133.44 180.038 133.888 179.655C134.346 179.273 135.069 179.081 136.058 179.081H138.396V178.633C138.396 177.999 138.219 177.518 137.864 177.191C137.51 176.855 136.992 176.687 136.31 176.687C135.844 176.687 135.396 176.767 134.966 176.925C134.537 177.075 134.168 177.285 133.86 177.555L133.412 176.813C133.786 176.496 134.234 176.253 134.756 176.085C135.279 175.908 135.83 175.819 136.408 175.819ZM136.058 182.525C136.618 182.525 137.099 182.399 137.5 182.147C137.902 181.886 138.2 181.513 138.396 181.027V179.823H136.086C134.826 179.823 134.196 180.262 134.196 181.139C134.196 181.569 134.36 181.909 134.686 182.161C135.013 182.404 135.47 182.525 136.058 182.525Z" fill="white"/>
</g>
<defs>
<linearGradient id="paint0_linear_6_1" x1="187.14" y1="-215" x2="187.14" y2="494" gradientUnits="userSpaceOnUse">
<stop stop-color="#301CC7"/>
<stop offset="1" stop-color="#5A45E3"/>
</linearGradient>
<clipPath id="clip0_6_1">
<rect width="375" height="667" fill="white"/>
</clipPath>
</defs>
</svg>
