<?xml version="1.0" encoding="utf-8"?>
<svg viewBox="124.9086 -138.1245 294.1748 517.8094" width="294.175" height="517.809" xmlns="http://www.w3.org/2000/svg">
  <defs>
    <clipPath id="clip0_6_1">
      <rect width="375" height="667" fill="white"/>
    </clipPath>
    <linearGradient id="paint0_linear_6_1" x1="187.14" y1="-215" x2="187.14" y2="494" gradientUnits="userSpaceOnUse">
      <stop stop-color="#301CC7"/>
      <stop offset="1" stop-color="#5A45E3"/>
    </linearGradient>
  </defs>
  <g clip-path="url(#clip0_6_1)" transform="matrix(0.784466028213501, 0, 0, 0.7763260006904602, 124.90863037109378, -138.12454223632812)" style="">
    <rect width="375" height="667" fill="white"/>
    <path opacity="0.2" d="M138.643 461.551C159.661 461.551 176.699 444.513 176.699 423.495C176.699 402.478 159.661 385.44 138.643 385.44C117.626 385.44 100.587 402.478 100.587 423.495C100.587 444.513 117.626 461.551 138.643 461.551Z" fill="#38277A"/>
    <path opacity="0.1" d="M200.688 638.166H76.5992L100.272 536.816L107.268 506.866L123.648 436.736H153.639L170.018 506.866L177.015 536.816L200.688 638.166Z" fill="#38277A"/>
    <path opacity="0.2" d="M 282.351 492.442 C 288.164 492.444 293.846 494.169 298.679 497.399 C 303.511 500.63 307.278 505.22 309.501 510.591 C 311.725 515.962 312.306 521.872 311.171 527.573 C 310.036 533.274 307.236 538.51 303.125 542.62 C 299.015 546.73 293.777 549.529 288.076 550.662 C 282.375 551.796 276.465 551.213 271.095 548.989 C 265.725 546.764 261.135 542.997 257.905 538.163 C 254.676 533.33 252.952 527.647 252.952 521.834 C 252.961 514.041 256.062 506.569 261.573 501.059 C 267.085 495.548 274.557 492.449 282.351 492.442 Z" fill="#6548DA"/>
    <path opacity="0.2" d="M 282.351 465.557 C 271.221 465.557 260.34 468.858 251.085 475.042 C 241.83 481.225 234.617 490.015 230.358 500.298 C 226.098 510.581 224.984 521.897 227.155 532.814 C 229.327 543.73 234.687 553.758 242.557 561.629 C 250.428 569.499 260.455 574.859 271.372 577.03 C 282.289 579.202 293.604 578.087 303.888 573.828 C 314.171 569.568 322.96 562.355 329.144 553.1 C 335.328 543.846 338.628 532.965 338.628 521.834 C 338.627 506.909 332.697 492.596 322.143 482.042 C 311.59 471.489 297.276 465.559 282.351 465.557 Z" fill="#6548DA"/>
    <circle cx="187.14" cy="114.937" r="353.063" fill="url(#paint0_linear_6_1)"/>
    <g opacity="0.58">
      <path opacity="0.2" d="M-20.0726 463.5L38.2614 521.834" stroke="#6548DA" stroke-width="10" stroke-miterlimit="10"/>
      <path opacity="0.2" d="M343.992 617.78L393.212 667" stroke="#6548DA" stroke-width="10" stroke-miterlimit="10"/>
      <g opacity="0.5">
        <path d="M375.528 286.869H375.535C382.555 286.869 388.245 281.178 388.245 274.159V151.354C388.245 144.335 382.555 138.644 375.535 138.644H375.528C368.509 138.644 362.818 144.335 362.818 151.354V274.159C362.818 281.178 368.509 286.869 375.528 286.869Z" fill="#DCE2E5"/>
        <path d="M339.059 248.43C334.014 248.43 329.924 252.519 329.924 257.564C329.924 262.608 334.014 266.698 339.059 266.698H374.083C379.128 266.698 383.217 262.608 383.217 257.564C383.217 252.519 379.128 248.43 374.083 248.43H339.059Z" fill="#DCE2E5"/>
        <path d="M353.126 222.062C348.082 222.062 343.992 226.152 343.992 231.196C343.992 236.241 348.082 240.331 353.126 240.331H377.457C382.502 240.331 386.592 236.241 386.592 231.196C386.592 226.152 382.502 222.062 377.457 222.062H353.126Z" fill="#DCE2E5"/>
        <path d="M 375.528 85.9494 C 380.724 85.948 385.803 87.4874 390.123 90.3728 C 394.444 93.2583 397.811 97.3601 399.8 102.16 C 401.79 106.959 402.311 112.241 401.298 117.336 C 400.285 122.432 397.784 127.113 394.111 130.787 C 390.438 134.461 385.757 136.964 380.662 137.978 C 375.566 138.992 370.285 138.472 365.485 136.484 C 360.685 134.496 356.582 131.13 353.696 126.81 C 350.809 122.49 349.268 117.411 349.268 112.216 C 349.275 105.253 352.044 98.5772 356.967 93.653 C 361.89 88.7287 368.565 85.9583 375.528 85.9494 Z" fill="#DCE2E5"/>
        <path d="M 375.528 64.4413 C 366.079 64.4413 356.843 67.2432 348.986 72.4928 C 341.13 77.7423 335.006 85.2038 331.39 93.9335 C 327.774 102.663 326.828 112.269 328.671 121.537 C 330.515 130.804 335.065 139.317 341.746 145.998 C 348.428 152.68 356.94 157.23 366.208 159.073 C 375.475 160.916 385.081 159.97 393.811 156.354 C 402.541 152.738 410.002 146.615 415.252 138.758 C 420.501 130.902 423.303 121.665 423.303 112.216 C 423.303 99.5454 418.27 87.3937 409.31 78.4342 C 400.351 69.4747 388.199 64.4413 375.528 64.4413 Z" fill="#DCE2E5"/>
        <path d="M195.085 95.5401C205.571 95.5401 214.072 87.039 214.072 76.5524C214.072 66.0659 205.571 57.5648 195.085 57.5648C184.598 57.5648 176.097 66.0659 176.097 76.5524C176.097 87.039 184.598 95.5401 195.085 95.5401Z" stroke="#E9EEF2" stroke-width="10" stroke-miterlimit="10"/>
        <path d="M208.07 90.4185L238.941 121.5" stroke="#E9EEF2" stroke-width="10" stroke-miterlimit="10"/>
        <path d="M234.7 118.863L243.182 110.757" stroke="#E9EEF2" stroke-width="10" stroke-miterlimit="10"/>
        <path d="M226.352 109.231L233.53 102.416" stroke="#E9EEF2" stroke-width="10" stroke-miterlimit="10"/>
        <path d="M294.36 328.166L331.699 365.5" stroke="white" stroke-width="10" stroke-miterlimit="10"/>
        <path d="M-20.0793 138.439L38.2614 196.773" stroke="white" stroke-width="10" stroke-miterlimit="10"/>
        <path d="M-10.0793 351.531L10 371.608" stroke="white" stroke-width="10" stroke-miterlimit="10"/>
        <path d="M274.06 147.325L217.4 203.985" stroke="white" stroke-width="10" stroke-miterlimit="10"/>
        <path d="M44.0764 31.333L62.7456 50" stroke="white" stroke-width="10" stroke-miterlimit="10"/>
        <path d="M289.224 13.2665C296.474 13.2665 302.351 7.3893 302.351 0.139433C302.351 -7.11043 296.474 -12.9876 289.224 -12.9876C281.974 -12.9876 276.097 -7.11043 276.097 0.139433C276.097 7.3893 281.974 13.2665 289.224 13.2665Z" stroke="#E9EEF2" stroke-width="10" stroke-miterlimit="10"/>
      </g>
    </g>
    <path d="M 70.1696 574.13 L 66.2696 574.13 L 65.4296 576 L 64.6596 576 L 67.8596 569 L 68.5896 569 L 71.7896 576 L 71.0096 576 L 70.1696 574.13 Z" fill="black"/>
    <path d="M 185.35 576.05 C 185.203 576.05 185.08 576 184.98 575.9 C 184.88 575.793 184.83 575.67 184.83 575.53 C 184.83 575.383 184.88 575.263 184.98 575.17 C 185.08 575.07 185.203 575.02 185.35 575.02 C 185.503 575.02 185.63 575.07 185.73 575.17 C 185.83 575.263 185.88 575.383 185.88 575.53 C 185.88 575.67 185.827 575.793 185.72 575.9 C 185.62 576 185.497 576.05 185.35 576.05 Z" fill="black"/>
    <path d="M 184.98 573.9 C 184.98 573.627 185.023 573.387 185.11 573.18 C 185.203 572.973 185.317 572.797 185.45 572.65 C 185.583 572.503 185.757 572.337 185.97 572.15 C 186.257 571.897 186.467 571.677 186.6 571.49 C 186.74 571.297 186.81 571.063 186.81 570.79 C 186.81 570.423 186.667 570.13 186.38 569.91 C 186.093 569.683 185.7 569.57 185.2 569.57 C 184.373 569.57 183.737 569.84 183.29 570.38 L 182.76 569.98 C 183.327 569.287 184.157 568.94 185.25 568.94 C 185.95 568.94 186.507 569.097 186.92 569.41 C 187.34 569.723 187.55 570.147 187.55 570.68 C 187.55 570.953 187.503 571.197 187.41 571.41 C 187.323 571.617 187.213 571.793 187.08 571.94 C 186.953 572.087 186.783 572.257 186.57 572.45 C 186.283 572.71 186.07 572.943 185.93 573.15 C 185.79 573.35 185.72 573.6 185.72 573.9 L 184.98 573.9 Z" fill="black"/>
    <path d="M 178.481 575.42 C 178.848 575.42 179.181 575.337 179.481 575.17 C 179.781 574.997 180.014 574.753 180.181 574.44 C 180.354 574.127 180.441 573.77 180.441 573.37 C 180.441 572.97 180.354 572.617 180.181 572.31 C 180.014 571.997 179.781 571.753 179.481 571.58 C 179.181 571.407 178.848 571.32 178.481 571.32 C 178.108 571.32 177.771 571.407 177.471 571.58 C 177.178 571.753 176.944 571.997 176.771 572.31 C 176.604 572.617 176.521 572.97 176.521 573.37 C 176.521 573.77 176.604 574.127 176.771 574.44 C 176.944 574.753 177.178 574.997 177.471 575.17 C 177.771 575.337 178.108 575.42 178.481 575.42 Z" fill="black"/>
    <path d="M 178.531 570.7 C 179.024 570.7 179.471 570.813 179.871 571.04 C 180.271 571.26 180.584 571.573 180.811 571.98 C 181.038 572.387 181.151 572.85 181.151 573.37 C 181.151 573.897 181.038 574.363 180.811 574.77 C 180.584 575.177 180.271 575.493 179.871 575.72 C 179.478 575.94 179.031 576.05 178.531 576.05 C 178.104 576.05 177.718 575.963 177.371 575.79 C 177.031 575.61 176.751 575.35 176.531 575.01 L 176.531 577.94 L 175.821 577.94 L 175.821 570.74 L 176.501 570.74 L 176.501 571.78 C 176.714 571.433 176.994 571.167 177.341 570.98 C 177.694 570.793 178.091 570.7 178.531 570.7 Z" fill="black"/>
    <path d="M 169.371 576.06 C 168.464 576.06 167.758 575.8 167.251 575.28 C 166.744 574.76 166.491 574.003 166.491 573.01 L 166.491 569 L 167.231 569 L 167.231 572.98 C 167.231 573.793 167.414 574.4 167.781 574.8 C 168.148 575.2 168.678 575.4 169.371 575.4 C 170.071 575.4 170.604 575.2 170.971 574.8 C 171.338 574.4 171.521 573.793 171.521 572.98 L 171.521 569 L 172.241 569 L 172.241 573.01 C 172.241 574.003 171.988 574.76 171.481 575.28 C 170.981 575.8 170.278 576.06 169.371 576.06 Z" fill="black"/>
    <path d="M 156.157 575.42 C 156.523 575.42 156.853 575.337 157.147 575.17 C 157.447 574.997 157.68 574.753 157.847 574.44 C 158.02 574.127 158.107 573.77 158.107 573.37 C 158.107 572.97 158.02 572.613 157.847 572.3 C 157.68 571.987 157.447 571.747 157.147 571.58 C 156.853 571.407 156.523 571.32 156.157 571.32 C 155.783 571.32 155.447 571.407 155.147 571.58 C 154.853 571.747 154.62 571.987 154.447 572.3 C 154.28 572.613 154.197 572.97 154.197 573.37 C 154.197 573.77 154.28 574.127 154.447 574.44 C 154.62 574.753 154.853 574.997 155.147 575.17 C 155.447 575.337 155.783 575.42 156.157 575.42 Z" fill="black"/>
    <path d="M 158.807 568.58 L 158.807 576 L 158.127 576 L 158.127 574.96 C 157.913 575.313 157.63 575.583 157.277 575.77 C 156.93 575.957 156.537 576.05 156.097 576.05 C 155.603 576.05 155.157 575.937 154.757 575.71 C 154.357 575.483 154.043 575.167 153.817 574.76 C 153.59 574.353 153.477 573.89 153.477 573.37 C 153.477 572.85 153.59 572.387 153.817 571.98 C 154.043 571.573 154.357 571.26 154.757 571.04 C 155.157 570.813 155.603 570.7 156.097 570.7 C 156.523 570.7 156.907 570.79 157.247 570.97 C 157.593 571.143 157.877 571.4 158.097 571.74 L 158.097 568.58 L 158.807 568.58 Z" fill="black"/>
    <path d="M 148.511 571.31 C 148.005 571.31 147.578 571.473 147.231 571.8 C 146.891 572.12 146.698 572.54 146.651 573.06 L 150.381 573.06 C 150.335 572.54 150.138 572.12 149.791 571.8 C 149.451 571.473 149.025 571.31 148.511 571.31 Z" fill="black"/>
    <path d="M 151.051 573.59 L 146.651 573.59 C 146.691 574.137 146.901 574.58 147.281 574.92 C 147.661 575.253 148.141 575.42 148.721 575.42 C 149.048 575.42 149.348 575.363 149.621 575.25 C 149.895 575.13 150.131 574.957 150.331 574.73 L 150.731 575.19 C 150.498 575.47 150.205 575.683 149.851 575.83 C 149.505 575.977 149.121 576.05 148.701 576.05 C 148.161 576.05 147.681 575.937 147.261 575.71 C 146.848 575.477 146.525 575.157 146.291 574.75 C 146.058 574.343 145.941 573.883 145.941 573.37 C 145.941 572.857 146.051 572.397 146.271 571.99 C 146.498 571.583 146.805 571.267 147.191 571.04 C 147.585 570.813 148.025 570.7 148.511 570.7 C 148.998 570.7 149.435 570.813 149.821 571.04 C 150.208 571.267 150.511 571.583 150.731 571.99 C 150.951 572.39 151.061 572.85 151.061 573.37 L 151.051 573.59 Z" fill="black"/>
    <path d="M 140.864 570.7 C 141.524 570.7 142.048 570.893 142.434 571.28 C 142.828 571.66 143.024 572.217 143.024 572.95 L 143.024 576 L 142.314 576 L 142.314 573.02 C 142.314 572.473 142.178 572.057 141.904 571.77 C 141.631 571.483 141.241 571.34 140.734 571.34 C 140.168 571.34 139.718 571.51 139.384 571.85 C 139.058 572.183 138.894 572.647 138.894 573.24 L 138.894 576 L 138.184 576 L 138.184 570.74 L 138.864 570.74 L 138.864 571.71 C 139.058 571.39 139.324 571.143 139.664 570.97 C 140.011 570.79 140.411 570.7 140.864 570.7 Z" fill="black"/>
    <path d="M 132.009 575.17 C 132.389 575.17 132.732 575.09 133.039 574.93 C 133.346 574.763 133.582 574.533 133.749 574.24 C 133.922 573.947 134.009 573.613 134.009 573.24 C 134.009 572.867 133.922 572.537 133.749 572.25 C 133.582 571.957 133.346 571.73 133.039 571.57 C 132.739 571.403 132.396 571.32 132.009 571.32 C 131.629 571.32 131.286 571.4 130.979 571.56 C 130.679 571.72 130.442 571.947 130.269 572.24 C 130.102 572.533 130.019 572.867 130.019 573.24 C 130.019 573.613 130.102 573.947 130.269 574.24 C 130.442 574.533 130.679 574.763 130.979 574.93 C 131.286 575.09 131.629 575.17 132.009 575.17 Z" fill="black"/>
    <path d="M 134.699 570.74 L 134.699 575.36 C 134.699 576.253 134.479 576.913 134.039 577.34 C 133.606 577.773 132.949 577.99 132.069 577.99 C 131.582 577.99 131.119 577.917 130.679 577.77 C 130.246 577.63 129.892 577.433 129.619 577.18 L 129.979 576.64 C 130.232 576.867 130.539 577.043 130.899 577.17 C 131.266 577.297 131.649 577.36 132.049 577.36 C 132.716 577.36 133.206 577.203 133.519 576.89 C 133.832 576.583 133.989 576.103 133.989 575.45 L 133.989 574.78 C 133.769 575.113 133.479 575.367 133.119 575.54 C 132.766 575.713 132.372 575.8 131.939 575.8 C 131.446 575.8 130.996 575.693 130.589 575.48 C 130.189 575.26 129.872 574.957 129.639 574.57 C 129.412 574.177 129.299 573.733 129.299 573.24 C 129.299 572.747 129.412 572.307 129.639 571.92 C 129.872 571.533 130.189 571.233 130.589 571.02 C 130.989 570.807 131.439 570.7 131.939 570.7 C 132.386 570.7 132.789 570.79 133.149 570.97 C 133.509 571.15 133.799 571.41 134.019 571.75 L 134.019 570.74 L 134.699 570.74 Z" fill="black"/>
    <path d="M 126.003 569.59 C 125.857 569.59 125.733 569.54 125.633 569.44 C 125.533 569.34 125.483 569.22 125.483 569.08 C 125.483 568.947 125.533 568.83 125.633 568.73 C 125.733 568.63 125.857 568.58 126.003 568.58 C 126.15 568.58 126.273 568.63 126.373 568.73 C 126.473 568.823 126.523 568.937 126.523 569.07 C 126.523 569.217 126.473 569.34 126.373 569.44 C 126.273 569.54 126.15 569.59 126.003 569.59 Z" fill="black"/>
    <path d="M 125.643 570.74 L 126.353 570.74 L 126.353 576 L 125.643 576 L 125.643 570.74 Z" fill="black"/>
    <path d="M 120.071 576.06 C 119.551 576.06 119.051 575.977 118.571 575.81 C 118.098 575.643 117.731 575.423 117.471 575.15 L 117.761 574.58 C 118.014 574.833 118.351 575.04 118.771 575.2 C 119.191 575.353 119.624 575.43 120.071 575.43 C 120.698 575.43 121.168 575.317 121.481 575.09 C 121.794 574.857 121.951 574.557 121.951 574.19 C 121.951 573.91 121.864 573.687 121.691 573.52 C 121.524 573.353 121.318 573.227 121.071 573.14 C 120.824 573.047 120.481 572.947 120.041 572.84 C 119.514 572.707 119.094 572.58 118.781 572.46 C 118.468 572.333 118.198 572.143 117.971 571.89 C 117.751 571.637 117.641 571.293 117.641 570.86 C 117.641 570.507 117.734 570.187 117.921 569.9 C 118.108 569.607 118.394 569.373 118.781 569.2 C 119.168 569.027 119.648 568.94 120.221 568.94 C 120.621 568.94 121.011 568.997 121.391 569.11 C 121.778 569.217 122.111 569.367 122.391 569.56 L 122.141 570.15 C 121.848 569.957 121.534 569.813 121.201 569.72 C 120.868 569.62 120.541 569.57 120.221 569.57 C 119.608 569.57 119.144 569.69 118.831 569.93 C 118.524 570.163 118.371 570.467 118.371 570.84 C 118.371 571.12 118.454 571.347 118.621 571.52 C 118.794 571.687 119.008 571.817 119.261 571.91 C 119.521 571.997 119.868 572.093 120.301 572.2 C 120.814 572.327 121.228 572.453 121.541 572.58 C 121.861 572.7 122.131 572.887 122.351 573.14 C 122.571 573.387 122.681 573.723 122.681 574.15 C 122.681 574.503 122.584 574.827 122.391 575.12 C 122.204 575.407 121.914 575.637 121.521 575.81 C 121.128 575.977 120.644 576.06 120.071 576.06 Z" fill="black"/>
    <path d="M 111.374 570.74 L 108.744 576.63 C 108.531 577.123 108.284 577.473 108.004 577.68 C 107.724 577.887 107.387 577.99 106.994 577.99 C 106.741 577.99 106.504 577.95 106.284 577.87 C 106.064 577.79 105.874 577.67 105.714 577.51 L 106.044 576.98 C 106.311 577.247 106.631 577.38 107.004 577.38 C 107.244 577.38 107.447 577.313 107.614 577.18 C 107.787 577.047 107.947 576.82 108.094 576.5 L 108.324 575.99 L 105.974 570.74 L 106.714 570.74 L 108.694 575.21 L 110.674 570.74 L 111.374 570.74 Z" fill="black"/>
    <path d="M 100.827 575.42 C 101.193 575.42 101.523 575.337 101.817 575.17 C 102.117 574.997 102.35 574.753 102.517 574.44 C 102.69 574.127 102.777 573.77 102.777 573.37 C 102.777 572.97 102.69 572.613 102.517 572.3 C 102.35 571.987 102.117 571.747 101.817 571.58 C 101.523 571.407 101.193 571.32 100.827 571.32 C 100.453 571.32 100.117 571.407 99.8165 571.58 C 99.5232 571.747 99.2899 571.987 99.1165 572.3 C 98.9499 572.613 98.8665 572.97 98.8665 573.37 C 98.8665 573.77 98.9499 574.127 99.1165 574.44 C 99.2899 574.753 99.5232 574.997 99.8165 575.17 C 100.117 575.337 100.453 575.42 100.827 575.42 Z" fill="black"/>
    <path d="M 103.477 568.58 L 103.477 576 L 102.797 576 L 102.797 574.96 C 102.583 575.313 102.3 575.583 101.947 575.77 C 101.6 575.957 101.207 576.05 100.767 576.05 C 100.273 576.05 99.8265 575.937 99.4265 575.71 C 99.0265 575.483 98.7132 575.167 98.4865 574.76 C 98.2599 574.353 98.1465 573.89 98.1465 573.37 C 98.1465 572.85 98.2599 572.387 98.4865 571.98 C 98.7132 571.573 99.0265 571.26 99.4265 571.04 C 99.8265 570.813 100.273 570.7 100.767 570.7 C 101.193 570.7 101.577 570.79 101.917 570.97 C 102.263 571.143 102.547 571.4 102.767 571.74 L 102.767 568.58 L 103.477 568.58 Z" fill="black"/>
    <path d="M 92.8486 575.49 C 93.2486 575.49 93.5919 575.4 93.8786 575.22 C 94.1652 575.033 94.3786 574.767 94.5186 574.42 L 94.5186 573.56 L 92.8686 573.56 C 91.9686 573.56 91.5186 573.873 91.5186 574.5 C 91.5186 574.807 91.6352 575.05 91.8686 575.23 C 92.1019 575.403 92.4286 575.49 92.8486 575.49 Z" fill="black"/>
    <path d="M 93.0986 570.7 C 93.7852 570.7 94.3119 570.873 94.6786 571.22 C 95.0452 571.56 95.2286 572.067 95.2286 572.74 L 95.2286 576 L 94.5486 576 L 94.5486 575.18 C 94.3886 575.453 94.1519 575.667 93.8386 575.82 C 93.5319 575.973 93.1652 576.05 92.7386 576.05 C 92.1519 576.05 91.6852 575.91 91.3386 575.63 C 90.9919 575.35 90.8186 574.98 90.8186 574.52 C 90.8186 574.073 90.9786 573.713 91.2986 573.44 C 91.6252 573.167 92.1419 573.03 92.8486 573.03 L 94.5186 573.03 L 94.5186 572.71 C 94.5186 572.257 94.3919 571.913 94.1386 571.68 C 93.8852 571.44 93.5152 571.32 93.0286 571.32 C 92.6952 571.32 92.3752 571.377 92.0686 571.49 C 91.7619 571.597 91.4986 571.747 91.2786 571.94 L 90.9586 571.41 C 91.2252 571.183 91.5452 571.01 91.9186 570.89 C 92.2919 570.763 92.6852 570.7 93.0986 570.7 Z" fill="black"/>
    <path d="M 85.9099 571.31 C 85.4032 571.31 84.9765 571.473 84.6299 571.8 C 84.2899 572.12 84.0965 572.54 84.0499 573.06 L 87.7799 573.06 C 87.7332 572.54 87.5365 572.12 87.1899 571.8 C 86.8499 571.473 86.4232 571.31 85.9099 571.31 Z" fill="black"/>
    <path d="M 88.4499 573.59 L 84.0499 573.59 C 84.0899 574.137 84.2999 574.58 84.6799 574.92 C 85.0599 575.253 85.5399 575.42 86.1199 575.42 C 86.4465 575.42 86.7465 575.363 87.0199 575.25 C 87.2932 575.13 87.5299 574.957 87.7299 574.73 L 88.1299 575.19 C 87.8965 575.47 87.6032 575.683 87.2499 575.83 C 86.9032 575.977 86.5199 576.05 86.0999 576.05 C 85.5599 576.05 85.0799 575.937 84.6599 575.71 C 84.2465 575.477 83.9232 575.157 83.6899 574.75 C 83.4565 574.343 83.3399 573.883 83.3399 573.37 C 83.3399 572.857 83.4499 572.397 83.6699 571.99 C 83.8965 571.583 84.2032 571.267 84.5899 571.04 C 84.9832 570.813 85.4232 570.7 85.9099 570.7 C 86.3965 570.7 86.8332 570.813 87.2199 571.04 C 87.6065 571.267 87.9099 571.583 88.1299 571.99 C 88.3499 572.39 88.4599 572.85 88.4599 573.37 L 88.4499 573.59 Z" fill="black"/>
    <path d="M 79.1632 571.77 C 79.3298 571.417 79.5765 571.15 79.9032 570.97 C 80.2365 570.79 80.6465 570.7 81.1332 570.7 L 81.1332 571.39 L 80.9632 571.38 C 80.4098 571.38 79.9765 571.55 79.6632 571.89 C 79.3498 572.23 79.1932 572.707 79.1932 573.32 L 79.1932 576 L 78.4832 576 L 78.4832 570.74 L 79.1632 570.74 L 79.1632 571.77 Z" fill="black"/>
    <path d="M 74.2976 568.58 L 75.0076 568.58 L 75.0076 576 L 74.2976 576 L 74.2976 568.58 Z" fill="black"/>
    <path d="M 69.8996 573.53 L 68.2196 569.77 L 66.53960000000001 573.53 L 69.8996 573.53 Z" fill="black"/>
    <path d="M 194.751 569 L 196.371 569 L 196.371 574.68 L 199.881 574.68 L 199.881 576 L 194.751 576 L 194.751 569 Z" fill="#3D28CF"/>
    <path d="M 230.802 570.54 C 231.468 570.54 232.005 570.74 232.412 571.14 C 232.825 571.54 233.032 572.133 233.032 572.92 L 233.032 576 L 231.472 576 L 231.472 573.16 C 231.472 572.733 231.378 572.417 231.192 572.21 C 231.005 571.997 230.735 571.89 230.382 571.89 C 229.988 571.89 229.675 572.013 229.442 572.26 C 229.208 572.5 229.092 572.86 229.092 573.34 L 229.092 576 L 227.532 576 L 227.532 570.62 L 229.022 570.62 L 229.022 571.25 C 229.228 571.023 229.485 570.85 229.792 570.73 C 230.098 570.603 230.435 570.54 230.802 570.54 Z" fill="#3D28CF"/>
    <path d="M 223.804 569.87 C 223.517 569.87 223.284 569.787 223.104 569.62 C 222.924 569.453 222.834 569.247 222.834 569 C 222.834 568.753 222.924 568.547 223.104 568.38 C 223.284 568.213 223.517 568.13 223.804 568.13 C 224.09 568.13 224.324 568.21 224.504 568.37 C 224.684 568.53 224.774 568.73 224.774 568.97 C 224.774 569.23 224.684 569.447 224.504 569.62 C 224.324 569.787 224.09 569.87 223.804 569.87 Z" fill="#3D28CF"/>
    <path d="M 223.024 570.62 L 224.584 570.62 L 224.584 576 L 223.024 576 L 223.024 570.62 Z" fill="#3D28CF"/>
    <path d="M 212.79 574.46 C 213.203 574.46 213.54 574.34 213.8 574.1 C 214.066 573.853 214.2 573.533 214.2 573.14 C 214.2 572.747 214.066 572.43 213.8 572.19 C 213.54 571.943 213.203 571.82 212.79 571.82 C 212.376 571.82 212.036 571.943 211.77 572.19 C 211.503 572.43 211.37 572.747 211.37 573.14 C 211.37 573.533 211.503 573.853 211.77 574.1 C 212.036 574.34 212.376 574.46 212.79 574.46 Z" fill="#3D28CF"/>
    <path d="M 215.74 570.62 L 215.74 575.1 C 215.74 576.087 215.483 576.82 214.97 577.3 C 214.456 577.78 213.706 578.02 212.72 578.02 C 212.2 578.02 211.706 577.957 211.24 577.83 C 210.773 577.703 210.386 577.52 210.08 577.28 L 210.7 576.16 C 210.926 576.347 211.213 576.493 211.56 576.6 C 211.906 576.713 212.253 576.77 212.6 576.77 C 213.14 576.77 213.536 576.647 213.79 576.4 C 214.05 576.16 214.18 575.793 214.18 575.3 L 214.18 575.07 C 213.773 575.517 213.206 575.74 212.48 575.74 C 211.986 575.74 211.533 575.633 211.12 575.42 C 210.713 575.2 210.39 574.893 210.15 574.5 C 209.91 574.107 209.79 573.653 209.79 573.14 C 209.79 572.627 209.91 572.173 210.15 571.78 C 210.39 571.387 210.713 571.083 211.12 570.87 C 211.533 570.65 211.986 570.54 212.48 570.54 C 213.26 570.54 213.853 570.797 214.26 571.31 L 214.26 570.62 L 215.74 570.62 Z" fill="#3D28CF"/>
    <path d="M 204.697 574.8 C 205.097 574.8 205.424 574.667 205.677 574.4 C 205.937 574.127 206.067 573.763 206.067 573.31 C 206.067 572.857 205.937 572.497 205.677 572.23 C 205.424 571.957 205.097 571.82 204.697 571.82 C 204.297 571.82 203.967 571.957 203.707 572.23 C 203.447 572.497 203.317 572.857 203.317 573.31 C 203.317 573.763 203.447 574.127 203.707 574.4 C 203.967 574.667 204.297 574.8 204.697 574.8 Z" fill="#3D28CF"/>
    <path d="M 204.697 576.08 C 204.13 576.08 203.62 575.963 203.167 575.73 C 202.72 575.49 202.37 575.16 202.117 574.74 C 201.864 574.32 201.737 573.843 201.737 573.31 C 201.737 572.777 201.864 572.3 202.117 571.88 C 202.37 571.46 202.72 571.133 203.167 570.9 C 203.62 570.66 204.13 570.54 204.697 570.54 C 205.264 570.54 205.77 570.66 206.217 570.9 C 206.664 571.133 207.014 571.46 207.267 571.88 C 207.52 572.3 207.647 572.777 207.647 573.31 C 207.647 573.843 207.52 574.32 207.267 574.74 C 207.014 575.16 206.664 575.49 206.217 575.73 C 205.77 575.963 205.264 576.08 204.697 576.08 Z" fill="#3D28CF"/>
    <rect x="64.6396" y="515" width="250" height="42" rx="5" fill="#533EDE"/>
    <path d="M 153.522 541.168 C 152.747 541.168 151.996 541.065 151.268 540.86 C 150.549 540.645 149.97 540.37 149.532 540.034 L 150.302 538.326 C 150.722 538.634 151.221 538.881 151.8 539.068 C 152.378 539.255 152.957 539.348 153.536 539.348 C 154.18 539.348 154.656 539.255 154.964 539.068 C 155.272 538.872 155.426 538.615 155.426 538.298 C 155.426 538.065 155.332 537.873 155.146 537.724 C 154.968 537.565 154.735 537.439 154.446 537.346 C 154.166 537.253 153.783 537.15 153.298 537.038 C 152.551 536.861 151.94 536.683 151.464 536.506 C 150.988 536.329 150.577 536.044 150.232 535.652 C 149.896 535.26 149.728 534.737 149.728 534.084 C 149.728 533.515 149.882 533.001 150.19 532.544 C 150.498 532.077 150.96 531.709 151.576 531.438 C 152.201 531.167 152.962 531.032 153.858 531.032 C 154.483 531.032 155.094 531.107 155.692 531.256 C 156.289 531.405 156.812 531.62 157.26 531.9 L 156.56 533.622 C 155.654 533.109 154.749 532.852 153.844 532.852 C 153.209 532.852 152.738 532.955 152.43 533.16 C 152.131 533.365 151.982 533.636 151.982 533.972 C 151.982 534.308 152.154 534.56 152.5 534.728 C 152.854 534.887 153.391 535.045 154.11 535.204 C 154.856 535.381 155.468 535.559 155.944 535.736 C 156.42 535.913 156.826 536.193 157.162 536.576 C 157.507 536.959 157.68 537.477 157.68 538.13 C 157.68 538.69 157.521 539.203 157.204 539.67 C 156.896 540.127 156.429 540.491 155.804 540.762 C 155.178 541.033 154.418 541.168 153.522 541.168 Z" fill="white"/>
    <path d="M 217.645 536.45 C 218.326 536.45 218.844 536.305 219.199 536.016 C 219.553 535.717 219.731 535.297 219.731 534.756 C 219.731 534.205 219.553 533.785 219.199 533.496 C 218.844 533.197 218.326 533.048 217.645 533.048 L 215.797 533.048 L 215.797 536.45 L 217.645 536.45 Z" fill="white"/>
    <path d="M 217.771 531.2 C 218.639 531.2 219.39 531.345 220.025 531.634 C 220.669 531.923 221.163 532.334 221.509 532.866 C 221.854 533.398 222.027 534.028 222.027 534.756 C 222.027 535.475 221.854 536.105 221.509 536.646 C 221.163 537.178 220.669 537.589 220.025 537.878 C 219.39 538.158 218.639 538.298 217.771 538.298 L 215.797 538.298 L 215.797 541 L 213.529 541 L 213.529 531.2 L 217.771 531.2 Z" fill="white"/>
    <path d="M 204.749 541.168 C 203.349 541.168 202.257 540.781 201.473 540.006 C 200.699 539.231 200.311 538.125 200.311 536.688 L 200.311 531.2 L 202.579 531.2 L 202.579 536.604 C 202.579 538.359 203.307 539.236 204.763 539.236 C 205.473 539.236 206.014 539.026 206.387 538.606 C 206.761 538.177 206.947 537.509 206.947 536.604 L 206.947 531.2 L 209.187 531.2 L 209.187 536.688 C 209.187 538.125 208.795 539.231 208.011 540.006 C 207.237 540.781 206.149 541.168 204.749 541.168 Z" fill="white"/>
    <path d="M 189.912 531.2 L 189.912 541 L 188.05 541 L 183.164 535.05 L 183.164 541 L 180.924 541 L 180.924 531.2 L 182.8 531.2 L 187.672 537.15 L 187.672 531.2 L 189.912 531.2 Z" fill="white"/>
    <path d="M 174.645 535.946 L 176.717 535.946 L 176.717 539.922 C 176.185 540.323 175.569 540.631 174.869 540.846 C 174.169 541.061 173.464 541.168 172.755 541.168 C 171.738 541.168 170.823 540.953 170.011 540.524 C 169.199 540.085 168.56 539.483 168.093 538.718 C 167.636 537.943 167.407 537.071 167.407 536.1 C 167.407 535.129 167.636 534.261 168.093 533.496 C 168.56 532.721 169.204 532.119 170.025 531.69 C 170.846 531.251 171.77 531.032 172.797 531.032 C 173.656 531.032 174.435 531.177 175.135 531.466 C 175.835 531.755 176.423 532.175 176.899 532.726 L 175.443 534.07 C 174.743 533.333 173.898 532.964 172.909 532.964 C 172.284 532.964 171.728 533.095 171.243 533.356 C 170.758 533.617 170.38 533.986 170.109 534.462 C 169.838 534.938 169.703 535.484 169.703 536.1 C 169.703 536.707 169.838 537.248 170.109 537.724 C 170.38 538.2 170.753 538.573 171.229 538.844 C 171.714 539.105 172.265 539.236 172.881 539.236 C 173.534 539.236 174.122 539.096 174.645 538.816 L 174.645 535.946 Z" fill="white"/>
    <path d="M 161.329 531.2 L 163.597 531.2 L 163.597 541 L 161.329 541 L 161.329 531.2 Z" fill="white"/>
    <rect x="65.0403" y="413.5" width="249" height="83" rx="4.5" fill="white" stroke="#DADADA" stroke-linecap="square"/>
    <path d="M 84.8176 439.692 L 84.8176 441 L 78.5176 441 L 78.5176 432.6 L 84.6496 432.6 L 84.6496 433.908 L 80.0776 433.908 L 80.0776 436.092 L 84.1336 436.092 L 84.1336 437.376 L 80.0776 437.376 L 80.0776 439.692 L 84.8176 439.692 Z" fill="#533EDE"/>
    <path d="M 182.555 441.084 C 182.035 441.084 181.527 441.016 181.031 440.88 C 180.535 440.744 180.139 440.572 179.843 440.364 L 180.419 439.224 C 180.707 439.416 181.051 439.572 181.451 439.692 C 181.859 439.804 182.259 439.86 182.651 439.86 C 183.547 439.86 183.995 439.624 183.995 439.152 C 183.995 438.928 183.879 438.772 183.647 438.684 C 183.423 438.596 183.059 438.512 182.555 438.432 C 182.027 438.352 181.595 438.26 181.259 438.156 C 180.931 438.052 180.643 437.872 180.395 437.616 C 180.155 437.352 180.035 436.988 180.035 436.524 C 180.035 435.916 180.287 435.432 180.791 435.072 C 181.303 434.704 181.991 434.52 182.855 434.52 C 183.295 434.52 183.735 434.572 184.175 434.676 C 184.615 434.772 184.975 434.904 185.255 435.072 L 184.679 436.212 C 184.135 435.892 183.523 435.732 182.843 435.732 C 182.403 435.732 182.067 435.8 181.835 435.936 C 181.611 436.064 181.499 436.236 181.499 436.452 C 181.499 436.692 181.619 436.864 181.859 436.968 C 182.107 437.064 182.487 437.156 182.999 437.244 C 183.511 437.324 183.931 437.416 184.259 437.52 C 184.587 437.624 184.867 437.8 185.099 438.048 C 185.339 438.296 185.459 438.648 185.459 439.104 C 185.459 439.704 185.199 440.184 184.679 440.544 C 184.159 440.904 183.451 441.084 182.555 441.084 Z" fill="#533EDE"/>
    <path d="M 174.579 441.084 C 174.059 441.084 173.551 441.016 173.055 440.88 C 172.559 440.744 172.163 440.572 171.867 440.364 L 172.443 439.224 C 172.731 439.416 173.075 439.572 173.475 439.692 C 173.883 439.804 174.283 439.86 174.675 439.86 C 175.571 439.86 176.019 439.624 176.019 439.152 C 176.019 438.928 175.903 438.772 175.671 438.684 C 175.447 438.596 175.083 438.512 174.579 438.432 C 174.051 438.352 173.619 438.26 173.283 438.156 C 172.955 438.052 172.667 437.872 172.419 437.616 C 172.179 437.352 172.059 436.988 172.059 436.524 C 172.059 435.916 172.311 435.432 172.815 435.072 C 173.327 434.704 174.015 434.52 174.879 434.52 C 175.319 434.52 175.759 434.572 176.199 434.676 C 176.639 434.772 176.999 434.904 177.279 435.072 L 176.703 436.212 C 176.159 435.892 175.547 435.732 174.867 435.732 C 174.427 435.732 174.091 435.8 173.859 435.936 C 173.635 436.064 173.523 436.236 173.523 436.452 C 173.523 436.692 173.643 436.864 173.883 436.968 C 174.131 437.064 174.511 437.156 175.023 437.244 C 175.535 437.324 175.955 437.416 176.283 437.52 C 176.611 437.624 176.891 437.8 177.123 438.048 C 177.363 438.296 177.483 438.648 177.483 439.104 C 177.483 439.704 177.223 440.184 176.703 440.544 C 176.183 440.904 175.475 441.084 174.579 441.084 Z" fill="#533EDE"/>
    <path d="M 166.119 435.72 C 165.639 435.72 165.231 435.864 164.895 436.152 C 164.567 436.432 164.367 436.808 164.295 437.28 L 167.931 437.28 C 167.867 436.816 167.671 436.44 167.343 436.152 C 167.015 435.864 166.607 435.72 166.119 435.72 Z" fill="#533EDE"/>
    <path d="M 169.359 437.832 C 169.359 437.936 169.351 438.084 169.335 438.276 L 164.307 438.276 C 164.395 438.748 164.623 439.124 164.991 439.404 C 165.367 439.676 165.831 439.812 166.383 439.812 C 167.087 439.812 167.667 439.58 168.123 439.116 L 168.927 440.04 C 168.639 440.384 168.275 440.644 167.835 440.82 C 167.395 440.996 166.899 441.084 166.347 441.084 C 165.643 441.084 165.023 440.944 164.487 440.664 C 163.951 440.384 163.535 439.996 163.239 439.5 C 162.951 438.996 162.807 438.428 162.807 437.796 C 162.807 437.172 162.947 436.612 163.227 436.116 C 163.515 435.612 163.911 435.22 164.415 434.94 C 164.919 434.66 165.487 434.52 166.119 434.52 C 166.743 434.52 167.299 434.66 167.787 434.94 C 168.283 435.212 168.667 435.6 168.939 436.104 C 169.219 436.6 169.359 437.176 169.359 437.832 Z" fill="#533EDE"/>
    <path d="M 158.041 435.528 C 158.473 434.856 159.233 434.52 160.321 434.52 L 160.321 435.948 C 160.193 435.924 160.077 435.912 159.973 435.912 C 159.389 435.912 158.933 436.084 158.605 436.428 C 158.277 436.764 158.113 437.252 158.113 437.892 L 158.113 441 L 156.613 441 L 156.613 434.592 L 158.041 434.592 L 158.041 435.528 Z" fill="#533EDE"/>
    <path d="M 149.466 439.8 C 149.826 439.8 150.15 439.72 150.438 439.56 C 150.726 439.392 150.954 439.156 151.122 438.852 C 151.29 438.548 151.374 438.196 151.374 437.796 C 151.374 437.396 151.29 437.044 151.122 436.74 C 150.954 436.436 150.726 436.204 150.438 436.044 C 150.15 435.876 149.826 435.792 149.466 435.792 C 149.106 435.792 148.782 435.876 148.494 436.044 C 148.206 436.204 147.978 436.436 147.81 436.74 C 147.642 437.044 147.558 437.396 147.558 437.796 C 147.558 438.196 147.642 438.548 147.81 438.852 C 147.978 439.156 148.206 439.392 148.494 439.56 C 148.782 439.72 149.106 439.8 149.466 439.8 Z" fill="#533EDE"/>
    <path d="M 152.85 432.096 L 152.85 441 L 151.41 441 L 151.41 440.172 C 151.162 440.476 150.854 440.704 150.486 440.856 C 150.126 441.008 149.726 441.084 149.286 441.084 C 148.67 441.084 148.114 440.948 147.618 440.676 C 147.13 440.404 146.746 440.02 146.466 439.524 C 146.186 439.02 146.046 438.444 146.046 437.796 C 146.046 437.148 146.186 436.576 146.466 436.08 C 146.746 435.584 147.13 435.2 147.618 434.928 C 148.114 434.656 148.67 434.52 149.286 434.52 C 149.71 434.52 150.098 434.592 150.45 434.736 C 150.802 434.88 151.102 435.096 151.35 435.384 L 151.35 432.096 L 152.85 432.096 Z" fill="#533EDE"/>
    <path d="M 139.428 439.8 C 139.788 439.8 140.112 439.72 140.4 439.56 C 140.688 439.392 140.916 439.156 141.084 438.852 C 141.252 438.548 141.336 438.196 141.336 437.796 C 141.336 437.396 141.252 437.044 141.084 436.74 C 140.916 436.436 140.688 436.204 140.4 436.044 C 140.112 435.876 139.788 435.792 139.428 435.792 C 139.068 435.792 138.744 435.876 138.456 436.044 C 138.168 436.204 137.94 436.436 137.772 436.74 C 137.604 437.044 137.52 437.396 137.52 437.796 C 137.52 438.196 137.604 438.548 137.772 438.852 C 137.94 439.156 138.168 439.392 138.456 439.56 C 138.744 439.72 139.068 439.8 139.428 439.8 Z" fill="#533EDE"/>
    <path d="M 142.812 432.096 L 142.812 441 L 141.372 441 L 141.372 440.172 C 141.124 440.476 140.816 440.704 140.448 440.856 C 140.088 441.008 139.688 441.084 139.248 441.084 C 138.632 441.084 138.076 440.948 137.58 440.676 C 137.092 440.404 136.708 440.02 136.428 439.524 C 136.148 439.02 136.008 438.444 136.008 437.796 C 136.008 437.148 136.148 436.576 136.428 436.08 C 136.708 435.584 137.092 435.2 137.58 434.928 C 138.076 434.656 138.632 434.52 139.248 434.52 C 139.672 434.52 140.06 434.592 140.412 434.736 C 140.764 434.88 141.064 435.096 141.312 435.384 L 141.312 432.096 L 142.812 432.096 Z" fill="#533EDE"/>
    <path d="M 129.632 439.992 C 130.008 439.992 130.34 439.908 130.628 439.74 C 130.924 439.564 131.132 439.316 131.252 438.996 L 131.252 438.252 L 129.704 438.252 C 128.84 438.252 128.408 438.536 128.408 439.104 C 128.408 439.376 128.516 439.592 128.732 439.752 C 128.948 439.912 129.248 439.992 129.632 439.992 Z" fill="#533EDE"/>
    <path d="M 129.836 434.52 C 130.78 434.52 131.5 434.748 131.996 435.204 C 132.5 435.652 132.752 436.332 132.752 437.244 L 132.752 441 L 131.336 441 L 131.336 440.22 C 131.152 440.5 130.888 440.716 130.544 440.868 C 130.208 441.012 129.8 441.084 129.32 441.084 C 128.84 441.084 128.42 441.004 128.06 440.844 C 127.7 440.676 127.42 440.448 127.22 440.16 C 127.028 439.864 126.932 439.532 126.932 439.164 C 126.932 438.588 127.144 438.128 127.568 437.784 C 128 437.432 128.676 437.256 129.596 437.256 L 131.252 437.256 L 131.252 437.16 C 131.252 436.712 131.116 436.368 130.844 436.128 C 130.58 435.888 130.184 435.768 129.656 435.768 C 129.296 435.768 128.94 435.824 128.588 435.936 C 128.244 436.048 127.952 436.204 127.712 436.404 L 127.124 435.312 C 127.46 435.056 127.864 434.86 128.336 434.724 C 128.808 434.588 129.308 434.52 129.836 434.52 Z" fill="#533EDE"/>
    <path d="M 117.003 432.096 L 118.503 432.096 L 118.503 441 L 117.003 441 L 117.003 432.096 Z" fill="#533EDE"/>
    <path d="M 112.491 433.536 C 112.219 433.536 111.991 433.452 111.807 433.284 C 111.623 433.108 111.531 432.892 111.531 432.636 C 111.531 432.38 111.623 432.168 111.807 432 C 111.991 431.824 112.219 431.736 112.491 431.736 C 112.763 431.736 112.991 431.82 113.175 431.988 C 113.359 432.148 113.451 432.352 113.451 432.6 C 113.451 432.864 113.359 433.088 113.175 433.272 C 112.999 433.448 112.771 433.536 112.491 433.536 Z" fill="#533EDE"/>
    <path d="M 111.735 434.592 L 113.235 434.592 L 113.235 441 L 111.735 441 L 111.735 434.592 Z" fill="#533EDE"/>
    <path d="M 104.89 439.992 C 105.266 439.992 105.598 439.908 105.886 439.74 C 106.182 439.564 106.39 439.316 106.51 438.996 L 106.51 438.252 L 104.962 438.252 C 104.098 438.252 103.666 438.536 103.666 439.104 C 103.666 439.376 103.774 439.592 103.99 439.752 C 104.206 439.912 104.506 439.992 104.89 439.992 Z" fill="#533EDE"/>
    <path d="M 105.094 434.52 C 106.038 434.52 106.758 434.748 107.254 435.204 C 107.758 435.652 108.01 436.332 108.01 437.244 L 108.01 441 L 106.594 441 L 106.594 440.22 C 106.41 440.5 106.146 440.716 105.802 440.868 C 105.466 441.012 105.058 441.084 104.578 441.084 C 104.098 441.084 103.678 441.004 103.318 440.844 C 102.958 440.676 102.678 440.448 102.478 440.16 C 102.286 439.864 102.19 439.532 102.19 439.164 C 102.19 438.588 102.402 438.128 102.826 437.784 C 103.258 437.432 103.934 437.256 104.854 437.256 L 106.51 437.256 L 106.51 437.16 C 106.51 436.712 106.374 436.368 106.102 436.128 C 105.838 435.888 105.442 435.768 104.914 435.768 C 104.554 435.768 104.198 435.824 103.846 435.936 C 103.502 436.048 103.21 436.204 102.97 436.404 L 102.382 435.312 C 102.718 435.056 103.122 434.86 103.594 434.724 C 104.066 434.588 104.566 434.52 105.094 434.52 Z" fill="#533EDE"/>
    <path d="M 96.3007 434.52 C 97.1087 434.52 97.7487 434.756 98.2207 435.228 C 98.6927 435.692 98.9287 436.392 98.9287 437.328 L 98.9287 441 L 97.4287 441 L 97.4287 437.52 C 97.4287 436.96 97.3047 436.54 97.0567 436.26 C 96.8087 435.972 96.4527 435.828 95.9887 435.828 C 95.4847 435.828 95.0807 435.996 94.7767 436.332 C 94.4727 436.66 94.3207 437.132 94.3207 437.748 L 94.3207 441 L 92.8207 441 L 92.8207 437.52 C 92.8207 436.96 92.6967 436.54 92.4487 436.26 C 92.2007 435.972 91.8447 435.828 91.3807 435.828 C 90.8687 435.828 90.4607 435.992 90.1567 436.32 C 89.8607 436.648 89.7127 437.124 89.7127 437.748 L 89.7127 441 L 88.2127 441 L 88.2127 434.592 L 89.6407 434.592 L 89.6407 435.408 C 89.8807 435.12 90.1807 434.9 90.5407 434.748 C 90.9007 434.596 91.3007 434.52 91.7407 434.52 C 92.2207 434.52 92.6447 434.612 93.0127 434.796 C 93.3887 434.972 93.6847 435.236 93.9007 435.588 C 94.1647 435.252 94.5047 434.992 94.9207 434.808 C 95.3367 434.616 95.7967 434.52 96.3007 434.52 Z" fill="#533EDE"/>
    <path d="M 81.9736 473.6 C 82.7016 473.6 83.3336 473.72 83.8696 473.96 C 84.4136 474.2 84.8296 474.544 85.1176 474.992 C 85.4056 475.44 85.5496 475.972 85.5496 476.588 C 85.5496 477.196 85.4056 477.728 85.1176 478.184 C 84.8296 478.632 84.4136 478.976 83.8696 479.216 C 83.3336 479.456 82.7016 479.576 81.9736 479.576 L 80.0776 479.576 L 80.0776 482 L 78.5176 482 L 78.5176 473.6 L 81.9736 473.6 Z" fill="#533EDE"/>
    <path d="M 145.428 480.8 C 145.788 480.8 146.112 480.72 146.4 480.56 C 146.688 480.392 146.916 480.156 147.084 479.852 C 147.252 479.548 147.336 479.196 147.336 478.796 C 147.336 478.396 147.252 478.044 147.084 477.74 C 146.916 477.436 146.688 477.204 146.4 477.044 C 146.112 476.876 145.788 476.792 145.428 476.792 C 145.068 476.792 144.744 476.876 144.456 477.044 C 144.168 477.204 143.94 477.436 143.772 477.74 C 143.604 478.044 143.52 478.396 143.52 478.796 C 143.52 479.196 143.604 479.548 143.772 479.852 C 143.94 480.156 144.168 480.392 144.456 480.56 C 144.744 480.72 145.068 480.8 145.428 480.8 Z" fill="#533EDE"/>
    <path d="M 148.812 473.096 L 148.812 482 L 147.372 482 L 147.372 481.172 C 147.124 481.476 146.816 481.704 146.448 481.856 C 146.088 482.008 145.688 482.084 145.248 482.084 C 144.632 482.084 144.076 481.948 143.58 481.676 C 143.092 481.404 142.708 481.02 142.428 480.524 C 142.148 480.02 142.008 479.444 142.008 478.796 C 142.008 478.148 142.148 477.576 142.428 477.08 C 142.708 476.584 143.092 476.2 143.58 475.928 C 144.076 475.656 144.632 475.52 145.248 475.52 C 145.672 475.52 146.06 475.592 146.412 475.736 C 146.764 475.88 147.064 476.096 147.312 476.384 L 147.312 473.096 L 148.812 473.096 Z" fill="#533EDE"/>
    <path d="M 137.242 476.528 C 137.674 475.856 138.434 475.52 139.522 475.52 L 139.522 476.948 C 139.394 476.924 139.278 476.912 139.174 476.912 C 138.59 476.912 138.134 477.084 137.806 477.428 C 137.478 477.764 137.314 478.252 137.314 478.892 L 137.314 482 L 135.814 482 L 135.814 475.592 L 137.242 475.592 L 137.242 476.528 Z" fill="#533EDE"/>
    <path d="M 129.16 480.8 C 129.712 480.8 130.168 480.616 130.528 480.248 C 130.888 479.88 131.068 479.396 131.068 478.796 C 131.068 478.196 130.888 477.712 130.528 477.344 C 130.168 476.976 129.712 476.792 129.16 476.792 C 128.608 476.792 128.152 476.976 127.792 477.344 C 127.44 477.712 127.264 478.196 127.264 478.796 C 127.264 479.396 127.44 479.88 127.792 480.248 C 128.152 480.616 128.608 480.8 129.16 480.8 Z" fill="#533EDE"/>
    <path d="M 129.16 482.084 C 128.512 482.084 127.928 481.944 127.408 481.664 C 126.888 481.384 126.48 480.996 126.184 480.5 C 125.896 479.996 125.752 479.428 125.752 478.796 C 125.752 478.164 125.896 477.6 126.184 477.104 C 126.48 476.608 126.888 476.22 127.408 475.94 C 127.928 475.66 128.512 475.52 129.16 475.52 C 129.816 475.52 130.404 475.66 130.924 475.94 C 131.444 476.22 131.848 476.608 132.136 477.104 C 132.432 477.6 132.58 478.164 132.58 478.796 C 132.58 479.428 132.432 479.996 132.136 480.5 C 131.848 480.996 131.444 481.384 130.924 481.664 C 130.404 481.944 129.816 482.084 129.16 482.084 Z" fill="#533EDE"/>
    <path d="M 123.624 475.592 L 121.26 482 L 119.82 482 L 118.164 477.584 L 116.484 482 L 115.044 482 L 112.692 475.592 L 114.108 475.592 L 115.8 480.32 L 117.564 475.592 L 118.824 475.592 L 120.552 480.344 L 122.292 475.592 L 123.624 475.592 Z" fill="#533EDE"/>
    <path d="M 107.75 482.084 C 107.23 482.084 106.722 482.016 106.226 481.88 C 105.73 481.744 105.334 481.572 105.038 481.364 L 105.614 480.224 C 105.902 480.416 106.246 480.572 106.646 480.692 C 107.054 480.804 107.454 480.86 107.846 480.86 C 108.742 480.86 109.19 480.624 109.19 480.152 C 109.19 479.928 109.074 479.772 108.842 479.684 C 108.618 479.596 108.254 479.512 107.75 479.432 C 107.222 479.352 106.79 479.26 106.454 479.156 C 106.126 479.052 105.838 478.872 105.59 478.616 C 105.35 478.352 105.23 477.988 105.23 477.524 C 105.23 476.916 105.482 476.432 105.986 476.072 C 106.498 475.704 107.186 475.52 108.05 475.52 C 108.49 475.52 108.93 475.572 109.37 475.676 C 109.81 475.772 110.17 475.904 110.45 476.072 L 109.874 477.212 C 109.33 476.892 108.718 476.732 108.038 476.732 C 107.598 476.732 107.262 476.8 107.03 476.936 C 106.806 477.064 106.694 477.236 106.694 477.452 C 106.694 477.692 106.814 477.864 107.054 477.968 C 107.302 478.064 107.682 478.156 108.194 478.244 C 108.706 478.324 109.126 478.416 109.454 478.52 C 109.782 478.624 110.062 478.8 110.294 479.048 C 110.534 479.296 110.654 479.648 110.654 480.104 C 110.654 480.704 110.394 481.184 109.874 481.544 C 109.354 481.904 108.646 482.084 107.75 482.084 Z" fill="#533EDE"/>
    <path d="M 99.774 482.084 C 99.254 482.084 98.746 482.016 98.25 481.88 C 97.754 481.744 97.358 481.572 97.062 481.364 L 97.638 480.224 C 97.926 480.416 98.27 480.572 98.67 480.692 C 99.078 480.804 99.478 480.86 99.87 480.86 C 100.766 480.86 101.214 480.624 101.214 480.152 C 101.214 479.928 101.098 479.772 100.866 479.684 C 100.642 479.596 100.278 479.512 99.774 479.432 C 99.246 479.352 98.814 479.26 98.478 479.156 C 98.15 479.052 97.862 478.872 97.614 478.616 C 97.374 478.352 97.254 477.988 97.254 477.524 C 97.254 476.916 97.506 476.432 98.01 476.072 C 98.522 475.704 99.21 475.52 100.074 475.52 C 100.514 475.52 100.954 475.572 101.394 475.676 C 101.834 475.772 102.194 475.904 102.474 476.072 L 101.898 477.212 C 101.354 476.892 100.742 476.732 100.062 476.732 C 99.622 476.732 99.286 476.8 99.054 476.936 C 98.83 477.064 98.718 477.236 98.718 477.452 C 98.718 477.692 98.838 477.864 99.078 477.968 C 99.326 478.064 99.706 478.156 100.218 478.244 C 100.73 478.324 101.15 478.416 101.478 478.52 C 101.806 478.624 102.086 478.8 102.318 479.048 C 102.558 479.296 102.678 479.648 102.678 480.104 C 102.678 480.704 102.418 481.184 101.898 481.544 C 101.378 481.904 100.67 482.084 99.774 482.084 Z" fill="#533EDE"/>
    <path d="M 90.9489 480.992 C 91.3249 480.992 91.6569 480.908 91.9449 480.74 C 92.2409 480.564 92.4489 480.316 92.5689 479.996 L 92.5689 479.252 L 91.0209 479.252 C 90.1569 479.252 89.7249 479.536 89.7249 480.104 C 89.7249 480.376 89.8329 480.592 90.0489 480.752 C 90.2649 480.912 90.5649 480.992 90.9489 480.992 Z" fill="#533EDE"/>
    <path d="M 91.1529 475.52 C 92.0969 475.52 92.8169 475.748 93.3129 476.204 C 93.8169 476.652 94.0689 477.332 94.0689 478.244 L 94.0689 482 L 92.6529 482 L 92.6529 481.22 C 92.4689 481.5 92.2049 481.716 91.8609 481.868 C 91.5249 482.012 91.1169 482.084 90.6369 482.084 C 90.1569 482.084 89.7369 482.004 89.3769 481.844 C 89.0169 481.676 88.7369 481.448 88.5369 481.16 C 88.3449 480.864 88.2489 480.532 88.2489 480.164 C 88.2489 479.588 88.4609 479.128 88.8849 478.784 C 89.3169 478.432 89.9929 478.256 90.9129 478.256 L 92.5689 478.256 L 92.5689 478.16 C 92.5689 477.712 92.4329 477.368 92.1609 477.128 C 91.8969 476.888 91.5009 476.768 90.9729 476.768 C 90.6129 476.768 90.2569 476.824 89.9049 476.936 C 89.5609 477.048 89.2689 477.204 89.0289 477.404 L 88.4409 476.312 C 88.7769 476.056 89.1809 475.86 89.6529 475.724 C 90.1249 475.588 90.6249 475.52 91.1529 475.52 Z" fill="#533EDE"/>
    <path d="M 81.9016 478.256 C 82.5816 478.256 83.0976 478.112 83.4496 477.824 C 83.8016 477.536 83.9776 477.124 83.9776 476.588 C 83.9776 476.052 83.8016 475.64 83.4496 475.352 C 83.0976 475.064 82.5816 474.92 81.9016 474.92 L 80.0776 474.92 L 80.0776 478.256 L 81.9016 478.256 Z" fill="#533EDE"/>
    <line x1="0.5" y1="-0.5" x2="249.5" y2="-0.5" transform="matrix(1 0 0 -1 64.5403 455)" stroke="#DADADA" stroke-linecap="square"/>
    <path d="M 81.8964 225.3 C 85.1124 225.3 87.6324 226.068 89.4564 227.604 C 91.2804 229.14 92.1924 231.252 92.1924 233.94 C 92.1924 236.628 91.2804 238.74 89.4564 240.276 C 87.6324 241.788 85.1124 242.544 81.8964 242.544 L 75.1284 242.544 L 75.1284 250.5 L 72.4644 250.5 L 72.4644 225.3 L 81.8964 225.3 Z" fill="white"/>
    <path d="M 271.062 338.68 C 270.534 338.68 270.078 338.488 269.694 338.104 C 269.334 337.72 269.154 337.252 269.154 336.7 C 269.154 336.148 269.334 335.692 269.694 335.332 C 270.078 334.948 270.534 334.756 271.062 334.756 C 271.59 334.756 272.046 334.948 272.43 335.332 C 272.814 335.692 273.006 336.148 273.006 336.7 C 273.006 337.252 272.814 337.72 272.43 338.104 C 272.046 338.488 271.59 338.68 271.062 338.68 Z" fill="white"/>
    <path d="M 250.047 338.716 C 248.175 338.716 246.375 338.416 244.647 337.816 C 242.943 337.216 241.623 336.424 240.687 335.44 L 241.731 333.388 C 242.643 334.3 243.855 335.044 245.367 335.62 C 246.879 336.172 248.439 336.448 250.047 336.448 C 252.303 336.448 253.995 336.04 255.123 335.224 C 256.251 334.384 256.815 333.304 256.815 331.984 C 256.815 330.976 256.503 330.172 255.879 329.572 C 255.279 328.972 254.535 328.516 253.647 328.204 C 252.759 327.868 251.523 327.508 249.939 327.124 C 248.043 326.644 246.531 326.188 245.403 325.756 C 244.275 325.3 243.303 324.616 242.487 323.704 C 241.695 322.792 241.299 321.556 241.299 319.996 C 241.299 318.724 241.635 317.572 242.307 316.54 C 242.979 315.484 244.011 314.644 245.403 314.02 C 246.795 313.396 248.523 313.084 250.587 313.084 C 252.027 313.084 253.431 313.288 254.799 313.696 C 256.191 314.08 257.391 314.62 258.399 315.316 L 257.499 317.44 C 256.443 316.744 255.315 316.228 254.115 315.892 C 252.915 315.532 251.739 315.352 250.587 315.352 C 248.379 315.352 246.711 315.784 245.583 316.648 C 244.479 317.488 243.927 318.58 243.927 319.924 C 243.927 320.932 244.227 321.748 244.827 322.372 C 245.451 322.972 246.219 323.44 247.131 323.776 C 248.067 324.088 249.315 324.436 250.875 324.82 C 252.723 325.276 254.211 325.732 255.339 326.188 C 256.491 326.62 257.463 327.292 258.255 328.204 C 259.047 329.092 259.443 330.304 259.443 331.84 C 259.443 333.112 259.095 334.276 258.399 335.332 C 257.727 336.364 256.683 337.192 255.267 337.816 C 253.851 338.416 252.111 338.716 250.047 338.716 Z" fill="white"/>
    <path d="M 219.339 338.716 C 216.075 338.716 213.531 337.78 211.707 335.908 C 209.883 334.036 208.971 331.312 208.971 327.736 L 208.971 313.3 L 211.635 313.3 L 211.635 327.628 C 211.635 330.556 212.295 332.74 213.615 334.18 C 214.935 335.62 216.843 336.34 219.339 336.34 C 221.859 336.34 223.779 335.62 225.099 334.18 C 226.419 332.74 227.079 330.556 227.079 327.628 L 227.079 313.3 L 229.671 313.3 L 229.671 327.736 C 229.671 331.312 228.759 334.036 226.935 335.908 C 225.135 337.78 222.603 338.716 219.339 338.716 Z" fill="white"/>
    <path d="M 180.74 313.3 L 180.74 338.5 L 178.112 338.5 L 178.112 326.872 L 162.344 326.872 L 162.344 338.5 L 159.68 338.5 L 159.68 313.3 L 162.344 313.3 L 162.344 324.532 L 178.112 324.532 L 178.112 313.3 L 180.74 313.3 Z" fill="white"/>
    <path d="M 138.504 315.604 L 129.648 315.604 L 129.648 313.3 L 150.024 313.3 L 150.024 315.604 L 141.168 315.604 L 141.168 338.5 L 138.504 338.5 L 138.504 315.604 Z" fill="white"/>
    <path d="M 117.345 313.3 L 120.009 313.3 L 120.009 338.5 L 117.345 338.5 L 117.345 313.3 Z" fill="white"/>
    <path d="M 107.06 313.3 L 98.5644 338.5 L 95.7564 338.5 L 88.3764 317.008 L 80.96039999999999 338.5 L 78.1884 338.5 L 69.6924 313.3 L 72.4284 313.3 L 79.7004 334.972 L 87.2244 313.3 L 89.7084 313.3 L 97.1244 335.08 L 104.504 313.3 L 107.06 313.3 Z" fill="white"/>
    <path d="M 319.742 285.608 L 313.694 272.072 L 307.646 285.608 L 319.742 285.608 Z" fill="white"/>
    <path d="M 320.714 287.768 L 306.674 287.768 L 303.65 294.5 L 300.878 294.5 L 312.398 269.3 L 315.026 269.3 L 326.546 294.5 L 323.738 294.5 L 320.714 287.768 Z" fill="white"/>
    <path d="M 285 271.604 L 276.144 271.604 L 276.144 269.3 L 296.52 269.3 L 296.52 271.604 L 287.664 271.604 L 287.664 294.5 L 285 294.5 L 285 271.604 Z" fill="white"/>
    <path d="M 264.997 285.608 L 258.949 272.072 L 252.901 285.608 L 264.997 285.608 Z" fill="white"/>
    <path d="M 265.969 287.768 L 251.929 287.768 L 248.905 294.5 L 246.133 294.5 L 257.653 269.3 L 260.281 269.3 L 271.801 294.5 L 268.993 294.5 L 265.969 287.768 Z" fill="white"/>
    <path d="M 225.491 292.196 C 227.699 292.196 229.631 291.764 231.287 290.9 C 232.943 290.012 234.227 288.8 235.139 287.264 C 236.051 285.704 236.507 283.916 236.507 281.9 C 236.507 279.884 236.051 278.108 235.139 276.572 C 234.227 275.012 232.943 273.8 231.287 272.936 C 229.631 272.048 227.699 271.604 225.491 271.604 L 218.039 271.604 L 218.039 292.196 L 225.491 292.196 Z" fill="white"/>
    <path d="M 215.375 269.3 L 225.635 269.3 C 228.299 269.3 230.651 269.84 232.691 270.92 C 234.731 271.976 236.315 273.464 237.443 275.384 C 238.571 277.28 239.135 279.452 239.135 281.9 C 239.135 284.348 238.571 286.532 237.443 288.452 C 236.315 290.348 234.731 291.836 232.691 292.916 C 230.651 293.972 228.299 294.5 225.635 294.5 L 215.375 294.5 L 215.375 269.3 Z" fill="white"/>
    <path d="M 178.497 284.24 C 180.993 284.24 182.901 283.688 184.221 282.584 C 185.541 281.48 186.201 279.932 186.201 277.94 C 186.201 275.9 185.541 274.34 184.221 273.26 C 182.901 272.156 180.993 271.604 178.497 271.604 L 171.801 271.604 L 171.801 284.24 L 178.497 284.24 Z" fill="white"/>
    <path d="M 186.345 294.5 L 180.585 286.4 C 179.937 286.472 179.265 286.508 178.569 286.508 L 171.801 286.508 L 171.801 294.5 L 169.137 294.5 L 169.137 269.3 L 178.569 269.3 C 181.785 269.3 184.305 270.068 186.129 271.604 C 187.953 273.14 188.865 275.252 188.865 277.94 C 188.865 279.908 188.361 281.576 187.353 282.944 C 186.369 284.288 184.953 285.26 183.105 285.86 L 189.261 294.5 L 186.345 294.5 Z" fill="white"/>
    <path d="M 145.377 294.716 C 142.113 294.716 139.569 293.78 137.745 291.908 C 135.921 290.036 135.009 287.312 135.009 283.736 L 135.009 269.3 L 137.673 269.3 L 137.673 283.628 C 137.673 286.556 138.333 288.74 139.653 290.18 C 140.973 291.62 142.881 292.34 145.377 292.34 C 147.897 292.34 149.817 291.62 151.137 290.18 C 152.457 288.74 153.117 286.556 153.117 283.628 L 153.117 269.3 L 155.709 269.3 L 155.709 283.736 C 155.709 287.312 154.797 290.036 152.973 291.908 C 151.173 293.78 148.641 294.716 145.377 294.716 Z" fill="white"/>
    <path d="M 110.642 292.34 C 112.634 292.34 114.434 291.896 116.042 291.008 C 117.65 290.096 118.91 288.848 119.822 287.264 C 120.734 285.656 121.19 283.868 121.19 281.9 C 121.19 279.932 120.734 278.156 119.822 276.572 C 118.91 274.964 117.65 273.716 116.042 272.828 C 114.434 271.916 112.634 271.46 110.642 271.46 C 108.65 271.46 106.838 271.916 105.206 272.828 C 103.598 273.716 102.326 274.964 101.39 276.572 C 100.478 278.156 100.022 279.932 100.022 281.9 C 100.022 283.868 100.478 285.656 101.39 287.264 C 102.326 288.848 103.598 290.096 105.206 291.008 C 106.838 291.896 108.65 292.34 110.642 292.34 Z" fill="white"/>
    <path d="M 110.642 294.716 C 108.146 294.716 105.878 294.164 103.838 293.06 C 101.822 291.932 100.238 290.396 99.0861 288.452 C 97.9581 286.508 97.3941 284.324 97.3941 281.9 C 97.3941 279.476 97.9581 277.292 99.0861 275.348 C 100.238 273.404 101.822 271.88 103.838 270.776 C 105.878 269.648 108.146 269.084 110.642 269.084 C 113.138 269.084 115.382 269.636 117.374 270.74 C 119.39 271.844 120.974 273.38 122.126 275.348 C 123.278 277.292 123.854 279.476 123.854 281.9 C 123.854 284.324 123.278 286.52 122.126 288.488 C 120.974 290.432 119.39 291.956 117.374 293.06 C 115.382 294.164 113.138 294.716 110.642 294.716 Z" fill="white"/>
    <path d="M 81.1044 285.788 L 81.1044 294.5 L 78.4764 294.5 L 78.4764 285.788 L 68.3964 269.3 L 71.2404 269.3 L 79.8804 283.448 L 88.5204 269.3 L 91.1844 269.3 L 81.1044 285.788 Z" fill="white"/>
    <path d="M 261.284 227.604 L 252.428 227.604 L 252.428 225.3 L 272.804 225.3 L 272.804 227.604 L 263.948 227.604 L 263.948 250.5 L 261.284 250.5 L 261.284 227.604 Z" fill="white"/>
    <path d="M 236.373 250.716 C 233.877 250.716 231.621 250.164 229.605 249.06 C 227.613 247.956 226.041 246.432 224.889 244.488 C 223.761 242.52 223.197 240.324 223.197 237.9 C 223.197 235.476 223.761 233.292 224.889 231.348 C 226.041 229.38 227.625 227.844 229.641 226.74 C 231.657 225.636 233.913 225.084 236.409 225.084 C 238.281 225.084 240.009 225.396 241.593 226.02 C 243.177 226.644 244.521 227.556 245.625 228.756 L 243.933 230.448 C 241.965 228.456 239.481 227.46 236.481 227.46 C 234.489 227.46 232.677 227.916 231.045 228.828 C 229.413 229.74 228.129 230.988 227.193 232.572 C 226.281 234.156 225.825 235.932 225.825 237.9 C 225.825 239.868 226.281 241.644 227.193 243.228 C 228.129 244.812 229.413 246.06 231.045 246.972 C 232.677 247.884 234.489 248.34 236.481 248.34 C 239.505 248.34 241.989 247.332 243.933 245.316 L 245.625 247.008 C 244.521 248.208 243.165 249.132 241.557 249.78 C 239.973 250.404 238.245 250.716 236.373 250.716 Z" fill="white"/>
    <path d="M 213.908 248.196 L 213.908 250.5 L 196.088 250.5 L 196.088 225.3 L 213.368 225.3 L 213.368 227.604 L 198.752 227.604 L 198.752 236.568 L 211.784 236.568 L 211.784 238.836 L 198.752 238.836 L 198.752 248.196 L 213.908 248.196 Z" fill="white"/>
    <path d="M 174.912 227.604 L 166.056 227.604 L 166.056 225.3 L 186.432 225.3 L 186.432 227.604 L 177.576 227.604 L 177.576 250.5 L 174.912 250.5 L 174.912 227.604 Z" fill="white"/>
    <path d="M 145.784 248.34 C 147.776 248.34 149.576 247.896 151.184 247.008 C 152.792 246.096 154.052 244.848 154.964 243.264 C 155.876 241.656 156.332 239.868 156.332 237.9 C 156.332 235.932 155.876 234.156 154.964 232.572 C 154.052 230.964 152.792 229.716 151.184 228.828 C 149.576 227.916 147.776 227.46 145.784 227.46 C 143.792 227.46 141.98 227.916 140.348 228.828 C 138.74 229.716 137.468 230.964 136.532 232.572 C 135.62 234.156 135.164 235.932 135.164 237.9 C 135.164 239.868 135.62 241.656 136.532 243.264 C 137.468 244.848 138.74 246.096 140.348 247.008 C 141.98 247.896 143.792 248.34 145.784 248.34 Z" fill="white"/>
    <path d="M 145.784 250.716 C 143.288 250.716 141.02 250.164 138.98 249.06 C 136.964 247.932 135.38 246.396 134.228 244.452 C 133.1 242.508 132.536 240.324 132.536 237.9 C 132.536 235.476 133.1 233.292 134.228 231.348 C 135.38 229.404 136.964 227.88 138.98 226.776 C 141.02 225.648 143.288 225.084 145.784 225.084 C 148.28 225.084 150.524 225.636 152.516 226.74 C 154.532 227.844 156.116 229.38 157.268 231.348 C 158.42 233.292 158.996 235.476 158.996 237.9 C 158.996 240.324 158.42 242.52 157.268 244.488 C 156.116 246.432 154.532 247.956 152.516 249.06 C 150.524 250.164 148.28 250.716 145.784 250.716 Z" fill="white"/>
    <path d="M 112.713 240.24 C 115.209 240.24 117.117 239.688 118.437 238.584 C 119.757 237.48 120.417 235.932 120.417 233.94 C 120.417 231.9 119.757 230.34 118.437 229.26 C 117.117 228.156 115.209 227.604 112.713 227.604 L 106.017 227.604 L 106.017 240.24 L 112.713 240.24 Z" fill="white"/>
    <path d="M 120.561 250.5 L 114.801 242.4 C 114.153 242.472 113.481 242.508 112.785 242.508 L 106.017 242.508 L 106.017 250.5 L 103.353 250.5 L 103.353 225.3 L 112.785 225.3 C 116.001 225.3 118.521 226.068 120.345 227.604 C 122.169 229.14 123.081 231.252 123.081 233.94 C 123.081 235.908 122.577 237.576 121.569 238.944 C 120.585 240.288 119.169 241.26 117.321 241.86 L 123.477 250.5 L 120.561 250.5 Z" fill="white"/>
    <path d="M 81.8244 240.204 C 84.3204 240.204 86.2284 239.664 87.5484 238.584 C 88.8684 237.48 89.5284 235.932 89.5284 233.94 C 89.5284 231.9 88.8684 230.34 87.5484 229.26 C 86.2284 228.156 84.3204 227.604 81.8244 227.604 L 75.1284 227.604 L 75.1284 240.204 L 81.8244 240.204 Z" fill="white"/>
    <path d="M 75.1044 367.916 L 75.1044 369.5 L 68.7564 369.5 L 68.7564 368.24 L 71.9964 365.18 C 72.3404 364.852 72.5724 364.572 72.6924 364.34 C 72.8124 364.1 72.8724 363.864 72.8724 363.632 C 72.8724 363.296 72.7564 363.04 72.5244 362.864 C 72.3004 362.68 71.9684 362.588 71.5284 362.588 C 71.1604 362.588 70.8284 362.66 70.5324 362.804 C 70.2364 362.94 69.9884 363.148 69.7884 363.428 L 68.3724 362.516 C 68.7004 362.028 69.1524 361.648 69.7284 361.376 C 70.3044 361.096 70.9644 360.956 71.7084 360.956 C 72.3324 360.956 72.8764 361.06 73.3404 361.268 C 73.8124 361.468 74.1764 361.756 74.4324 362.132 C 74.6964 362.5 74.8284 362.936 74.8284 363.44 C 74.8284 363.896 74.7324 364.324 74.5404 364.724 C 74.3484 365.124 73.9764 365.58 73.4244 366.092 L 71.4924 367.916 L 75.1044 367.916 Z" fill="white"/>
    <path d="M 275.791 369.56 C 275.615 369.56 275.463 369.5 275.335 369.38 C 275.215 369.252 275.155 369.104 275.155 368.936 C 275.155 368.76 275.215 368.616 275.335 368.504 C 275.455 368.384 275.607 368.324 275.791 368.324 C 275.967 368.324 276.115 368.384 276.235 368.504 C 276.355 368.616 276.415 368.76 276.415 368.936 C 276.415 369.104 276.355 369.252 276.235 369.38 C 276.115 369.5 275.967 369.56 275.791 369.56 Z" fill="white"/>
    <path d="M 275.287 361.1 L 276.295 361.1 L 276.115 366.98 L 275.455 366.98 L 275.287 361.1 Z" fill="white"/>
    <path d="M 269.44 369.56 C 268.928 369.56 268.436 369.488 267.964 369.344 C 267.5 369.192 267.136 369.004 266.872 368.78 L 267.256 368.108 C 267.52 368.316 267.852 368.488 268.252 368.624 C 268.652 368.752 269.068 368.816 269.5 368.816 C 270.076 368.816 270.5 368.728 270.772 368.552 C 271.052 368.368 271.192 368.112 271.192 367.784 C 271.192 367.552 271.116 367.372 270.964 367.244 C 270.812 367.108 270.62 367.008 270.388 366.944 C 270.156 366.872 269.848 366.804 269.464 366.74 C 268.952 366.644 268.54 366.548 268.228 366.452 C 267.916 366.348 267.648 366.176 267.424 365.936 C 267.208 365.696 267.1 365.364 267.1 364.94 C 267.1 364.412 267.32 363.98 267.76 363.644 C 268.2 363.308 268.812 363.14 269.596 363.14 C 270.004 363.14 270.412 363.196 270.82 363.308 C 271.228 363.412 271.564 363.552 271.828 363.728 L 271.456 364.412 C 270.936 364.052 270.316 363.872 269.596 363.872 C 269.052 363.872 268.64 363.968 268.36 364.16 C 268.088 364.352 267.952 364.604 267.952 364.916 C 267.952 365.156 268.028 365.348 268.18 365.492 C 268.34 365.636 268.536 365.744 268.768 365.816 C 269 365.88 269.32 365.948 269.728 366.02 C 270.232 366.116 270.636 366.212 270.94 366.308 C 271.244 366.404 271.504 366.568 271.72 366.8 C 271.936 367.032 272.044 367.352 272.044 367.76 C 272.044 368.312 271.812 368.752 271.348 369.08 C 270.892 369.4 270.256 369.56 269.44 369.56 Z" fill="white"/>
    <path d="M 263.561 363.188 L 263.561 369.5 L 262.745 369.5 L 262.745 368.348 C 262.521 368.732 262.213 369.032 261.821 369.248 C 261.429 369.456 260.981 369.56 260.477 369.56 C 259.653 369.56 259.001 369.332 258.521 368.876 C 258.049 368.412 257.813 367.736 257.813 366.848 L 257.813 363.188 L 258.665 363.188 L 258.665 366.764 C 258.665 367.428 258.829 367.932 259.157 368.276 C 259.485 368.62 259.953 368.792 260.561 368.792 C 261.225 368.792 261.749 368.592 262.133 368.192 C 262.517 367.784 262.709 367.22 262.709 366.5 L 262.709 363.188 L 263.561 363.188 Z" fill="white"/>
    <path d="M 249.582 369.116 C 249.422 369.26 249.222 369.372 248.982 369.452 C 248.75 369.524 248.506 369.56 248.25 369.56 C 247.658 369.56 247.202 369.4 246.882 369.08 C 246.562 368.76 246.402 368.308 246.402 367.724 L 246.402 363.908 L 245.274 363.908 L 245.274 363.188 L 246.402 363.188 L 246.402 361.808 L 247.254 361.808 L 247.254 363.188 L 249.174 363.188 L 249.174 363.908 L 247.254 363.908 L 247.254 367.676 C 247.254 368.052 247.346 368.34 247.53 368.54 C 247.722 368.732 247.994 368.828 248.346 368.828 C 248.522 368.828 248.69 368.8 248.85 368.744 C 249.018 368.688 249.162 368.608 249.282 368.504 L 249.582 369.116 Z" fill="white"/>
    <path d="M 240.279 369.56 C 239.767 369.56 239.275 369.488 238.803 369.344 C 238.339 369.192 237.975 369.004 237.711 368.78 L 238.095 368.108 C 238.359 368.316 238.691 368.488 239.091 368.624 C 239.491 368.752 239.907 368.816 240.339 368.816 C 240.915 368.816 241.339 368.728 241.611 368.552 C 241.891 368.368 242.031 368.112 242.031 367.784 C 242.031 367.552 241.955 367.372 241.803 367.244 C 241.651 367.108 241.459 367.008 241.227 366.944 C 240.995 366.872 240.687 366.804 240.303 366.74 C 239.791 366.644 239.379 366.548 239.067 366.452 C 238.755 366.348 238.487 366.176 238.263 365.936 C 238.047 365.696 237.939 365.364 237.939 364.94 C 237.939 364.412 238.159 363.98 238.599 363.644 C 239.039 363.308 239.651 363.14 240.435 363.14 C 240.843 363.14 241.251 363.196 241.659 363.308 C 242.067 363.412 242.403 363.552 242.667 363.728 L 242.295 364.412 C 241.775 364.052 241.155 363.872 240.435 363.872 C 239.891 363.872 239.479 363.968 239.199 364.16 C 238.927 364.352 238.791 364.604 238.791 364.916 C 238.791 365.156 238.867 365.348 239.019 365.492 C 239.179 365.636 239.375 365.744 239.607 365.816 C 239.839 365.88 240.159 365.948 240.567 366.02 C 241.071 366.116 241.475 366.212 241.779 366.308 C 242.083 366.404 242.343 366.568 242.559 366.8 C 242.775 367.032 242.883 367.352 242.883 367.76 C 242.883 368.312 242.651 368.752 242.187 369.08 C 241.731 369.4 241.095 369.56 240.279 369.56 Z" fill="white"/>
    <path d="M 234.4 363.188 L 234.4 369.5 L 233.584 369.5 L 233.584 368.348 C 233.36 368.732 233.052 369.032 232.66 369.248 C 232.268 369.456 231.82 369.56 231.316 369.56 C 230.492 369.56 229.84 369.332 229.36 368.876 C 228.888 368.412 228.652 367.736 228.652 366.848 L 228.652 363.188 L 229.504 363.188 L 229.504 366.764 C 229.504 367.428 229.668 367.932 229.996 368.276 C 230.324 368.62 230.792 368.792 231.4 368.792 C 232.064 368.792 232.588 368.592 232.972 368.192 C 233.356 367.784 233.548 367.22 233.548 366.5 L 233.548 363.188 L 234.4 363.188 Z" fill="white"/>
    <path d="M 222.912 364.424 C 223.112 364 223.408 363.68 223.8 363.464 C 224.2 363.248 224.692 363.14 225.276 363.14 L 225.276 363.968 L 225.072 363.956 C 224.408 363.956 223.888 364.16 223.512 364.568 C 223.136 364.976 222.948 365.548 222.948 366.284 L 222.948 369.5 L 222.096 369.5 L 222.096 363.188 L 222.912 363.188 L 222.912 364.424 Z" fill="white"/>
    <path d="M 218.745 369.116 C 218.585 369.26 218.385 369.372 218.145 369.452 C 217.913 369.524 217.669 369.56 217.413 369.56 C 216.821 369.56 216.365 369.4 216.045 369.08 C 215.725 368.76 215.565 368.308 215.565 367.724 L 215.565 363.908 L 214.437 363.908 L 214.437 363.188 L 215.565 363.188 L 215.565 361.808 L 216.417 361.808 L 216.417 363.188 L 218.337 363.188 L 218.337 363.908 L 216.417 363.908 L 216.417 367.676 C 216.417 368.052 216.509 368.34 216.693 368.54 C 216.885 368.732 217.157 368.828 217.509 368.828 C 217.685 368.828 217.853 368.8 218.013 368.744 C 218.181 368.688 218.325 368.608 218.445 368.504 L 218.745 369.116 Z" fill="white"/>
    <path d="M 203.886 363.872 C 203.278 363.872 202.766 364.068 202.35 364.46 C 201.942 364.844 201.71 365.348 201.654 365.972 L 206.13 365.972 C 206.074 365.348 205.838 364.844 205.422 364.46 C 205.014 364.068 204.502 363.872 203.886 363.872 Z" fill="white"/>
    <path d="M 206.934 366.608 L 201.654 366.608 C 201.702 367.264 201.954 367.796 202.41 368.204 C 202.866 368.604 203.442 368.804 204.138 368.804 C 204.53 368.804 204.89 368.736 205.218 368.6 C 205.546 368.456 205.83 368.248 206.07 367.976 L 206.55 368.528 C 206.27 368.864 205.918 369.12 205.494 369.296 C 205.078 369.472 204.618 369.56 204.114 369.56 C 203.466 369.56 202.89 369.424 202.386 369.152 C 201.89 368.872 201.502 368.488 201.222 368 C 200.942 367.512 200.802 366.96 200.802 366.344 C 200.802 365.728 200.934 365.176 201.198 364.688 C 201.47 364.2 201.838 363.82 202.302 363.548 C 202.774 363.276 203.302 363.14 203.886 363.14 C 204.47 363.14 204.994 363.276 205.458 363.548 C 205.922 363.82 206.286 364.2 206.55 364.688 C 206.814 365.168 206.946 365.72 206.946 366.344 L 206.934 366.608 Z" fill="white"/>
    <path d="M 196.416 360.596 L 197.268 360.596 L 197.268 369.5 L 196.416 369.5 L 196.416 360.596 Z" fill="white"/>
    <path d="M 189.675 368.804 C 190.115 368.804 190.515 368.704 190.875 368.504 C 191.235 368.296 191.515 368.004 191.715 367.628 C 191.923 367.252 192.027 366.824 192.027 366.344 C 192.027 365.864 191.923 365.44 191.715 365.072 C 191.515 364.696 191.235 364.404 190.875 364.196 C 190.515 363.988 190.115 363.884 189.675 363.884 C 189.227 363.884 188.823 363.988 188.463 364.196 C 188.111 364.404 187.831 364.696 187.623 365.072 C 187.423 365.44 187.323 365.864 187.323 366.344 C 187.323 366.824 187.423 367.252 187.623 367.628 C 187.831 368.004 188.111 368.296 188.463 368.504 C 188.823 368.704 189.227 368.804 189.675 368.804 Z" fill="white"/>
    <path d="M 189.735 363.14 C 190.327 363.14 190.863 363.276 191.343 363.548 C 191.823 363.812 192.199 364.188 192.471 364.676 C 192.743 365.164 192.879 365.72 192.879 366.344 C 192.879 366.976 192.743 367.536 192.471 368.024 C 192.199 368.512 191.823 368.892 191.343 369.164 C 190.871 369.428 190.335 369.56 189.735 369.56 C 189.223 369.56 188.759 369.456 188.343 369.248 C 187.935 369.032 187.599 368.72 187.335 368.312 L 187.335 371.828 L 186.483 371.828 L 186.483 363.188 L 187.299 363.188 L 187.299 364.436 C 187.555 364.02 187.891 363.7 188.307 363.476 C 188.731 363.252 189.207 363.14 189.735 363.14 Z" fill="white"/>
    <path d="M 179.739 368.804 C 180.187 368.804 180.587 368.704 180.939 368.504 C 181.299 368.296 181.579 368.004 181.779 367.628 C 181.979 367.252 182.079 366.824 182.079 366.344 C 182.079 365.864 181.979 365.436 181.779 365.06 C 181.579 364.684 181.299 364.396 180.939 364.196 C 180.587 363.988 180.187 363.884 179.739 363.884 C 179.291 363.884 178.887 363.988 178.527 364.196 C 178.175 364.396 177.895 364.684 177.687 365.06 C 177.487 365.436 177.387 365.864 177.387 366.344 C 177.387 366.824 177.487 367.252 177.687 367.628 C 177.895 368.004 178.175 368.296 178.527 368.504 C 178.887 368.704 179.291 368.804 179.739 368.804 Z" fill="white"/>
    <path d="M 179.739 369.56 C 179.131 369.56 178.583 369.424 178.095 369.152 C 177.607 368.872 177.223 368.488 176.943 368 C 176.663 367.512 176.523 366.96 176.523 366.344 C 176.523 365.728 176.663 365.176 176.943 364.688 C 177.223 364.2 177.607 363.82 178.095 363.548 C 178.583 363.276 179.131 363.14 179.739 363.14 C 180.347 363.14 180.895 363.276 181.383 363.548 C 181.871 363.82 182.251 364.2 182.523 364.688 C 182.803 365.176 182.943 365.728 182.943 366.344 C 182.943 366.96 182.803 367.512 182.523 368 C 182.251 368.488 181.871 368.872 181.383 369.152 C 180.895 369.424 180.347 369.56 179.739 369.56 Z" fill="white"/>
    <path d="M 170.565 363.872 C 169.957 363.872 169.445 364.068 169.029 364.46 C 168.621 364.844 168.389 365.348 168.333 365.972 L 172.809 365.972 C 172.753 365.348 172.517 364.844 172.101 364.46 C 171.693 364.068 171.181 363.872 170.565 363.872 Z" fill="white"/>
    <path d="M 173.613 366.608 L 168.333 366.608 C 168.381 367.264 168.633 367.796 169.089 368.204 C 169.545 368.604 170.121 368.804 170.817 368.804 C 171.209 368.804 171.569 368.736 171.897 368.6 C 172.225 368.456 172.509 368.248 172.749 367.976 L 173.229 368.528 C 172.949 368.864 172.597 369.12 172.173 369.296 C 171.757 369.472 171.297 369.56 170.793 369.56 C 170.145 369.56 169.569 369.424 169.065 369.152 C 168.569 368.872 168.181 368.488 167.901 368 C 167.621 367.512 167.481 366.96 167.481 366.344 C 167.481 365.728 167.613 365.176 167.877 364.688 C 168.149 364.2 168.517 363.82 168.981 363.548 C 169.453 363.276 169.981 363.14 170.565 363.14 C 171.149 363.14 171.673 363.276 172.137 363.548 C 172.601 363.82 172.965 364.2 173.229 364.688 C 173.493 365.168 173.625 365.72 173.625 366.344 L 173.613 366.608 Z" fill="white"/>
    <path d="M 161.156 366.068 C 161.988 366.068 162.624 365.888 163.064 365.528 C 163.504 365.16 163.724 364.644 163.724 363.98 C 163.724 363.3 163.504 362.78 163.064 362.42 C 162.624 362.052 161.988 361.868 161.156 361.868 L 158.924 361.868 L 158.924 366.068 L 161.156 366.068 Z" fill="white"/>
    <path d="M 161.18 361.1 C 162.252 361.1 163.092 361.356 163.7 361.868 C 164.308 362.38 164.612 363.084 164.612 363.98 C 164.612 364.876 164.308 365.58 163.7 366.092 C 163.092 366.596 162.252 366.848 161.18 366.848 L 158.924 366.848 L 158.924 369.5 L 158.036 369.5 L 158.036 361.1 L 161.18 361.1 Z" fill="white"/>
    <path d="M 149.814 367.736 L 148.446 367.736 L 148.446 369.5 L 146.55 369.5 L 146.55 367.736 L 142.026 367.736 L 142.026 366.428 L 145.986 361.1 L 148.026 361.1 L 144.354 366.152 L 146.61 366.152 L 146.61 364.58 L 148.446 364.58 L 148.446 366.152 L 149.814 366.152 L 149.814 367.736 Z" fill="white"/>
    <path d="M 135.778 368 C 136.29 368 136.69 367.78 136.978 367.34 C 137.274 366.9 137.422 366.22 137.422 365.3 C 137.422 364.38 137.274 363.7 136.978 363.26 C 136.69 362.82 136.29 362.6 135.778 362.6 C 135.274 362.6 134.874 362.82 134.578 363.26 C 134.29 363.7 134.146 364.38 134.146 365.3 C 134.146 366.22 134.29 366.9 134.578 367.34 C 134.874 367.78 135.274 368 135.778 368 Z" fill="white"/>
    <path d="M 135.778 369.644 C 135.082 369.644 134.462 369.472 133.918 369.128 C 133.374 368.784 132.946 368.288 132.634 367.64 C 132.33 366.984 132.178 366.204 132.178 365.3 C 132.178 364.396 132.33 363.62 132.634 362.972 C 132.946 362.316 133.374 361.816 133.918 361.472 C 134.462 361.128 135.082 360.956 135.778 360.956 C 136.474 360.956 137.094 361.128 137.638 361.472 C 138.182 361.816 138.606 362.316 138.91 362.972 C 139.222 363.62 139.378 364.396 139.378 365.3 C 139.378 366.204 139.222 366.984 138.91 367.64 C 138.606 368.288 138.182 368.784 137.638 369.128 C 137.094 369.472 136.474 369.644 135.778 369.644 Z" fill="white"/>
    <path d="M 128.493 369.596 C 128.165 369.596 127.889 369.484 127.665 369.26 C 127.441 369.036 127.329 368.756 127.329 368.42 C 127.329 368.076 127.441 367.8 127.665 367.592 C 127.889 367.376 128.165 367.268 128.493 367.268 C 128.821 367.268 129.097 367.376 129.321 367.592 C 129.545 367.8 129.657 368.076 129.657 368.42 C 129.657 368.756 129.545 369.036 129.321 369.26 C 129.097 369.484 128.821 369.596 128.493 369.596 Z" fill="white"/>
    <path d="M 121.197 368 C 121.709 368 122.109 367.78 122.397 367.34 C 122.693 366.9 122.841 366.22 122.841 365.3 C 122.841 364.38 122.693 363.7 122.397 363.26 C 122.109 362.82 121.709 362.6 121.197 362.6 C 120.693 362.6 120.293 362.82 119.997 363.26 C 119.709 363.7 119.565 364.38 119.565 365.3 C 119.565 366.22 119.709 366.9 119.997 367.34 C 120.293 367.78 120.693 368 121.197 368 Z" fill="white"/>
    <path d="M 121.197 369.644 C 120.501 369.644 119.881 369.472 119.337 369.128 C 118.793 368.784 118.365 368.288 118.053 367.64 C 117.749 366.984 117.597 366.204 117.597 365.3 C 117.597 364.396 117.749 363.62 118.053 362.972 C 118.365 362.316 118.793 361.816 119.337 361.472 C 119.881 361.128 120.501 360.956 121.197 360.956 C 121.893 360.956 122.513 361.128 123.057 361.472 C 123.601 361.816 124.025 362.316 124.329 362.972 C 124.641 363.62 124.797 364.396 124.797 365.3 C 124.797 366.204 124.641 366.984 124.329 367.64 C 124.025 368.288 123.601 368.784 123.057 369.128 C 122.513 369.472 121.893 369.644 121.197 369.644 Z" fill="white"/>
    <path d="M 111.253 368 C 111.765 368 112.165 367.78 112.453 367.34 C 112.749 366.9 112.897 366.22 112.897 365.3 C 112.897 364.38 112.749 363.7 112.453 363.26 C 112.165 362.82 111.765 362.6 111.253 362.6 C 110.749 362.6 110.349 362.82 110.053 363.26 C 109.765 363.7 109.621 364.38 109.621 365.3 C 109.621 366.22 109.765 366.9 110.053 367.34 C 110.349 367.78 110.749 368 111.253 368 Z" fill="white"/>
    <path d="M 111.253 369.644 C 110.557 369.644 109.937 369.472 109.393 369.128 C 108.849 368.784 108.421 368.288 108.109 367.64 C 107.805 366.984 107.653 366.204 107.653 365.3 C 107.653 364.396 107.805 363.62 108.109 362.972 C 108.421 362.316 108.849 361.816 109.393 361.472 C 109.937 361.128 110.557 360.956 111.253 360.956 C 111.949 360.956 112.569 361.128 113.113 361.472 C 113.657 361.816 114.081 362.316 114.385 362.972 C 114.697 363.62 114.853 364.396 114.853 365.3 C 114.853 366.204 114.697 366.984 114.385 367.64 C 114.081 368.288 113.657 368.784 113.113 369.128 C 112.569 369.472 111.949 369.644 111.253 369.644 Z" fill="white"/>
    <path d="M 104.393 361.1 L 104.393 369.5 L 102.449 369.5 L 102.449 362.66 L 100.769 362.66 L 100.769 361.1 L 104.393 361.1 Z" fill="white"/>
    <path d="M 97.5162 367.268 C 97.8522 367.268 98.1282 367.376 98.3442 367.592 C 98.5602 367.8 98.6682 368.076 98.6682 368.42 C 98.6682 368.58 98.6482 368.74 98.6082 368.9 C 98.5682 369.06 98.4802 369.3 98.3442 369.62 L 97.6602 371.348 L 96.4722 371.348 L 97.0002 369.44 C 96.8002 369.36 96.6402 369.232 96.5202 369.056 C 96.4082 368.872 96.3522 368.66 96.3522 368.42 C 96.3522 368.076 96.4602 367.8 96.6762 367.592 C 96.9002 367.376 97.1802 367.268 97.5162 367.268 Z" fill="white"/>
    <path d="M 90.208 368 C 90.72 368 91.12 367.78 91.408 367.34 C 91.704 366.9 91.852 366.22 91.852 365.3 C 91.852 364.38 91.704 363.7 91.408 363.26 C 91.12 362.82 90.72 362.6 90.208 362.6 C 89.704 362.6 89.304 362.82 89.008 363.26 C 88.72 363.7 88.576 364.38 88.576 365.3 C 88.576 366.22 88.72 366.9 89.008 367.34 C 89.304 367.78 89.704 368 90.208 368 Z" fill="white"/>
    <path d="M 90.208 369.644 C 89.512 369.644 88.892 369.472 88.348 369.128 C 87.804 368.784 87.376 368.288 87.064 367.64 C 86.76 366.984 86.608 366.204 86.608 365.3 C 86.608 364.396 86.76 363.62 87.064 362.972 C 87.376 362.316 87.804 361.816 88.348 361.472 C 88.892 361.128 89.512 360.956 90.208 360.956 C 90.904 360.956 91.524 361.128 92.068 361.472 C 92.612 361.816 93.036 362.316 93.34 362.972 C 93.652 363.62 93.808 364.396 93.808 365.3 C 93.808 366.204 93.652 366.984 93.34 367.64 C 93.036 368.288 92.612 368.784 92.068 369.128 C 91.524 369.472 90.904 369.644 90.208 369.644 Z" fill="white"/>
    <path d="M 81.6305 364.52 C 82.3665 364.64 82.9305 364.916 83.3225 365.348 C 83.7145 365.772 83.9105 366.3 83.9105 366.932 C 83.9105 367.42 83.7825 367.872 83.5265 368.288 C 83.2705 368.696 82.8785 369.024 82.3505 369.272 C 81.8305 369.52 81.1905 369.644 80.4305 369.644 C 79.8385 369.644 79.2545 369.568 78.6785 369.416 C 78.1105 369.256 77.6265 369.032 77.2265 368.744 L 77.9825 367.256 C 78.3025 367.496 78.6705 367.684 79.0865 367.82 C 79.5105 367.948 79.9425 368.012 80.3825 368.012 C 80.8705 368.012 81.2545 367.92 81.5345 367.736 C 81.8145 367.544 81.9545 367.276 81.9545 366.932 C 81.9545 366.244 81.4305 365.9 80.3825 365.9 L 79.4945 365.9 L 79.4945 364.616 L 81.2225 362.66 L 77.6465 362.66 L 77.6465 361.1 L 83.5265 361.1 L 83.5265 362.36 L 81.6305 364.52 Z" fill="white"/>
    <path d="M128.473 88.1975V161.298H77.3896V106.711L95.9064 88.1975H128.473Z" fill="white"/>
    <path d="M95.9064 88.1975V106.711H77.3896L95.9064 88.1975Z" fill="#2A199D"/>
    <path d="M102.931 130.026C106.478 130.026 109.351 127.152 109.351 123.607C109.351 120.061 106.478 117.187 102.931 117.187C99.3844 117.187 96.5119 120.061 96.5119 123.607C96.5119 127.152 99.3844 130.026 102.931 130.026Z" fill="#2A199D"/>
    <path d="M111.415 142.581H94.4483L100.881 123.097H104.982L111.415 142.581Z" fill="#2A199D"/>
    <path d="M 78.7756 172.851 L 79.7696 172.851 L 79.7696 183.239 L 78.7756 183.239 L 78.7756 172.851 Z" fill="white"/>
    <path d="M 136.058 182.525 C 136.618 182.525 137.099 182.399 137.5 182.147 C 137.902 181.886 138.2 181.513 138.396 181.027 L 138.396 179.823 L 136.086 179.823 C 134.826 179.823 134.196 180.262 134.196 181.139 C 134.196 181.569 134.36 181.909 134.686 182.161 C 135.013 182.404 135.47 182.525 136.058 182.525 Z" fill="white"/>
    <path d="M 136.408 175.819 C 137.37 175.819 138.107 176.062 138.62 176.547 C 139.134 177.023 139.39 177.733 139.39 178.675 L 139.39 183.239 L 138.438 183.239 L 138.438 182.091 C 138.214 182.474 137.883 182.773 137.444 182.987 C 137.015 183.202 136.502 183.309 135.904 183.309 C 135.083 183.309 134.43 183.113 133.944 182.721 C 133.459 182.329 133.216 181.811 133.216 181.167 C 133.216 180.542 133.44 180.038 133.888 179.655 C 134.346 179.273 135.069 179.081 136.058 179.081 L 138.396 179.081 L 138.396 178.633 C 138.396 177.999 138.219 177.518 137.864 177.191 C 137.51 176.855 136.992 176.687 136.31 176.687 C 135.844 176.687 135.396 176.767 134.966 176.925 C 134.537 177.075 134.168 177.285 133.86 177.555 L 133.412 176.813 C 133.786 176.496 134.234 176.253 134.756 176.085 C 135.279 175.908 135.83 175.819 136.408 175.819 Z" fill="white"/>
    <path d="M 132.023 182.791 C 131.836 182.959 131.603 183.09 131.323 183.183 C 131.052 183.267 130.767 183.309 130.469 183.309 C 129.778 183.309 129.246 183.123 128.873 182.749 C 128.499 182.376 128.313 181.849 128.313 181.167 L 128.313 176.715 L 126.997 176.715 L 126.997 175.875 L 128.313 175.875 L 128.313 174.265 L 129.307 174.265 L 129.307 175.875 L 131.547 175.875 L 131.547 176.715 L 129.307 176.715 L 129.307 181.111 C 129.307 181.55 129.414 181.886 129.629 182.119 C 129.853 182.343 130.17 182.455 130.581 182.455 C 130.786 182.455 130.982 182.423 131.169 182.357 C 131.365 182.292 131.533 182.199 131.673 182.077 L 132.023 182.791 Z" fill="white"/>
    <path d="M 122.113 182.525 C 122.673 182.525 123.154 182.399 123.555 182.147 C 123.956 181.886 124.255 181.513 124.451 181.027 L 124.451 179.823 L 122.141 179.823 C 120.881 179.823 120.251 180.262 120.251 181.139 C 120.251 181.569 120.414 181.909 120.741 182.161 C 121.068 182.404 121.525 182.525 122.113 182.525 Z" fill="white"/>
    <path d="M 122.463 175.819 C 123.424 175.819 124.162 176.062 124.675 176.547 C 125.188 177.023 125.445 177.733 125.445 178.675 L 125.445 183.239 L 124.493 183.239 L 124.493 182.091 C 124.269 182.474 123.938 182.773 123.499 182.987 C 123.07 183.202 122.556 183.309 121.959 183.309 C 121.138 183.309 120.484 183.113 119.999 182.721 C 119.514 182.329 119.271 181.811 119.271 181.167 C 119.271 180.542 119.495 180.038 119.943 179.655 C 120.4 179.273 121.124 179.081 122.113 179.081 L 124.451 179.081 L 124.451 178.633 C 124.451 177.999 124.274 177.518 123.919 177.191 C 123.564 176.855 123.046 176.687 122.365 176.687 C 121.898 176.687 121.45 176.767 121.021 176.925 C 120.592 177.075 120.223 177.285 119.915 177.555 L 119.467 176.813 C 119.84 176.496 120.288 176.253 120.811 176.085 C 121.334 175.908 121.884 175.819 122.463 175.819 Z" fill="white"/>
    <path d="M 113.409 182.427 C 113.922 182.427 114.384 182.311 114.795 182.077 C 115.215 181.835 115.541 181.494 115.775 181.055 C 116.017 180.617 116.139 180.117 116.139 179.557 C 116.139 178.997 116.017 178.498 115.775 178.059 C 115.541 177.621 115.215 177.285 114.795 177.051 C 114.384 176.809 113.922 176.687 113.409 176.687 C 112.886 176.687 112.415 176.809 111.995 177.051 C 111.584 177.285 111.257 177.621 111.015 178.059 C 110.781 178.498 110.665 178.997 110.665 179.557 C 110.665 180.117 110.781 180.617 111.015 181.055 C 111.257 181.494 111.584 181.835 111.995 182.077 C 112.415 182.311 112.886 182.427 113.409 182.427 Z" fill="white"/>
    <path d="M 117.119 172.851 L 117.119 183.239 L 116.167 183.239 L 116.167 181.783 C 115.868 182.278 115.471 182.656 114.977 182.917 C 114.491 183.179 113.941 183.309 113.325 183.309 C 112.634 183.309 112.009 183.151 111.449 182.833 C 110.889 182.516 110.45 182.073 110.133 181.503 C 109.815 180.934 109.657 180.285 109.657 179.557 C 109.657 178.829 109.815 178.181 110.133 177.611 C 110.45 177.042 110.889 176.603 111.449 176.295 C 112.009 175.978 112.634 175.819 113.325 175.819 C 113.922 175.819 114.459 175.945 114.935 176.197 C 115.42 176.44 115.817 176.799 116.125 177.275 L 116.125 172.851 L 117.119 172.851 Z" fill="white"/>
    <path d="M 107.735 183.309 C 107.53 183.309 107.352 183.235 107.203 183.085 C 107.063 182.936 106.993 182.754 106.993 182.539 C 106.993 182.325 107.063 182.147 107.203 182.007 C 107.352 181.858 107.53 181.783 107.735 181.783 C 107.94 181.783 108.118 181.858 108.267 182.007 C 108.416 182.147 108.491 182.325 108.491 182.539 C 108.491 182.754 108.416 182.936 108.267 183.085 C 108.118 183.235 107.94 183.309 107.735 183.309 Z" fill="white"/>
    <path d="M 101.822 179.543 L 100.086 181.139 L 100.086 183.239 L 99.0921 183.239 L 99.0921 172.851 L 100.086 172.851 L 100.086 179.893 L 104.482 175.875 L 105.714 175.875 L 102.564 178.885 L 106.008 183.239 L 104.79 183.239 L 101.822 179.543 Z" fill="white"/>
    <path d="M 94.3648 183.309 C 93.6368 183.309 92.9834 183.151 92.4048 182.833 C 91.8354 182.516 91.3874 182.073 91.0608 181.503 C 90.7341 180.925 90.5708 180.276 90.5708 179.557 C 90.5708 178.839 90.7341 178.195 91.0608 177.625 C 91.3874 177.056 91.8354 176.613 92.4048 176.295 C 92.9834 175.978 93.6368 175.819 94.3648 175.819 C 94.9994 175.819 95.5641 175.945 96.0588 176.197 C 96.5628 176.44 96.9594 176.799 97.2488 177.275 L 96.5068 177.779 C 96.2641 177.415 95.9561 177.145 95.5828 176.967 C 95.2094 176.781 94.8034 176.687 94.3648 176.687 C 93.8328 176.687 93.3521 176.809 92.9228 177.051 C 92.5028 177.285 92.1714 177.621 91.9288 178.059 C 91.6954 178.498 91.5788 178.997 91.5788 179.557 C 91.5788 180.127 91.6954 180.631 91.9288 181.069 C 92.1714 181.499 92.5028 181.835 92.9228 182.077 C 93.3521 182.311 93.8328 182.427 94.3648 182.427 C 94.8034 182.427 95.2094 182.339 95.5828 182.161 C 95.9561 181.984 96.2641 181.713 96.5068 181.349 L 97.2488 181.853 C 96.9594 182.329 96.5628 182.693 96.0588 182.945 C 95.5548 183.188 94.9901 183.309 94.3648 183.309 Z" fill="white"/>
    <path d="M 85.5454 182.427 C 86.0681 182.427 86.5347 182.311 86.9454 182.077 C 87.3654 181.835 87.6921 181.494 87.9254 181.055 C 88.1587 180.617 88.2754 180.117 88.2754 179.557 C 88.2754 178.997 88.1587 178.498 87.9254 178.059 C 87.6921 177.621 87.3654 177.285 86.9454 177.051 C 86.5347 176.809 86.0681 176.687 85.5454 176.687 C 85.0227 176.687 84.5514 176.809 84.1314 177.051 C 83.7207 177.285 83.3941 177.621 83.1514 178.059 C 82.9181 178.498 82.8014 178.997 82.8014 179.557 C 82.8014 180.117 82.9181 180.617 83.1514 181.055 C 83.3941 181.494 83.7207 181.835 84.1314 182.077 C 84.5514 182.311 85.0227 182.427 85.5454 182.427 Z" fill="white"/>
    <path d="M 85.5454 183.309 C 84.8361 183.309 84.1967 183.151 83.6274 182.833 C 83.0581 182.507 82.6101 182.059 82.2834 181.489 C 81.9567 180.92 81.7934 180.276 81.7934 179.557 C 81.7934 178.839 81.9567 178.195 82.2834 177.625 C 82.6101 177.056 83.0581 176.613 83.6274 176.295 C 84.1967 175.978 84.8361 175.819 85.5454 175.819 C 86.2547 175.819 86.8941 175.978 87.46340000000001 176.295 C 88.0327 176.613 88.4761 177.056 88.7934 177.625 C 89.1201 178.195 89.2834 178.839 89.2834 179.557 C 89.2834 180.276 89.1201 180.92 88.7934 181.489 C 88.4761 182.059 88.0327 182.507 87.46340000000001 182.833 C 86.8941 183.151 86.2547 183.309 85.5454 183.309 Z" fill="white"/>
  </g>
</svg>
